<svg width="1166" height="949" viewBox="0 0 1166 949" fill="none" xmlns="http://www.w3.org/2000/svg">
<path d="M-10.5563 -17.1334C-10.5563 -9.76963 -4.58681 -3.80009 2.77699 -3.80009C10.1408 -3.80009 16.1103 -9.76963 16.1103 -17.1334C16.1103 -24.4972 10.1408 -30.4668 2.77699 -30.4668C-4.58681 -30.4668 -10.5563 -24.4972 -10.5563 -17.1334ZM173.635 256.049L172.568 258.31L173.635 256.049ZM981.284 216.547L980.295 218.843L981.284 216.547ZM981.284 419.292L979.325 417.739L981.284 419.292ZM863.254 677.721L860.892 678.538L863.254 677.721ZM2.77699 -17.1334L0.343448 -17.706C-0.294037 -14.9967 -0.890001 -12.3131 -1.44509 -9.6548L1.00213 -9.14378L3.44934 -8.63277C3.99569 -11.2492 4.58252 -13.8918 5.21053 -16.5608L2.77699 -17.1334ZM-1.88277 6.78779L-4.35418 6.41079C-5.19521 11.9241 -5.8522 17.3229 -6.33161 22.6109L-3.84182 22.8366L-1.35203 23.0623C-0.882078 17.8787 -0.237548 12.5808 0.588637 7.16479L-1.88277 6.78779ZM-4.76413 39.033L-7.26352 38.9776C-7.38752 44.5774 -7.30221 50.0455 -7.01643 55.3867L-4.52 55.2531L-2.02357 55.1195C-2.30245 49.9073 -2.38603 44.5653 -2.26475 39.0883L-4.76413 39.033ZM-3.00106 71.3515L-5.47804 71.6899C-4.72139 77.2274 -3.73777 82.6189 -2.53892 87.8704L-0.101623 87.314L2.33567 86.7576C1.17006 81.6517 0.212789 76.4057 -0.524078 71.013L-3.00106 71.3515ZM4.2238 102.912L1.84843 103.692C3.57844 108.964 5.53649 114.083 7.70806 119.058L9.99931 118.058L12.2906 117.058C10.1814 112.226 8.27962 107.253 6.59918 102.133L4.2238 102.912ZM17.1642 132.579L14.976 133.788C17.635 138.6 20.5027 143.267 23.5629 147.796L25.6344 146.396L27.7058 144.997C24.7265 140.587 21.9371 136.048 19.3524 131.37L17.1642 132.579ZM35.2644 159.427L33.3166 160.994C36.7348 165.242 40.3278 169.362 44.0798 173.361L45.903 171.65L47.7262 169.939C44.0566 166.028 40.5471 162.004 37.2121 157.86L35.2644 159.427ZM57.3929 183.076L55.6901 184.906C59.6627 188.602 63.773 192.19 68.0062 195.678L69.5961 193.749L71.186 191.82C67.0254 188.391 62.9907 184.869 59.0957 181.245L57.3929 183.076ZM82.371 203.714L80.8843 205.724C85.2358 208.942 89.6908 212.074 94.2354 215.127L95.6293 213.051L97.0232 210.976C92.5371 207.963 88.1443 204.875 83.8577 201.704L82.371 203.714ZM109.257 221.814L107.945 223.942C112.549 226.781 117.226 229.55 121.963 232.257L123.204 230.087L124.444 227.916C119.751 225.234 115.122 222.493 110.569 219.686L109.257 221.814ZM137.389 237.923L136.21 240.128C140.98 242.679 145.797 245.177 150.65 247.628L151.777 245.396L152.904 243.165C148.083 240.73 143.301 238.25 138.568 235.719L137.389 237.923ZM166.317 252.562L165.233 254.815C167.673 255.99 170.118 257.154 172.568 258.31L173.635 256.049L174.702 253.788C172.263 252.638 169.829 251.478 167.402 250.31L166.317 252.562ZM173.635 256.049L172.568 258.31C174.992 259.453 177.43 260.554 179.882 261.612L180.873 259.317L181.863 257.021C179.462 255.985 177.074 254.907 174.702 253.788L173.635 256.049ZM195.607 265.113L194.767 267.468C199.789 269.259 204.866 270.89 209.996 272.368L210.688 269.966L211.38 267.563C206.348 266.113 201.369 264.514 196.447 262.759L195.607 265.113ZM226.021 273.897L225.47 276.336C230.652 277.506 235.883 278.534 241.16 279.427L241.578 276.962L241.995 274.497C236.804 273.619 231.662 272.608 226.572 271.459L226.021 273.897ZM257.263 279.207L256.97 281.69C262.216 282.308 267.505 282.805 272.833 283.187L273.012 280.694L273.19 278.2C267.935 277.823 262.723 277.333 257.556 276.724L257.263 279.207ZM288.857 281.492L288.782 283.991C294.062 284.148 299.379 284.203 304.729 284.16L304.71 281.661L304.69 279.161C299.399 279.202 294.146 279.148 288.931 278.993L288.857 281.492ZM320.519 281.264L320.624 283.762C325.903 283.542 331.213 283.236 336.551 282.85L336.371 280.357L336.191 277.863C330.9 278.245 325.641 278.548 320.415 278.766L320.519 281.264ZM352.151 278.998L352.399 281.486C357.637 280.965 362.901 280.374 368.189 279.719L367.882 277.238L367.575 274.757C362.324 275.407 357.1 275.993 351.904 276.51L352.151 278.998ZM383.638 275.111L383.998 277.585C389.198 276.828 394.419 276.015 399.661 275.151L399.254 272.684L398.847 270.217C393.635 271.077 388.444 271.885 383.277 272.638L383.638 275.111ZM414.878 269.973L415.326 272.432C420.516 271.488 425.723 270.5 430.948 269.473L430.465 267.02L429.983 264.567C424.78 265.59 419.596 266.574 414.431 267.513L414.878 269.973ZM445.973 263.867L446.486 266.314C451.657 265.23 456.842 264.113 462.041 262.966L461.503 260.525L460.964 258.084C455.781 259.227 450.612 260.34 445.46 261.42L445.973 263.867ZM476.935 257.048L477.494 259.485C482.637 258.303 487.792 257.098 492.956 255.872L492.379 253.44L491.802 251.007C486.648 252.23 481.505 253.433 476.375 254.612L476.935 257.048ZM507.79 249.737L508.381 252.166C513.505 250.92 518.638 249.659 523.778 248.387L523.178 245.961L522.577 243.534C517.442 244.804 512.316 246.063 507.199 247.307L507.79 249.737ZM538.573 242.128L539.179 244.553C544.294 243.274 549.416 241.987 554.543 240.698L553.933 238.273L553.323 235.849C548.197 237.138 543.078 238.424 537.966 239.703L538.573 242.128ZM569.312 234.405L569.922 236.83C575.04 235.543 580.162 234.258 585.287 232.979L584.681 230.553L584.076 228.127C578.947 229.408 573.823 230.694 568.703 231.98L569.312 234.405ZM600.067 226.733L600.666 229.16C605.793 227.895 610.921 226.64 616.049 225.398L615.461 222.968L614.873 220.539C609.736 221.783 604.601 223.039 599.468 224.305L600.067 226.733ZM630.88 219.278L631.455 221.711C636.593 220.498 641.73 219.301 646.865 218.126L646.307 215.689L645.75 213.252C640.602 214.43 635.454 215.629 630.305 216.845L630.88 219.278ZM661.785 212.215L662.322 214.656C667.479 213.522 672.633 212.414 677.781 211.336L677.268 208.889L676.756 206.442C671.59 207.524 666.42 208.636 661.248 209.773L661.785 212.215ZM692.811 205.724L693.296 208.177C698.48 207.153 703.659 206.164 708.83 205.214L708.378 202.755L707.926 200.296C702.732 201.251 697.532 202.244 692.327 203.272L692.811 205.724ZM723.979 200.005L724.394 202.47C729.612 201.591 734.82 200.756 740.018 199.969L739.644 197.498L739.27 195.026C734.043 195.817 728.807 196.656 723.563 197.54L723.979 200.005ZM755.3 195.274L755.628 197.753C760.879 197.057 766.118 196.416 771.344 195.834L771.067 193.349L770.79 190.865C765.529 191.451 760.256 192.096 754.972 192.796L755.3 195.274ZM786.824 191.772L787.044 194.262C792.306 193.797 797.553 193.397 802.783 193.066L802.625 190.571L802.467 188.076C797.194 188.409 791.906 188.813 786.604 189.282L786.824 191.772ZM818.467 189.783L818.556 192.282C823.82 192.093 829.065 191.981 834.289 191.951L834.275 189.451L834.26 186.951C828.984 186.982 823.689 187.095 818.378 187.285L818.467 189.783ZM850.153 189.613L850.086 192.112C855.354 192.253 860.6 192.482 865.821 192.806L865.976 190.311L866.13 187.816C860.849 187.488 855.544 187.256 850.219 187.114L850.153 189.613ZM881.759 191.587L881.51 194.075C886.751 194.6 891.966 195.228 897.153 195.962L897.504 193.487L897.854 191.011C892.598 190.267 887.315 189.632 882.008 189.1L881.759 191.587ZM913.128 196.042L912.67 198.5C917.834 199.461 922.967 200.536 928.069 201.73L928.638 199.296L929.208 196.862C924.03 195.65 918.822 194.559 913.585 193.584L913.128 196.042ZM943.967 203.274L943.281 205.678C948.317 207.117 953.32 208.68 958.289 210.374L959.095 208.007L959.902 205.641C954.853 203.92 949.769 202.332 944.654 200.871L943.967 203.274ZM973.941 213.499L973.013 215.82C975.45 216.794 977.877 217.801 980.295 218.843L981.284 216.547L982.274 214.251C979.814 213.192 977.346 212.167 974.869 211.177L973.941 213.499ZM981.284 216.547L980.295 218.843C982.72 219.888 985.059 220.954 987.314 222.041L988.399 219.789L989.485 217.537C987.164 216.418 984.761 215.323 982.274 214.251L981.284 216.547ZM1001.98 227.171L1000.67 229.3C1005.22 232.1 1009.32 235.005 1013 238.002L1014.58 236.064L1016.16 234.126C1012.3 230.979 1008.01 227.947 1003.29 225.041L1001.98 227.171ZM1025.72 246.799L1023.83 248.437C1027.26 252.388 1030.09 256.463 1032.39 260.639L1034.58 259.433L1036.77 258.227C1034.3 253.732 1031.26 249.369 1027.61 245.161L1025.72 246.799ZM1040.43 273.737L1038.02 274.409C1039.36 279.202 1040.14 284.112 1040.41 289.115L1042.91 288.977L1045.41 288.839C1045.11 283.5 1044.28 278.23 1042.84 273.064L1040.43 273.737ZM1042.32 304.425L1039.84 304.114C1039.22 309.004 1038.21 313.954 1036.86 318.943L1039.28 319.597L1041.69 320.25C1043.09 315.063 1044.15 309.883 1044.8 304.737L1042.32 304.425ZM1034.41 334.278L1032.08 333.373C1030.27 338.034 1028.21 342.702 1025.95 347.358L1028.2 348.451L1030.45 349.543C1032.76 344.779 1034.88 339.986 1036.74 335.184L1034.41 334.278ZM1020.98 362.143L1018.8 360.91C1016.3 365.333 1013.65 369.725 1010.89 374.067L1013 375.407L1015.11 376.746C1017.91 372.342 1020.6 367.879 1023.15 363.375L1020.98 362.143ZM1004.44 388.299L1002.38 386.877C999.442 391.124 996.439 395.302 993.412 399.394L995.423 400.881L997.433 402.367C1000.49 398.239 1003.52 394.018 1006.49 389.722L1004.44 388.299ZM986.063 413.208L984.089 411.673C982.494 413.725 980.904 415.748 979.325 417.739L981.284 419.292L983.244 420.845C984.831 418.843 986.43 416.808 988.036 414.742L986.063 413.208ZM981.284 419.292L979.325 417.739C977.599 419.918 975.843 422.081 974.061 424.232L975.986 425.827L977.911 427.422C979.714 425.245 981.493 423.054 983.244 420.845L981.284 419.292ZM965.022 438.591L963.151 436.932C959.452 441.104 955.683 445.238 951.874 449.352L953.708 451.051L955.542 452.749C959.369 448.617 963.163 444.455 966.892 440.25L965.022 438.591ZM942.2 463.332L940.382 461.615C936.531 465.692 932.661 469.772 928.821 473.848L930.641 475.562L932.461 477.276C936.299 473.202 940.154 469.138 944.017 465.049L942.2 463.332ZM919.169 487.878L917.327 486.188C913.504 490.354 909.734 494.544 906.05 498.77L907.935 500.413L909.819 502.056C913.469 497.869 917.21 493.712 921.011 489.569L919.169 487.878ZM897.11 513.299L895.163 511.73C891.595 516.16 888.15 520.646 884.864 525.205L886.893 526.667L888.921 528.129C892.147 523.651 895.537 519.236 899.057 514.867L897.11 513.299ZM877.519 540.636L875.394 539.319C872.39 544.166 869.591 549.109 867.034 554.166L869.265 555.294L871.496 556.422C873.982 551.506 876.709 546.689 879.644 541.953L877.519 540.636ZM862.436 570.668L860.101 569.774C858.075 575.071 856.33 580.498 854.906 586.071L857.328 586.69L859.75 587.309C861.124 581.931 862.81 576.688 864.771 571.561L862.436 570.668ZM854.161 603.197L851.681 602.877C850.965 608.419 850.568 614.103 850.522 619.942L853.022 619.962L855.521 619.982C855.567 614.344 855.95 608.861 856.64 603.518L854.161 603.197ZM853.851 636.768L851.365 637.029C851.942 642.515 852.821 648.133 854.024 653.892L856.471 653.381L858.918 652.87C857.749 647.27 856.896 641.819 856.337 636.506L853.851 636.768ZM860.641 669.659L858.248 670.382C859.06 673.07 859.941 675.789 860.892 678.538L863.254 677.721L865.617 676.904C864.688 674.216 863.827 671.56 863.034 668.935L860.641 669.659ZM863.254 677.721L860.892 678.538C861.778 681.104 862.744 683.63 863.785 686.119L866.092 685.154L868.398 684.189C867.397 681.796 866.469 679.368 865.617 676.904L863.254 677.721ZM873.096 699.405L870.921 700.638C873.564 705.3 876.476 709.824 879.631 714.224L881.663 712.768L883.695 711.311C880.637 707.046 877.821 702.67 875.271 698.172L873.096 699.405ZM891.516 725.232L889.625 726.868C893.101 730.885 896.777 734.798 900.629 738.62L902.39 736.846L904.15 735.071C900.38 731.331 896.792 727.51 893.407 723.597L891.516 725.232ZM914.01 747.654L912.363 749.535C916.336 753.014 920.449 756.421 924.682 759.767L926.232 757.806L927.783 755.844C923.609 752.545 919.561 749.192 915.657 745.773L914.01 747.654ZM938.91 767.403L937.44 769.425C941.713 772.533 946.08 775.593 950.522 778.614L951.928 776.547L953.334 774.48C948.93 771.484 944.607 768.454 940.381 765.381L938.91 767.403ZM965.179 785.321L963.822 787.421C968.259 790.287 972.751 793.126 977.282 795.944L978.603 793.822L979.923 791.699C975.412 788.892 970.944 786.069 966.535 783.221L965.179 785.321ZM992.15 802.136L990.853 804.273C995.378 807.019 999.927 809.753 1004.48 812.484L1005.77 810.339L1007.05 808.195C1002.5 805.467 997.961 802.737 993.447 799.998L992.15 802.136ZM1019.41 818.505L1018.12 820.65C1022.67 823.375 1027.21 826.103 1031.73 828.843L1033.03 826.705L1034.32 824.568C1029.79 821.821 1025.24 819.088 1020.69 816.361L1019.41 818.505ZM1046.57 835.012L1045.25 837.136C1049.77 839.938 1054.24 842.76 1058.66 845.608L1060.01 843.506L1061.37 841.405C1056.92 838.539 1052.42 835.703 1047.89 832.888L1046.57 835.012ZM1073.28 852.268L1071.88 854.338C1076.28 857.322 1080.61 860.341 1084.85 863.405L1086.31 861.378L1087.78 859.352C1083.5 856.256 1079.12 853.207 1074.69 850.199L1073.28 852.268ZM1099.02 870.925L1097.48 872.894C1101.66 876.169 1105.73 879.5 1109.66 882.895L1111.3 881.003L1112.93 879.11C1108.93 875.658 1104.8 872.276 1100.56 868.957L1099.02 870.925ZM1123.02 891.724L1121.28 893.517C1125.09 897.214 1128.72 900.992 1132.17 904.859L1134.04 903.195L1135.91 901.531C1132.37 897.568 1128.65 893.704 1124.77 889.931L1123.02 891.724ZM1144.11 915.476L1142.11 916.976C1145.27 921.178 1148.19 925.488 1150.88 929.916L1153.01 928.621L1155.15 927.326C1152.38 922.748 1149.36 918.302 1146.11 913.977L1144.11 915.476ZM1160.49 942.638L1158.22 943.687C1159.31 946.046 1160.33 948.438 1161.28 950.865L1163.61 949.952L1165.94 949.039C1164.95 946.518 1163.89 944.035 1162.76 941.588L1160.49 942.638Z" fill="#EFF0F1"/>
</svg>
