<svg width="144" height="46" viewBox="0 0 144 46" fill="none" xmlns="http://www.w3.org/2000/svg">
<path fill-rule="evenodd" clip-rule="evenodd" d="M21.8538 8.54439C29.5722 8.54439 35.829 14.7566 35.829 22.4199C35.829 30.0832 29.5722 36.2954 21.8538 36.2954C14.1355 36.2954 7.87885 30.0831 7.87885 22.4199C7.87885 14.7567 14.1357 8.54439 21.8538 8.54439ZM21.8538 5.85742C31.0668 5.85742 38.5355 13.2726 38.5355 22.4199C38.5355 31.5673 31.0668 38.9823 21.8538 38.9823C12.6408 38.9823 5.17236 31.5672 5.17236 22.4199C5.17236 13.2726 12.641 5.85742 21.8538 5.85742Z" fill="white"/>
<path fill-rule="evenodd" clip-rule="evenodd" d="M25.7231 29.2823C25.3941 29.9882 24.873 30.6165 24.1757 31.0828C22.7454 32.0389 20.9567 32.0579 19.5451 31.2823C19.8727 31.0912 20.2006 30.8867 20.527 30.6684C23.0738 28.9657 24.8847 26.8691 25.4654 25.1631C25.4141 25.2568 25.3597 25.3511 25.3025 25.4459L25.2604 25.515L25.2589 25.5173L25.2149 25.5878L25.2141 25.5888C25.1839 25.6366 25.1531 25.6845 25.1215 25.7326L25.1206 25.7342C25.0576 25.8297 24.9917 25.9257 24.923 26.0219L24.9183 26.0287L24.8707 26.0945C24.7866 26.2105 24.6984 26.327 24.6063 26.4436L24.5936 26.4596L24.5821 26.4743L24.5351 26.5328C24.4986 26.5782 24.4613 26.6237 24.4237 26.6692L24.4114 26.684L24.3658 26.7382L24.3486 26.7587L24.3 26.8159L24.2879 26.8299C24.2485 26.8757 24.2084 26.9217 24.1679 26.9677L24.1605 26.9759L24.1063 27.0365L24.0918 27.0531C24.0512 27.0982 24.0098 27.1433 23.9681 27.1884L23.9601 27.1972L23.8992 27.2623L23.8921 27.27C23.849 27.316 23.8053 27.3618 23.7612 27.4077L23.7507 27.4185C23.7054 27.4653 23.6597 27.5118 23.6135 27.5585L23.6087 27.5633L23.5496 27.6222L23.5292 27.6427L23.4777 27.6935L23.4504 27.7202L23.3936 27.7752L23.3854 27.7833L23.3258 27.8404L23.3136 27.8524L23.2724 27.8913L23.2367 27.925L23.1936 27.9653L23.159 27.9976L23.1446 28.0108L23.0907 28.0605L23.0803 28.07L23.0335 28.1126L23.0008 28.1422L22.9808 28.1604L22.9289 28.207L22.9068 28.2267L22.8504 28.2765L22.8188 28.3044L22.7645 28.3518L22.7463 28.3675L22.6818 28.4232L22.6743 28.4297L22.6174 28.4781L22.5904 28.501L22.5314 28.5507L22.5222 28.5585L22.4622 28.6083L22.4381 28.6284L22.374 28.6811L22.357 28.6951L22.3339 28.7139L22.2686 28.7667L22.2468 28.7844L22.2251 28.8017C22.1447 28.8659 22.0635 28.9299 21.9809 28.9935L21.9804 28.9941L21.906 29.0511L21.8898 29.0635L21.8677 29.0804L21.7988 29.1325L21.7199 29.1918L21.7067 29.2014L21.6256 29.2615L21.6139 29.27L21.5304 29.3308L21.5204 29.3382L21.4345 29.3999L21.426 29.4059L21.3378 29.4686L21.2612 29.5221L21.2401 29.537L21.235 29.5405L21.142 29.605L21.1385 29.6074L21.0428 29.6726L21.041 29.6737L20.9431 29.7398L20.912 29.7606L20.8811 29.7812L20.8635 29.7927L20.85 29.8016L20.819 29.8221L20.7879 29.8423L20.784 29.845L20.726 29.8829L20.7043 29.8968L20.6949 29.9027L20.6639 29.9228L20.6328 29.9428L20.6246 29.9481L20.6018 29.9627L20.5707 29.9824L20.545 29.9988L20.5396 30.0022L20.5086 30.0217L20.4775 30.0412L20.4653 30.0488L20.4464 30.0608L20.4154 30.08L20.3856 30.0985L20.3843 30.0994L20.3533 30.1186L20.322 30.1376L20.3059 30.1477L20.291 30.1567L20.2599 30.1757L20.2289 30.1944L20.2261 30.1961L20.1978 30.2132L20.1668 30.2319L20.1464 30.2443L20.1355 30.2506L20.1045 30.2691L20.0734 30.2874L20.0665 30.2916L20.0424 30.3059L20.0113 30.3241L19.8869 30.3965L19.856 30.4143L19.8272 30.4307L19.8248 30.4321L19.7937 30.4497L19.7626 30.4674L19.7316 30.4849L19.7005 30.5024L19.6695 30.5196L19.6681 30.5207L19.6386 30.5369L19.6076 30.5542L19.5765 30.5713L19.5455 30.5884L19.5146 30.6053L19.5089 30.6083L19.4835 30.622L19.4524 30.6388L19.3905 30.672L19.3596 30.6886L19.3499 30.6939L19.3286 30.705L19.2977 30.7214L19.2705 30.7357L19.2668 30.7376L19.2357 30.7538L19.2049 30.7699L19.1912 30.7771L19.1742 30.7859L19.1431 30.802L19.1122 30.8178L19.0815 30.8335L19.0506 30.8491L19.0329 30.8582L19.0198 30.8647L18.9889 30.8802L18.9582 30.8957C17.929 31.409 16.924 31.7788 16.0064 31.9959L15.3719 31.0604C16.2272 31.0136 17.2478 30.754 18.332 30.3008C18.2202 30.1713 18.1147 30.034 18.0163 29.889C16.6475 27.8705 17.1857 25.1327 19.2187 23.7735C19.9155 23.3076 20.6976 23.0644 21.4795 23.0271C23.6912 22.9202 26.1011 23.0005 28.3359 22.9897C27.4845 25.0438 26.6536 27.2836 25.7231 29.2823Z" fill="#A6CA5C"/>
<path fill-rule="evenodd" clip-rule="evenodd" d="M25.7231 15.557C25.3941 14.8513 24.873 14.223 24.1757 13.7567C22.7454 12.8006 20.9567 12.7816 19.5451 13.5572C19.8727 13.7481 20.2006 13.9528 20.527 14.1711C23.0738 15.8738 24.8847 17.9704 25.4654 19.6762C25.4141 19.5827 25.3597 19.4884 25.3025 19.3936L25.2604 19.3245L25.2589 19.3223L25.2149 19.2518L25.2141 19.2505C25.1839 19.2029 25.1531 19.155 25.1215 19.1069L25.1206 19.1053C25.0576 19.0098 24.9917 18.9138 24.923 18.8176L24.9183 18.8109L24.8707 18.745C24.7866 18.629 24.6984 18.5125 24.6063 18.3959L24.5936 18.3799L24.5821 18.3653L24.5351 18.3066C24.4986 18.2613 24.4613 18.2158 24.4237 18.1703L24.4114 18.1555L24.3658 18.1011L24.3486 18.0808L24.3 18.0236L24.2879 18.0097C24.2485 17.9638 24.2084 17.9178 24.1679 17.8719L24.1605 17.8636L24.1063 17.8028L24.0918 17.7864C24.0512 17.7413 24.0098 17.6962 23.9681 17.6511L23.9601 17.6423L23.8992 17.5772L23.8921 17.5695C23.849 17.5235 23.8053 17.4777 23.7612 17.4318L23.7507 17.421C23.7054 17.3743 23.6597 17.3275 23.6135 17.281L23.6087 17.2763L23.5496 17.2171L23.5292 17.1968L23.4777 17.1461L23.4504 17.1193L23.3936 17.0642L23.3854 17.0562L23.3258 16.9991L23.3136 16.9871L23.2724 16.9482L23.2367 16.9145L23.1936 16.8742L23.159 16.8419L23.1446 16.8287L23.0907 16.779L23.0803 16.7695L23.0335 16.7269L23.0008 16.6973L22.9808 16.6791L22.9289 16.6326L22.9068 16.6129L22.8504 16.563L22.8188 16.5352L22.7645 16.4877L22.7463 16.4721L22.6818 16.4162L22.6743 16.4098L22.6174 16.3612L22.5904 16.3385L22.5314 16.2888L22.5222 16.281L22.4622 16.231L22.4381 16.2111L22.374 16.1584L22.357 16.1445L22.3339 16.1256L22.2686 16.0726L22.2468 16.0551L22.2251 16.0379C22.1447 15.9736 22.0635 15.9096 21.9809 15.8458L21.9804 15.8453L21.906 15.7884L21.8898 15.7758L21.8677 15.7589L21.7988 15.707L21.7199 15.6478L21.7067 15.6381L21.6256 15.578L21.6139 15.5695L21.5304 15.5087L21.5204 15.5013L21.4345 15.4395L21.426 15.4335L21.3378 15.3708L21.2612 15.3172L21.2401 15.3026L21.235 15.2989L21.142 15.2344L21.1385 15.2321L21.0428 15.1669L21.041 15.1656L20.9431 15.0998L20.912 15.0789L20.8811 15.0584L20.8635 15.0467L20.85 15.0379L20.819 15.0174L20.7879 14.997L20.784 14.9946L20.726 14.9567L20.7043 14.9427L20.6949 14.9366L20.6639 14.9167L20.6328 14.8967L20.6246 14.8915L20.6018 14.8768L20.5707 14.857L20.545 14.8407L20.5396 14.8374L20.5086 14.8177L20.4775 14.7983L20.4653 14.7905L20.4464 14.7787L20.4154 14.7595L20.3856 14.7408L20.3843 14.7401L20.3533 14.7209L20.322 14.7019L20.3059 14.6919L20.291 14.6828L20.2599 14.6638L20.2289 14.6452L20.2261 14.6434L20.1978 14.6263L20.1668 14.6074L20.1464 14.5952L20.1355 14.5889L20.1045 14.5705L20.0734 14.5519L20.0665 14.5479L20.0424 14.5336L20.0113 14.5154L19.8869 14.443L19.856 14.4252L19.8272 14.4088L19.8248 14.4075L19.7937 14.3898L19.7626 14.3722L19.7316 14.3546L19.7005 14.3371L19.6695 14.3197L19.6681 14.3188L19.6386 14.3026L19.6076 14.2853L19.5765 14.2682L19.5455 14.2511L19.5146 14.2342L19.5089 14.2312L19.4835 14.2173L19.4524 14.2006L19.3905 14.1674L19.3596 14.1506L19.3499 14.1456L19.3286 14.1345L19.2977 14.1181L19.2705 14.1037L19.2668 14.1017L19.2357 14.0855L19.2049 14.0695L19.1912 14.0624L19.1742 14.0534L19.1431 14.0376L19.1122 14.0217L19.0815 14.006L19.0506 13.9903L19.0329 13.9813L19.0198 13.9749L18.9889 13.9591L18.9582 13.9438C17.929 13.4305 16.924 13.0606 16.0064 12.8434L15.3719 13.779C16.2272 13.8259 17.2478 14.0855 18.332 14.5387C18.2202 14.6682 18.1147 14.8055 18.0163 14.9505C16.6475 16.969 17.1857 19.7069 19.2187 21.0659C19.9155 21.5317 20.6976 21.775 21.4795 21.8124C23.6912 21.9192 26.1011 21.839 28.3359 21.8497C27.4845 19.7957 26.6536 17.5559 25.7231 15.557Z" fill="white"/>
<path d="M80.4752 28.0337C78.3986 28.0337 76.9894 26.3402 76.9894 24.401C76.9894 22.4128 78.2749 20.7683 80.4257 20.7683C82.5025 20.7683 83.9117 22.4618 83.9117 24.401C83.9117 26.3891 82.626 28.0337 80.4752 28.0337ZM80.4257 31.2493C84.5543 31.2493 87.62 28.181 87.62 24.401C87.62 20.5718 84.5791 17.5529 80.4752 17.5529C76.3466 17.5529 73.2811 20.621 73.2811 24.401C73.2811 28.2301 76.322 31.2493 80.4257 31.2493Z" fill="white"/>
<path d="M96.4023 28.0339C94.6471 28.0339 93.1638 26.5858 93.1638 24.4012C93.1638 22.1429 94.6471 20.7193 96.4023 20.7193C98.1577 20.7193 99.6162 22.1676 99.6162 24.352C99.6162 26.5858 98.1577 28.0339 96.4023 28.0339ZM95.4382 31.2003C97.3914 31.2003 98.6521 30.2921 99.5668 29.0648V30.9548H103.324V13.7728H99.5668V19.5165C98.6768 18.461 97.4407 17.553 95.4382 17.553C92.2986 17.553 89.4061 19.9585 89.4061 24.352C89.4061 28.7948 92.3479 31.2003 95.4382 31.2003Z" fill="white"/>
<path d="M105.508 30.9546H109.265V23.6156C109.265 21.8483 110.18 20.9401 111.614 20.9401C113.048 20.9401 113.888 21.8483 113.888 23.6156V30.9546H117.646V22.4373C117.646 19.4182 115.99 17.5529 113.147 17.5529C111.243 17.5529 110.131 18.5591 109.265 19.6636V17.7983H105.508V30.9546Z" fill="white"/>
<path d="M119.829 13.7728H123.587V16.6015H119.829V13.7728ZM119.829 30.9548H123.587V17.7984H119.829V30.9548Z" fill="white"/>
<path d="M125.77 30.9548H129.528V26.9539L130.838 25.5793L134.299 30.9548H138.601L133.385 22.9776L138.428 17.7984H133.929L129.528 22.5848V13.7728H125.77V30.9548Z" fill="white"/>
<path d="M45.1669 22.1184V17.1847H48.9494C50.8035 17.1847 51.9407 18.0193 51.9407 19.6393C51.9407 21.1366 50.8776 22.1184 49.0236 22.1184H45.1669ZM41.3597 30.9548H45.1669V25.4566H48.1089L51.8666 30.9548H56.3165L52.0891 24.8184C54.2894 24.0084 55.7974 22.2657 55.7974 19.492C55.7974 17.823 55.2783 16.4728 54.314 15.5157C53.1768 14.3866 51.4711 13.7728 49.2708 13.7728H41.3597L41.3597 30.9548Z" fill="#A1C85C"/>
<path d="M61.6828 22.1184V17.1847H65.4653C67.3195 17.1847 68.4567 18.0193 68.4567 19.6393C68.4567 21.1366 67.3937 22.1184 65.5395 22.1184H61.6828ZM57.8756 30.9548H61.6828V25.4566H64.6248L68.3826 30.9548H72.8325L68.6049 24.8184C70.8053 24.0084 72.3132 22.2657 72.3132 19.492C72.3132 17.823 71.7942 16.4728 70.8299 15.5157C69.6927 14.3866 67.987 13.7728 65.7867 13.7728H57.8756V30.9548Z" fill="white"/>
<path d="M81.9958 9.47251H84.6495C84.4369 10.3354 83.7434 10.9689 82.8095 10.9689C82.0514 10.9689 81.5519 10.6752 81.0341 10.207L80.1558 11.1525C80.8215 11.8594 81.6075 12.2358 82.8557 12.2358C84.7605 12.2358 86.1753 10.7761 86.1753 8.91255C86.1753 7.08542 84.7882 5.58911 82.8003 5.58911C81.6352 5.58911 80.914 6.02064 80.3315 6.56207L81.1173 7.53528C81.6075 7.10395 82.1623 6.85604 82.8095 6.85604C83.7065 6.85604 84.4091 7.46199 84.6404 8.29739H81.9958L81.9958 9.47251Z" fill="white"/>
<path d="M87.5846 12.1255H89.0086V10.1607L89.7576 9.38967L91.7641 12.1255H93.4748L90.7193 8.42566L93.3544 5.69897H91.6347L89.0086 8.50827V5.69897H87.5846V12.1255Z" fill="white"/>
<path d="M97.0514 10.9323C95.905 10.9323 95.0913 10.0142 95.0913 8.91255C95.0913 7.79239 95.8865 6.89266 97.033 6.89266C98.1796 6.89266 98.9934 7.81073 98.9934 8.91255C98.9934 10.0325 98.1981 10.9323 97.0514 10.9323ZM97.033 12.2358C99.0303 12.2358 100.482 10.7394 100.482 8.91255C100.482 7.06715 99.0488 5.58911 97.0514 5.58911C95.0544 5.58911 93.6027 7.08542 93.6027 8.91255C93.6027 10.7578 95.0359 12.2358 97.033 12.2358Z" fill="white"/>
<path d="M107.503 10.9323C106.357 10.9323 105.543 10.0142 105.543 8.91255C105.543 7.79239 106.338 6.89266 107.485 6.89266C108.632 6.89266 109.445 7.81073 109.445 8.91255C109.445 10.0325 108.65 10.9323 107.503 10.9323ZM107.485 12.2358C109.482 12.2358 110.934 10.7394 110.934 8.91255C110.934 7.06715 109.501 5.58911 107.503 5.58911C105.506 5.58911 104.055 7.08542 104.055 8.91255C104.055 10.7578 105.488 12.2358 107.485 12.2358Z" fill="white"/>
<path d="M113.907 12.1255H115.331V7.00258H117.3V5.69897H111.937V7.00258H113.907V12.1255Z" fill="white"/>
<path d="M118.924 12.1255H123.852V10.8677H120.338V9.5181H123.39V8.26037H120.338V6.95677H123.852V5.69897H118.924V12.1255Z" fill="white"/>
<path d="M126.981 5.69897C126.981 6.7714 127.141 10.8665 125.97 10.8677H125.557V12.1255H126.214C127.505 12.1255 128.312 11.1614 128.312 7.37916V6.9751H130.18V12.1255H131.604V5.69897H126.981Z" fill="white"/>
<path d="M135.941 9.09576C136.653 9.09576 137.013 9.40801 137.013 9.94963C137.013 10.5464 136.653 10.8494 135.95 10.8494H134.683V9.09576H135.941ZM133.259 12.1255H135.968C137.485 12.1255 138.428 11.2901 138.428 9.96797C138.428 8.71017 137.559 7.88397 136.061 7.88397H134.683V5.69897H133.259V12.1255Z" fill="white"/>
</svg>
