<svg width="1144" height="686" viewBox="0 0 1144 686" fill="none" xmlns="http://www.w3.org/2000/svg">
<path d="M1101.33 -52C1101.33 -44.6362 1095.36 -38.6667 1088 -38.6667C1080.64 -38.6667 1074.67 -44.6362 1074.67 -52C1074.67 -59.3638 1080.64 -65.3333 1088 -65.3333C1095.36 -65.3333 1101.33 -59.3638 1101.33 -52ZM1106.96 241L1104.84 239.681L1106.96 241ZM155.533 227.5L154.337 225.304L155.533 227.5ZM17 559.5L19.3562 558.664L17 559.5ZM228.5 734.5L227.897 736.926L228.5 734.5ZM1090.09 -53.3709C1091.53 -51.1692 1092.94 -48.9695 1094.32 -46.7723L1090.08 -44.1188C1088.72 -46.2863 1087.33 -48.4565 1085.91 -50.6291L1090.09 -53.3709ZM1102.3 -33.3964C1104.9 -28.8131 1107.36 -24.243 1109.68 -19.689L1105.23 -17.4191C1102.94 -21.9058 1100.52 -26.4098 1097.95 -30.9282L1102.3 -33.3964ZM1116.44 -5.61762C1118.62 -0.800903 1120.64 3.99414 1122.52 8.76414L1117.87 10.5973C1116.02 5.90318 1114.03 1.18309 1111.89 -3.55965L1116.44 -5.61762ZM1127.87 23.4099C1129.56 28.4136 1131.09 33.3849 1132.47 38.3199L1127.66 39.6681C1126.3 34.8164 1124.79 29.9278 1123.13 25.0063L1127.87 23.4099ZM1136.28 53.4736C1137.43 58.6208 1138.42 63.7223 1139.26 68.7732L1134.33 69.5954C1133.5 64.6335 1132.53 59.6211 1131.4 54.5628L1136.28 53.4736ZM1141.41 84.2687C1141.98 89.5149 1142.4 94.6983 1142.68 99.8131L1137.68 100.08C1137.42 95.0578 1137 89.9678 1136.44 84.8156L1141.41 84.2687ZM1143.07 115.451C1143.05 120.741 1142.87 125.946 1142.56 131.059L1137.57 130.753C1137.88 125.734 1138.05 120.625 1138.07 115.432L1143.07 115.451ZM1141.15 146.61C1140.52 151.882 1139.74 157.041 1138.83 162.077L1133.91 161.188C1134.8 156.248 1135.56 151.187 1136.18 146.014L1141.15 146.61ZM1135.59 177.371C1134.32 182.551 1132.93 187.577 1131.42 192.438L1126.64 190.956C1128.12 186.193 1129.49 181.266 1130.73 176.187L1135.59 177.371ZM1126.3 207.22C1124.38 212.251 1122.33 217.062 1120.21 221.639L1115.67 219.531C1117.75 215.06 1119.75 210.355 1121.63 205.432L1126.3 207.22ZM1113.07 235.581C1111.76 237.911 1110.43 240.157 1109.09 242.319L1104.84 239.681C1106.14 237.582 1107.44 235.397 1108.71 233.13L1113.07 235.581ZM1109.09 242.319C1107.62 244.681 1106.13 246.991 1104.63 249.249L1100.47 246.475C1101.94 244.262 1103.4 241.998 1104.84 239.681L1109.09 242.319ZM1095.36 262.19C1092.03 266.513 1088.61 270.616 1085.11 274.506L1081.4 271.163C1084.81 267.37 1088.14 263.365 1091.39 259.139L1095.36 262.19ZM1074.05 285.847C1070.08 289.6 1066.01 293.109 1061.84 296.385L1058.75 292.456C1062.8 289.274 1066.75 285.862 1070.62 282.211L1074.05 285.847ZM1048.89 305.651C1044.36 308.58 1039.73 311.265 1035.02 313.716L1032.71 309.279C1037.29 306.901 1041.77 304.296 1046.17 301.453L1048.89 305.651ZM1020.5 320.423C1015.55 322.434 1010.52 324.216 1005.41 325.783L1003.94 321.002C1008.92 319.478 1013.81 317.745 1018.61 315.792L1020.5 320.423ZM989.95 329.815C984.789 330.939 979.553 331.867 974.243 332.61L973.55 327.658C978.741 326.932 983.854 326.025 988.886 324.93L989.95 329.815ZM958.287 334.284C953.075 334.656 947.798 334.87 942.461 334.934L942.401 329.934C947.645 329.871 952.822 329.661 957.931 329.297L958.287 334.284ZM926.476 334.698C921.25 334.487 915.969 334.147 910.637 333.688L911.066 328.706C916.327 329.159 921.532 329.494 926.678 329.702L926.476 334.698ZM894.834 332.003C889.625 331.345 884.37 330.585 879.072 329.729L879.869 324.793C885.114 325.64 890.312 326.392 895.46 327.042L894.834 332.003ZM863.496 326.969C858.328 325.976 853.12 324.901 847.876 323.751L848.947 318.867C854.152 320.008 859.317 321.074 864.44 322.059L863.496 326.969ZM832.51 320.198C827.391 318.955 822.239 317.649 817.056 316.285L818.329 311.449C823.483 312.806 828.603 314.104 833.689 315.339L832.51 320.198ZM801.854 312.146C796.784 310.722 791.687 309.249 786.563 307.732L787.983 302.938C793.086 304.449 798.161 305.915 803.206 307.332L801.854 312.146ZM771.477 303.166C766.451 301.613 761.402 300.023 756.33 298.401L757.853 293.639C762.91 295.256 767.944 296.841 772.953 298.388L771.477 303.166ZM741.318 293.532C736.326 291.892 731.315 290.225 726.285 288.537L727.876 283.797C732.897 285.482 737.899 287.146 742.879 288.782L741.318 293.532ZM711.313 283.47C706.345 281.776 701.361 280.065 696.36 278.341L697.99 273.614C702.986 275.336 707.965 277.045 712.927 278.737L711.313 283.47ZM681.404 273.167C676.448 271.448 671.478 269.72 666.495 267.988L668.137 263.265C673.12 264.998 678.089 266.725 683.043 268.443L681.404 273.167ZM651.538 262.792C646.582 261.072 641.614 259.352 636.636 257.636L638.266 252.909C643.248 254.627 648.219 256.348 653.177 258.068L651.538 262.792ZM621.67 252.498C616.7 250.802 611.721 249.112 606.734 247.432L608.329 242.694C613.324 244.376 618.31 246.068 623.286 247.767L621.67 252.498ZM591.752 242.432C586.757 240.78 581.755 239.143 576.747 237.524L578.285 232.766C583.304 234.389 588.317 236.03 593.321 237.684L591.752 242.432ZM561.713 232.727C556.693 231.148 551.667 229.59 546.637 228.057L548.094 223.274C553.14 224.811 558.18 226.374 563.214 227.958L561.713 232.727ZM531.521 223.536C526.473 222.055 521.423 220.604 516.371 219.185L517.723 214.372C522.794 215.795 527.863 217.252 532.928 218.738L531.521 223.536ZM501.144 215.016C496.068 213.662 490.99 212.346 485.913 211.07L487.132 206.221C492.233 207.503 497.334 208.825 502.433 210.185L501.144 215.016ZM470.563 207.341C465.446 206.142 460.329 204.988 455.216 203.884L456.271 198.997C461.415 200.107 466.559 201.268 471.704 202.473L470.563 207.341ZM439.765 200.699C434.603 199.688 429.445 198.731 424.292 197.832L425.151 192.906C430.339 193.811 435.532 194.775 440.726 195.793L439.765 200.699ZM408.749 195.3C403.545 194.513 398.346 193.791 393.156 193.136L393.781 188.175C399.014 188.835 404.253 189.564 409.497 190.356L408.749 195.3ZM377.538 191.374C372.298 190.854 367.068 190.408 361.847 190.04L362.199 185.053C367.468 185.424 372.746 185.874 378.032 186.398L377.538 191.374ZM346.181 189.175C340.922 188.966 335.674 188.842 330.44 188.807L330.474 183.807C335.765 183.843 341.067 183.968 346.379 184.179L346.181 189.175ZM314.767 188.973C309.514 189.122 304.276 189.365 299.053 189.708L298.725 184.719C304.012 184.372 309.312 184.125 314.625 183.975L314.767 188.973ZM283.435 191.041C278.225 191.59 273.032 192.244 267.857 193.008L267.128 188.061C272.372 187.287 277.634 186.625 282.911 186.069L283.435 191.041ZM252.39 195.631C247.266 196.616 242.162 197.714 237.079 198.93L235.915 194.067C241.073 192.833 246.25 191.72 251.446 190.721L252.39 195.631ZM221.897 202.936C216.905 204.379 211.935 205.943 206.987 207.631L205.373 202.899C210.396 201.185 215.442 199.598 220.509 198.133L221.897 202.936ZM192.249 213.06C187.432 214.968 182.638 217.002 177.869 219.164L175.804 214.61C180.648 212.414 185.516 210.349 190.407 208.412L192.249 213.06ZM163.738 225.989C161.395 227.191 159.058 228.427 156.728 229.696L154.337 225.304C156.703 224.016 159.076 222.762 161.455 221.541L163.738 225.989ZM156.728 229.696C154.371 230.979 152.031 232.299 149.707 233.654L147.188 229.335C149.554 227.955 151.937 226.611 154.337 225.304L156.728 229.696ZM136.012 242.182C131.541 245.148 127.143 248.247 122.826 251.473L119.833 247.468C124.224 244.187 128.698 241.033 133.248 238.015L136.012 242.182ZM110.171 261.488C106.052 264.935 102.02 268.501 98.0797 272.178L94.6678 268.523C98.6733 264.784 102.774 261.159 106.962 257.653L110.171 261.488ZM86.5809 283.503C82.8534 287.376 79.2242 291.353 75.7 295.428L71.9182 292.157C75.5005 288.015 79.1895 283.973 82.9785 280.036L86.5809 283.503ZM65.4684 307.912C62.1714 312.161 58.985 316.5 55.9156 320.923L51.8079 318.072C54.9281 313.576 58.1671 309.165 61.5183 304.847L65.4684 307.912ZM47.0725 334.425C44.2477 339.003 41.5459 343.658 38.9734 348.384L34.5818 345.994C37.198 341.187 39.9454 336.454 42.8175 331.8L47.0725 334.425ZM31.6526 362.764C29.3463 367.622 27.1755 372.545 25.1466 377.527L20.516 375.641C22.5808 370.571 24.7896 365.562 27.1356 360.62L31.6526 362.764ZM19.4932 392.633C17.7556 397.719 16.1658 402.857 14.73 408.04L9.9115 406.705C11.3739 401.426 12.9927 396.195 14.7616 391.017L19.4932 392.633ZM10.8943 423.701C9.77588 428.95 8.81665 434.239 8.02258 439.56L3.07739 438.822C3.88684 433.398 4.8645 428.008 6.00403 422.659L10.8943 423.701ZM6.14661 455.565C5.69153 460.905 5.40515 466.271 5.29382 471.658L0.2948 471.555C0.408569 466.06 0.700562 460.586 1.16467 455.14L6.14661 455.565ZM5.48523 487.762C5.72363 493.102 6.13745 498.456 6.73267 503.818L1.76318 504.369C1.15576 498.897 0.733398 493.434 0.490234 487.985L5.48523 487.762ZM9.03979 519.764C9.97803 525.015 11.0951 530.268 12.3964 535.519L7.54321 536.722C6.21533 531.364 5.07532 526.003 4.11768 520.644L9.03979 519.764ZM16.7791 551.008C17.5928 553.562 18.4517 556.114 19.3562 558.664L14.6438 560.336C13.7212 557.735 12.8451 555.131 12.015 552.525L16.7791 551.008ZM19.3562 558.664C20.2621 561.218 21.1793 563.732 22.1083 566.208L17.427 567.965C16.4872 565.46 15.5596 562.917 14.6438 560.336L19.3562 558.664ZM28.0227 581.068C30.1415 586.083 32.3199 590.926 34.5629 595.604L30.0543 597.766C27.7754 593.013 25.5647 588.098 23.4169 583.013L28.0227 581.068ZM41.8545 609.817C44.4677 614.575 47.1644 619.146 49.9513 623.54L45.729 626.218C42.8835 621.731 40.1334 617.07 37.4719 612.224L41.8545 609.817ZM58.9316 636.67C62.1222 640.994 65.4241 645.129 68.8455 649.089L65.0619 652.358C61.5551 648.299 58.1733 644.063 54.9086 639.639L58.9316 636.67ZM79.7017 660.68C83.4821 664.402 87.399 667.954 91.4618 671.351L88.2546 675.187C84.0889 671.704 80.0714 668.061 76.1937 664.243L79.7017 660.68ZM104.044 681.052C108.322 684.093 112.75 686.999 117.337 689.782L114.743 694.057C110.057 691.213 105.527 688.241 101.147 685.127L104.044 681.052ZM131.219 697.59C135.853 700.006 140.636 702.324 145.576 704.555L143.518 709.112C138.497 706.844 133.629 704.485 128.908 702.024L131.219 697.59ZM160.281 710.766C165.131 712.683 170.121 714.534 175.256 716.329L173.607 721.049C168.412 719.234 163.359 717.359 158.443 715.416L160.281 710.766ZM190.466 721.353C195.455 722.912 200.572 724.43 205.821 725.914L204.461 730.725C199.171 729.23 194.01 727.699 188.975 726.125L190.466 721.353ZM221.298 730.096C223.87 730.761 226.471 731.42 229.103 732.074L227.897 736.926C225.251 736.269 222.634 735.606 220.046 734.937L221.298 730.096ZM229.103 732.074C231.523 732.675 234.24 733.276 237.223 733.874L236.239 738.776C233.201 738.167 230.408 737.55 227.897 736.926L229.103 732.074ZM253.965 736.803C259.196 737.616 264.825 738.419 270.764 739.207L270.107 744.163C264.138 743.371 258.472 742.564 253.196 741.743L253.965 736.803ZM287.632 741.314C293.113 741.962 298.759 742.597 304.517 743.218L303.98 748.189C298.208 747.566 292.545 746.929 287.046 746.28L287.632 741.314ZM321.444 744.974C327.057 745.535 332.723 746.082 338.393 746.613L337.927 751.591C332.247 751.059 326.571 750.511 320.947 749.949L321.444 744.974ZM355.346 748.155C361.062 748.66 366.736 749.148 372.32 749.616L371.902 754.599C366.312 754.13 360.63 753.641 354.905 753.135L355.346 748.155ZM389.293 751.006C395.139 751.473 400.817 751.916 406.262 752.331L405.882 757.317C400.431 756.901 394.747 756.458 388.895 755.99L389.293 751.006ZM423.254 753.599C429.459 754.052 435.171 754.458 440.259 754.812L439.912 759.8C434.819 759.445 429.101 759.039 422.891 758.586L423.254 753.599ZM457.207 755.961C459.913 756.139 462.025 756.275 463.461 756.366C464.179 756.412 464.728 756.447 465.097 756.47C465.281 756.482 465.421 756.49 465.514 756.496C465.561 756.499 465.596 756.501 465.62 756.503C465.631 756.503 465.64 756.504 465.646 756.504C465.649 756.504 465.651 756.505 465.653 756.505C465.653 756.505 465.654 756.505 465.654 756.505C465.654 756.505 465.654 756.505 465.655 756.505H465.655C465.655 756.505 465.655 756.505 465.5 759C465.345 761.495 465.345 761.495 465.345 761.495C465.345 761.495 465.345 761.495 465.345 761.495C465.345 761.495 465.345 761.495 465.345 761.495C465.344 761.495 465.344 761.495 465.343 761.495C465.341 761.495 465.339 761.495 465.336 761.495C465.33 761.494 465.321 761.494 465.309 761.493C465.286 761.492 465.25 761.489 465.203 761.486C465.109 761.48 464.969 761.472 464.783 761.46C464.413 761.437 463.862 761.402 463.143 761.356C461.704 761.264 459.588 761.128 456.879 760.95L457.207 755.961Z" fill="#EFF0F1"/>
</svg>
