<svg width="1420" height="929" viewBox="0 0 1420 929" fill="none" xmlns="http://www.w3.org/2000/svg">
<path d="M1091.77 -11.5C1091.77 -4.1362 1097.74 1.83333 1105.1 1.83333C1112.47 1.83333 1118.44 -4.1362 1118.44 -11.5C1118.44 -18.8638 1112.47 -24.8333 1105.1 -24.8333C1097.74 -24.8333 1091.77 -18.8638 1091.77 -11.5ZM826.973 218.5L825.114 220.171C825.141 220.202 825.17 220.232 825.199 220.262L826.973 218.5ZM1215.4 329L1215.98 326.568L1215.4 329ZM1304.31 706L1303.23 703.744L1304.31 706ZM262.156 655L261.241 652.673L262.156 655ZM812.71 630L813.4 627.597C813.322 627.575 813.242 627.556 813.162 627.541L812.71 630ZM7.32285 956.5L9.58966 955.446C8.47101 953.041 7.49384 950.591 6.65392 948.1L4.28497 948.899L1.91603 949.698C2.81415 952.361 3.85936 954.981 5.05603 957.554L7.32285 956.5ZM0.744683 932.972L3.22793 932.683C2.62814 927.529 2.51635 922.229 2.86694 916.805L0.372146 916.643L-2.12265 916.482C-2.49117 922.184 -2.37566 927.786 -1.73856 933.261L0.744683 932.972ZM2.66405 900.442L5.10859 900.966C6.1951 895.894 7.63477 890.74 9.40782 885.521L7.04067 884.717L4.67353 883.913C2.84344 889.3 1.35006 894.641 0.219516 899.918L2.66405 900.442ZM13.0543 869.484L15.3358 870.506C17.4832 865.713 19.8838 860.883 22.5219 856.028L20.3252 854.834L18.1285 853.641C15.434 858.6 12.9761 863.544 10.7728 868.462L13.0543 869.484ZM28.5935 840.74L30.7096 842.071C33.5358 837.579 36.5489 833.077 39.7363 828.575L37.6959 827.13L35.6556 825.686C32.4186 830.257 29.3547 834.835 26.4774 839.409L28.5935 840.74ZM47.4875 813.99L49.4569 815.53C52.7452 811.325 56.1751 807.129 59.7361 802.95L57.8333 801.329L55.9305 799.707C52.3259 803.937 48.8515 808.187 45.5182 812.45L47.4875 813.99ZM68.676 789.092L70.5158 790.785C74.1511 786.833 77.8963 782.905 81.7421 779.007L79.9625 777.251L78.1829 775.495C74.2974 779.434 70.512 783.404 66.8362 787.399L68.676 789.092ZM91.6441 765.794L93.3657 767.607C97.2768 763.892 101.274 760.213 105.348 756.574L103.683 754.71L102.018 752.845C97.9059 756.517 93.8713 760.231 89.9225 763.981L91.6441 765.794ZM116.049 743.991L117.659 745.904C121.8 742.419 126.008 738.98 130.275 735.593L128.72 733.635L127.166 731.677C122.863 735.093 118.618 738.562 114.44 742.078L116.049 743.991ZM141.677 723.64L143.176 725.641C147.521 722.386 151.914 719.188 156.35 716.053L154.907 714.011L153.464 711.97C148.991 715.131 144.559 718.357 140.178 721.64L141.677 723.64ZM168.398 704.755L169.783 706.836C174.314 703.82 178.878 700.873 183.468 698.002L182.143 695.883L180.817 693.763C176.186 696.66 171.582 699.632 167.013 702.674L168.398 704.755ZM196.136 687.411L197.399 689.569C202.111 686.81 206.84 684.136 211.58 681.553L210.384 679.357L209.187 677.162C204.402 679.771 199.628 682.47 194.873 685.254L196.136 687.411ZM224.879 671.754L226.004 673.986C230.893 671.522 235.784 669.161 240.667 666.908L239.62 664.638L238.573 662.368C233.636 664.645 228.693 667.032 223.753 669.521L224.879 671.754ZM254.607 658.057L255.568 660.365C258.074 659.321 260.576 658.308 263.071 657.327L262.156 655L261.241 652.673C258.714 653.667 256.182 654.693 253.646 655.749L254.607 658.057ZM262.156 655L263.071 657.327C265.581 656.339 268.107 655.372 270.647 654.423L269.772 652.081L268.897 649.739C266.331 650.698 263.779 651.676 261.241 652.673L262.156 655ZM285.23 646.598L286.028 648.967C291.153 647.241 296.33 645.588 301.553 644.004L300.827 641.612L300.102 639.219C294.832 640.817 289.607 642.486 284.432 644.228L285.23 646.598ZM316.558 637.084L317.216 639.496C322.446 638.069 327.716 636.708 333.02 635.409L332.425 632.981L331.831 630.553C326.485 631.861 321.173 633.234 315.9 634.672L316.558 637.084ZM348.402 629.279L348.936 631.721C354.233 630.561 359.557 629.46 364.906 628.416L364.427 625.962L363.948 623.508C358.563 624.559 353.201 625.668 347.867 626.836L348.402 629.279ZM380.54 622.997L380.966 625.461C386.325 624.533 391.702 623.66 397.094 622.838L396.717 620.366L396.341 617.895C390.917 618.722 385.506 619.6 380.114 620.534L380.54 622.997ZM412.933 618.053L413.263 620.532C418.66 619.813 424.067 619.144 429.479 618.522L429.193 616.038L428.908 613.555C423.468 614.18 418.031 614.853 412.603 615.575L412.933 618.053ZM445.486 614.306L445.729 616.794C451.155 616.263 456.58 615.777 462.001 615.334L461.797 612.843L461.594 610.351C456.147 610.796 450.695 611.284 445.242 611.818L445.486 614.306ZM478.146 611.632L478.312 614.127C483.764 613.765 489.206 613.444 494.634 613.162L494.504 610.665L494.374 608.169C488.924 608.452 483.457 608.774 477.981 609.138L478.146 611.632ZM510.85 609.931L510.945 612.429C516.42 612.221 521.875 612.05 527.304 611.915L527.242 609.416L527.18 606.917C521.729 607.052 516.252 607.223 510.755 607.433L510.85 609.931ZM543.638 609.113L543.668 611.613C549.149 611.546 554.598 611.514 560.01 611.514V609.014L560.01 606.514C554.578 606.514 549.109 606.547 543.607 606.613L543.638 609.113ZM576.357 609.111L576.328 611.61C581.84 611.675 587.307 611.771 592.722 611.896L592.78 609.397L592.837 606.897C587.404 606.772 581.918 606.676 576.387 606.611L576.357 609.111ZM609.176 609.865L609.091 612.364C614.601 612.552 620.048 612.767 625.427 613.008L625.539 610.511L625.65 608.013C620.254 607.772 614.789 607.555 609.261 607.367L609.176 609.865ZM641.863 611.326L641.726 613.822C647.25 614.127 652.69 614.456 658.039 614.805L658.202 612.311L658.365 609.816C653 609.465 647.543 609.136 642.001 608.83L641.863 611.326ZM674.585 613.464L674.397 615.957C679.961 616.377 685.408 616.816 690.728 617.27L690.941 614.779L691.154 612.288C685.818 611.833 680.354 611.392 674.773 610.971L674.585 613.464ZM707.273 616.254L707.035 618.743C712.637 619.277 718.07 619.823 723.318 620.376L723.58 617.89L723.842 615.403C718.577 614.849 713.129 614.301 707.51 613.766L707.273 616.254ZM739.855 619.685L739.568 622.168C745.241 622.823 750.641 623.476 755.747 624.119L756.06 621.638L756.372 619.158C751.249 618.513 745.831 617.858 740.141 617.201L739.855 619.685ZM772.364 623.779L772.025 626.256C778.024 627.077 783.432 627.856 788.194 628.568L788.563 626.095L788.932 623.622C784.151 622.908 778.723 622.126 772.704 621.302L772.364 623.779ZM804.693 628.623L804.285 631.09C806.892 631.521 808.889 631.864 810.232 632.099C810.904 632.216 811.412 632.306 811.751 632.367C811.921 632.398 812.048 632.421 812.133 632.436C812.175 632.444 812.207 632.45 812.228 632.453C812.238 632.455 812.246 632.457 812.251 632.458C812.253 632.458 812.255 632.458 812.256 632.459C812.257 632.459 812.257 632.459 812.258 632.459C812.258 632.459 812.258 632.459 812.258 632.459C812.258 632.459 812.258 632.459 812.71 630C813.162 627.541 813.162 627.541 813.162 627.541C813.162 627.541 813.161 627.541 813.161 627.541C813.161 627.541 813.161 627.541 813.161 627.541C813.16 627.541 813.16 627.541 813.159 627.541C813.157 627.54 813.155 627.54 813.152 627.539C813.146 627.538 813.138 627.537 813.127 627.535C813.104 627.531 813.071 627.525 813.027 627.517C812.938 627.501 812.807 627.477 812.634 627.446C812.288 627.384 811.772 627.292 811.093 627.173C809.735 626.936 807.723 626.59 805.1 626.157L804.693 628.623ZM812.71 630C812.02 632.403 812.02 632.403 812.02 632.403C812.02 632.403 812.02 632.403 812.02 632.403C812.02 632.403 812.02 632.403 812.02 632.403C812.02 632.403 812.021 632.403 812.022 632.403C812.023 632.404 812.025 632.404 812.027 632.405C812.033 632.407 812.04 632.409 812.05 632.412C812.07 632.417 812.1 632.426 812.14 632.437C812.22 632.46 812.339 632.494 812.496 632.539C812.81 632.629 813.278 632.762 813.895 632.937C815.127 633.287 816.953 633.804 819.325 634.469L820 632.062L820.675 629.655C818.308 628.991 816.488 628.476 815.26 628.128C814.647 627.953 814.181 627.82 813.869 627.731C813.713 627.687 813.595 627.653 813.517 627.631C813.478 627.62 813.448 627.611 813.429 627.605C813.419 627.603 813.412 627.601 813.407 627.599C813.405 627.599 813.403 627.598 813.402 627.598C813.401 627.597 813.401 627.597 813.4 627.597C813.4 627.597 813.4 627.597 813.4 627.597H813.4C813.4 627.597 813.4 627.597 812.71 630ZM835.145 636.259L834.484 638.67C839.008 639.911 844.145 641.308 849.828 642.839L850.478 640.425L851.128 638.011C845.453 636.482 840.324 635.087 835.806 633.848L835.145 636.259ZM865.556 644.451L864.916 646.867C869.714 648.138 874.777 649.469 880.079 650.85L880.709 648.431L881.34 646.012C876.044 644.632 870.988 643.303 866.196 642.034L865.556 644.451ZM895.912 652.359L895.292 654.781C900.221 656.044 905.309 657.338 910.541 658.656L911.152 656.232L911.763 653.808C906.538 652.491 901.456 651.199 896.533 649.938L895.912 652.359ZM926.386 660.038L925.785 662.465C930.748 663.694 935.815 664.938 940.973 666.193L941.564 663.764L942.155 661.334C937.003 660.081 931.943 658.839 926.987 657.611L926.386 660.038ZM956.795 667.433L956.215 669.865C961.244 671.065 966.345 672.271 971.506 673.477L972.076 671.043L972.645 668.609C967.491 667.404 962.398 666.2 957.375 665.001L956.795 667.433ZM987.395 674.587L986.837 677.024C991.895 678.181 996.999 679.336 1002.14 680.485L1002.69 678.045L1003.23 675.605C998.098 674.458 993.002 673.305 987.953 672.15L987.395 674.587ZM1017.99 681.423L1017.46 683.866C1022.55 684.976 1027.68 686.078 1032.82 687.168L1033.34 684.722L1033.85 682.276C1028.72 681.189 1023.61 680.089 1018.52 678.981L1017.99 681.423ZM1048.7 687.93L1048.2 690.379C1053.32 691.432 1058.45 692.47 1063.59 693.489L1064.07 691.037L1064.56 688.585C1059.44 687.568 1054.32 686.532 1049.21 685.481L1048.7 687.93ZM1079.48 694.041L1079.01 696.496C1084.17 697.482 1089.31 698.446 1094.45 699.385L1094.9 696.926L1095.35 694.467C1090.23 693.53 1085.09 692.569 1079.95 691.585L1079.48 694.041ZM1110.32 699.68L1109.89 702.143C1115.09 703.049 1120.27 703.925 1125.41 704.768L1125.82 702.301L1126.22 699.834C1121.09 698.993 1115.93 698.12 1110.75 697.217L1110.32 699.68ZM1141.33 704.76L1140.95 707.231C1146.18 708.03 1151.36 708.79 1156.48 709.508L1156.83 707.033L1157.18 704.557C1152.07 703.842 1146.91 703.084 1141.7 702.288L1141.33 704.76ZM1172.32 709.093L1172.01 711.574C1177.31 712.24 1182.54 712.854 1187.69 713.412L1187.95 710.927L1188.22 708.441C1183.11 707.887 1177.91 707.276 1172.63 706.613L1172.32 709.093ZM1203.6 712.47L1203.38 714.96C1208.74 715.432 1213.99 715.833 1219.11 716.157L1219.26 713.662L1219.42 711.167C1214.35 710.846 1209.15 710.448 1203.82 709.979L1203.6 712.47ZM1234.94 714.418L1234.86 716.917C1240.32 717.091 1245.59 717.158 1250.66 717.111L1250.63 714.611L1250.61 712.111C1245.62 712.158 1240.42 712.092 1235.02 711.919L1234.94 714.418ZM1266.31 714.036L1266.48 716.53C1272.09 716.151 1277.36 715.585 1282.25 714.814L1281.86 712.344L1281.47 709.875C1276.75 710.619 1271.63 711.17 1266.14 711.541L1266.31 714.036ZM1297.11 708.835L1297.88 711.213C1300.57 710.341 1303.08 709.358 1305.39 708.256L1304.31 706L1303.23 703.744C1301.15 704.738 1298.85 705.642 1296.34 706.457L1297.11 708.835ZM1304.31 706L1305.39 708.256C1307.94 707.038 1310.44 705.789 1312.9 704.509L1311.75 702.291L1310.6 700.073C1308.19 701.326 1305.73 702.551 1303.23 703.744L1304.31 706ZM1326.07 694.211L1327.38 696.343C1332.19 693.403 1336.81 690.336 1341.24 687.151L1339.78 685.121L1338.32 683.091C1333.99 686.202 1329.47 689.201 1324.77 692.078L1326.07 694.211ZM1352.75 675.008L1354.36 676.917C1358.67 673.279 1362.75 669.518 1366.63 665.645L1364.86 663.877L1363.09 662.109C1359.32 665.882 1355.33 669.549 1351.14 673.099L1352.75 675.008ZM1375.98 651.756L1377.9 653.363C1381.51 649.056 1384.89 644.639 1388.03 640.122L1385.98 638.695L1383.93 637.267C1380.87 641.658 1377.59 645.956 1374.07 650.148L1375.98 651.756ZM1394.74 624.771L1396.91 626.001C1399.67 621.121 1402.17 616.149 1404.42 611.101L1402.13 610.085L1399.85 609.068C1397.67 613.971 1395.24 618.8 1392.56 623.541L1394.74 624.771ZM1408.09 594.755L1410.46 595.545C1412.23 590.247 1413.73 584.885 1414.96 579.473L1412.52 578.917L1410.09 578.361C1408.89 583.614 1407.43 588.82 1405.72 593.964L1408.09 594.755ZM1415.4 562.718L1417.88 563.035C1418.59 557.516 1419.02 551.965 1419.19 546.395L1416.7 546.319L1414.2 546.242C1414.03 551.651 1413.61 557.043 1412.92 562.401L1415.4 562.718ZM1416.42 529.873L1418.91 529.712C1418.56 524.183 1417.94 518.651 1417.07 513.133L1414.6 513.524L1412.13 513.916C1412.98 519.283 1413.58 524.66 1413.92 530.033L1416.42 529.873ZM1411.28 497.411L1413.7 496.796C1412.34 491.443 1410.74 486.116 1408.89 480.83L1406.53 481.657L1404.17 482.483C1405.97 487.631 1407.53 492.816 1408.85 498.025L1411.28 497.411ZM1400.42 466.374L1402.7 465.348C1400.44 460.326 1397.95 455.355 1395.23 450.448L1393.04 451.66L1390.85 452.871C1393.51 457.658 1395.94 462.505 1398.14 467.4L1400.42 466.374ZM1384.49 437.596L1386.57 436.213C1383.53 431.639 1380.28 427.135 1376.82 422.711L1374.85 424.251L1372.88 425.791C1376.26 430.114 1379.44 434.514 1382.4 438.98L1384.49 437.596ZM1364.24 411.676L1366.09 409.995C1362.4 405.943 1358.53 401.975 1354.47 398.1L1352.74 399.909L1351.02 401.718C1354.99 405.512 1358.78 409.395 1362.39 413.358L1364.24 411.676ZM1340.46 388.972L1342.06 387.05C1337.86 383.558 1333.49 380.157 1328.96 376.856L1327.48 378.878L1326.01 380.899C1330.46 384.137 1334.75 387.472 1338.86 390.894L1340.46 388.972ZM1313.9 369.627L1315.24 367.518C1310.64 364.589 1305.9 361.756 1301 359.026L1299.78 361.21L1298.56 363.394C1303.38 366.076 1308.04 368.859 1312.56 371.735L1313.9 369.627ZM1285.19 353.612L1286.29 351.363C1281.38 348.978 1276.34 346.691 1271.17 344.508L1270.2 346.811L1269.22 349.114C1274.32 351.264 1279.27 353.514 1284.1 355.86L1285.19 353.612ZM1254.84 340.783L1255.69 338.434C1250.58 336.573 1245.34 334.809 1239.99 333.146L1239.25 335.533L1238.51 337.921C1243.79 339.56 1248.94 341.299 1253.98 343.133L1254.84 340.783ZM1223.48 331.023L1224.12 328.604C1221.43 327.901 1218.72 327.222 1215.98 326.568L1215.4 329L1214.82 331.432C1217.53 332.077 1220.2 332.747 1222.85 333.441L1223.48 331.023ZM1215.4 329L1215.98 326.568C1213.4 325.952 1210.84 325.342 1208.29 324.737L1207.71 327.17L1207.13 329.602C1209.68 330.207 1212.24 330.816 1214.82 331.432L1215.4 329ZM1192.55 323.596L1193.12 321.162C1187.96 319.955 1182.87 318.771 1177.84 317.608L1177.28 320.044L1176.71 322.48C1181.74 323.641 1186.83 324.825 1191.98 326.031L1192.55 323.596ZM1162 316.534L1162.56 314.097C1157.41 312.921 1152.32 311.767 1147.31 310.636L1146.76 313.074L1146.21 315.513C1151.22 316.644 1156.3 317.796 1161.45 318.972L1162 316.534ZM1131.54 309.658L1132.08 307.218C1126.92 306.067 1121.83 304.938 1116.82 303.83L1116.28 306.272L1115.74 308.713C1120.75 309.819 1125.83 310.947 1130.99 312.098L1131.54 309.658ZM1100.97 302.905L1101.5 300.463C1096.32 299.328 1091.22 298.216 1086.2 297.126L1085.67 299.569L1085.14 302.012C1090.15 303.102 1095.25 304.213 1100.43 305.347L1100.97 302.905ZM1070.37 296.258L1070.9 293.814C1065.71 292.693 1060.62 291.595 1055.61 290.518L1055.08 292.962L1054.56 295.406C1059.56 296.483 1064.66 297.581 1069.85 298.701L1070.37 296.258ZM1039.79 289.672L1040.32 287.228C1035.12 286.109 1030.02 285.012 1025.03 283.933L1024.5 286.377L1023.98 288.821C1028.97 289.899 1034.07 290.997 1039.27 292.116L1039.79 289.672ZM1009.22 283.063L1009.75 280.621C1004.54 279.486 999.453 278.372 994.481 277.273L993.942 279.714L993.403 282.155C998.38 283.255 1003.47 284.371 1008.69 285.506L1009.22 283.063ZM978.69 276.31L979.241 273.871C974.039 272.697 968.976 271.538 964.05 270.39L963.482 272.825L962.915 275.26C967.855 276.41 972.929 277.572 978.14 278.749L978.69 276.31ZM948.235 269.2L948.826 266.771C943.605 265.502 938.552 264.241 933.665 262.984L933.042 265.405L932.419 267.826C937.331 269.09 942.405 270.356 947.645 271.629L948.235 269.2ZM917.987 261.391L918.655 258.982C913.44 257.538 908.437 256.089 903.64 254.626L902.911 257.017L902.182 259.409C907.025 260.885 912.069 262.346 917.32 263.801L917.987 261.391ZM888.046 252.21L888.86 249.846C883.749 248.086 878.913 246.295 874.341 244.459L873.409 246.778L872.477 249.098C877.137 250.97 882.052 252.79 887.232 254.574L888.046 252.21ZM859.102 240.462L860.198 238.215C855.33 235.841 850.839 233.378 846.703 230.803L845.381 232.925L844.06 235.047C848.36 237.724 853.004 240.269 858.006 242.709L859.102 240.462ZM832.712 223.782L834.324 221.871C832.354 220.209 830.496 218.5 828.747 216.738L826.973 218.5L825.199 220.262C827.056 222.132 829.023 223.94 831.1 225.693L832.712 223.782ZM826.973 218.5L828.832 216.829C827.059 214.856 825.314 212.857 823.609 210.836L821.698 212.447L819.787 214.059C821.529 216.125 823.308 218.162 825.114 220.171L826.973 218.5ZM811.833 199.781L813.871 198.333C810.767 193.968 807.93 189.522 805.451 185.005L803.259 186.208L801.068 187.411C803.654 192.123 806.598 196.733 809.796 201.23L811.833 199.781ZM796.639 171.588L798.997 170.756C797.244 165.791 796.009 160.77 795.397 155.703L792.915 156.003L790.433 156.303C791.094 161.775 792.422 167.153 794.282 172.421L796.639 171.588ZM793.057 140.007L795.532 140.361C796.229 135.488 797.579 130.559 799.687 125.581L797.385 124.606L795.083 123.631C792.809 129 791.341 134.346 790.582 139.653L793.057 140.007ZM805.207 110.653L807.253 112.09C810.049 108.107 813.377 104.094 817.292 100.057L815.497 98.3166L813.702 96.5761C809.62 100.785 806.121 105 803.161 109.217L805.207 110.653ZM827.305 87.5295L828.888 89.4647C832.751 86.3052 836.993 83.1374 841.64 79.9648L840.231 77.9002L838.821 75.8355C834.065 79.0826 829.706 82.3363 825.722 85.5944L827.305 87.5295ZM853.85 69.2756L855.12 71.4292C859.478 68.8596 864.112 66.2898 869.037 63.7215L867.881 61.5049L866.725 59.2882C861.729 61.8939 857.018 64.5056 852.58 67.1221L853.85 69.2756ZM882.279 54.39L883.341 56.6534C887.957 54.4881 892.788 52.3253 897.84 50.1661L896.857 47.8673L895.874 45.5685C890.772 47.7492 885.889 49.9355 881.218 52.1266L882.279 54.39ZM911.639 41.8099L912.554 44.1364C917.357 42.2474 922.335 40.362 927.495 38.4809L926.638 36.1321L925.782 33.7834C920.585 35.6782 915.567 37.5784 910.724 39.4834L911.639 41.8099ZM941.887 30.7646L942.692 33.1315C947.6 31.4627 952.655 29.7978 957.86 28.1373L957.1 25.7555L956.341 23.3738C951.106 25.0435 946.021 26.7183 941.082 28.3977L941.887 30.7646ZM972.352 21.0335L973.071 23.4276C978.12 21.9096 983.299 20.3957 988.611 18.8863L987.927 16.4815L987.244 14.0767C981.909 15.5928 976.706 17.1138 971.632 18.6393L972.352 21.0335ZM1003.25 12.2393L1003.9 14.653C1008.97 13.2855 1014.15 11.922 1019.45 10.5627L1018.82 8.14123L1018.2 5.71974C1012.89 7.08391 1007.69 8.45261 1002.6 9.8256L1003.25 12.2393ZM1034.39 4.2379L1034.99 6.66613C1040.07 5.42038 1045.26 4.17849 1050.55 2.94066L1049.98 0.506518L1049.41 -1.92762C1044.1 -0.686047 1038.9 0.559779 1033.8 1.80966L1034.39 4.2379ZM1065.67 -3.09112L1066.22 -0.651741C1071.34 -1.79906 1076.54 -2.94266 1081.83 -4.08237L1081.31 -6.52636L1080.78 -8.97035C1075.47 -7.82769 1070.26 -6.68102 1065.13 -5.53049L1065.67 -3.09112ZM1097.04 -9.84791L1097.55 -7.39979C1100.21 -7.95081 1102.89 -8.50086 1105.6 -9.04994L1105.1 -11.5L1104.61 -13.9501C1101.89 -13.3997 1099.2 -12.8484 1096.53 -12.296L1097.04 -9.84791Z" fill="#EFF0F1"/>
</svg>
