<svg width="1161" height="526" viewBox="0 0 1161 526" fill="none" xmlns="http://www.w3.org/2000/svg">
<path d="M944 41.5L943.785 43.9907L944 41.5ZM1145 395.5L1142.63 394.714L1145 395.5ZM0.282156 -18.6837C2.17051 -16.8977 4.10371 -15.1412 6.08052 -13.4137L9.37064 -17.1787C7.44217 -18.8639 5.55754 -20.5764 3.71784 -22.3163L0.282156 -18.6837ZM18.2702 -3.53267C22.3896 -0.430094 26.6613 2.56858 31.0765 5.46639L33.82 1.28629C29.4908 -1.55508 25.3076 -4.49188 21.2782 -7.52663L18.2702 -3.53267ZM44.4178 13.6724C48.8769 16.2445 53.4587 18.7282 58.1557 21.1261L60.4292 16.6729C55.8046 14.3119 51.2979 11.8688 46.916 9.34127L44.4178 13.6724ZM72.2179 27.8985C76.9031 30.0274 81.6871 32.0807 86.5634 34.0608L88.4445 29.4281C83.6284 27.4725 78.907 25.4459 74.2862 23.3464L72.2179 27.8985ZM101.137 39.665C105.97 41.4242 110.882 43.1184 115.867 44.7496L117.422 39.9975C112.486 38.3827 107.627 36.7063 102.848 34.9666L101.137 39.665ZM130.738 49.367C135.675 50.8208 140.675 52.2179 145.735 53.5599L147.017 48.727C141.999 47.3961 137.042 46.0112 132.151 44.5706L130.738 49.367ZM160.833 57.3625C165.845 58.5597 170.907 59.7068 176.016 60.8052L177.067 55.917C171.994 54.8262 166.968 53.6875 161.995 52.4994L160.833 57.3625ZM191.266 63.9154C196.33 64.8936 201.433 65.8271 206.573 66.7172L207.426 61.7906C202.317 60.9058 197.245 59.9781 192.215 59.0062L191.266 63.9154ZM221.924 69.2325C227.023 70.0214 232.152 70.77 237.308 71.4798L237.989 66.5265C232.86 65.8204 227.759 65.0758 222.689 64.2913L221.924 69.2325ZM252.722 73.4775C257.848 74.1016 262.997 74.6892 268.164 75.2415L268.696 70.2698C263.552 69.72 258.427 69.1352 253.327 68.5142L252.722 73.4775ZM283.628 76.7855C288.775 77.2639 293.937 77.7089 299.111 78.1219L299.508 73.1378C294.356 72.7265 289.216 72.2832 284.091 71.8069L283.628 76.7855ZM314.607 79.262C319.769 79.6101 324.94 79.9277 330.115 80.2159L330.393 75.2236C325.237 74.9365 320.086 74.6201 314.943 74.2733L314.607 79.262ZM345.632 80.9927C350.806 81.2231 355.981 81.4253 361.155 81.6006L361.324 76.6035C356.168 76.4288 351.01 76.2272 345.854 75.9976L345.632 80.9927ZM376.682 82.0472C381.866 82.1701 387.044 82.267 392.213 82.3391L392.282 77.3396C387.129 77.2677 381.968 77.1711 376.801 77.0486L376.682 82.0472ZM407.744 82.4824C410.333 82.4942 412.918 82.5 415.5 82.5V77.5C412.926 77.5 410.348 77.4942 407.767 77.4824L407.744 82.4824ZM415.5 82.5C418.149 82.5 420.782 82.4911 423.398 82.4736L423.365 77.4737C420.759 77.4912 418.138 77.5 415.5 77.5V82.5ZM439.024 82.265C444.292 82.1594 449.494 82.0194 454.635 81.8471L454.467 76.8499C449.349 77.0214 444.169 77.1609 438.924 77.266L439.024 82.265ZM470.295 81.2165C475.574 80.9683 480.788 80.687 485.944 80.3753L485.642 75.3844C480.509 75.6948 475.316 75.9749 470.061 76.222L470.295 81.2165ZM501.567 79.3271C506.826 78.9397 512.025 78.522 517.168 78.0772L516.737 73.0958C511.614 73.5389 506.437 73.9548 501.2 74.3406L501.567 79.3271ZM532.747 76.6332C537.986 76.1158 543.17 75.5721 548.305 75.0057L547.756 70.0359C542.64 70.6003 537.475 71.1419 532.255 71.6575L532.747 76.6332ZM563.842 73.208C569.059 72.5771 574.229 71.9255 579.358 71.2569L578.711 66.2989C573.597 66.9656 568.442 67.6153 563.241 68.2442L563.842 73.208ZM594.854 69.1723C600.048 68.4532 605.205 67.7201 610.331 66.9772L609.614 62.0289C604.497 62.7705 599.351 63.5021 594.168 64.2196L594.854 69.1723ZM625.792 64.6975C630.965 63.9235 636.112 63.1434 641.24 62.3618L640.486 57.4189C635.361 58.2001 630.219 58.9794 625.052 59.7526L625.792 64.6975ZM656.678 60.0004C661.833 59.2111 666.975 58.4246 672.112 57.6454L671.362 52.7019C666.221 53.4818 661.076 54.2687 655.922 55.058L656.678 60.0004ZM687.546 55.3293C692.688 54.568 697.832 53.8184 702.986 53.085L702.281 48.1348C697.117 48.8698 691.964 49.6208 686.814 50.3833L687.546 55.3293ZM718.435 50.9441C723.57 50.2534 728.722 49.5829 733.897 48.9372L733.278 43.9757C728.086 44.6236 722.918 45.2961 717.768 45.9888L718.435 50.9441ZM749.375 47.0923C754.509 46.5105 759.672 45.9566 764.87 45.4348L764.371 40.4598C759.15 40.9838 753.966 41.54 748.812 42.1241L749.375 47.0923ZM780.383 43.9867C785.517 43.5444 790.692 43.1364 795.912 42.7664L795.559 37.7789C790.312 38.1508 785.112 38.5608 779.954 39.0051L780.383 43.9867ZM811.456 41.7887C816.591 41.5072 821.774 41.2646 827.012 41.0644L826.821 36.068C821.555 36.2693 816.344 36.5132 811.182 36.7962L811.456 41.7887ZM842.578 40.6009C847.713 40.4916 852.903 40.4245 858.153 40.4025L858.132 35.4025C852.854 35.4246 847.635 35.4922 842.472 35.6021L842.578 40.6009ZM873.736 40.4704C878.873 40.5366 884.069 40.6468 889.328 40.8036L889.477 35.8059C884.19 35.6482 878.965 35.5373 873.801 35.4708L873.736 40.4704ZM904.913 41.3988C910.024 41.6364 915.195 41.9184 920.431 42.2469L920.744 37.2567C915.481 36.9265 910.283 36.6431 905.146 36.4042L904.913 41.3988ZM935.946 43.3439C938.543 43.548 941.156 43.7635 943.785 43.9907L944.215 39.0093C941.573 38.781 938.947 38.5644 936.337 38.3593L935.946 43.3439ZM943.785 43.9907C946.525 44.2276 949.244 44.5173 951.94 44.8589L952.568 39.8985C949.806 39.5486 947.022 39.2518 944.215 39.0093L943.785 43.9907ZM968.022 47.557C973.388 48.6822 978.658 50.0172 983.828 51.5515L985.25 46.7582C979.95 45.1852 974.548 43.8168 969.048 42.6634L968.022 47.557ZM999.254 56.8263C1004.35 58.8038 1009.33 60.9802 1014.21 63.3447L1016.39 58.8456C1011.39 56.4229 1006.28 54.1923 1001.06 52.1653L999.254 56.8263ZM1028.6 71.0438C1033.3 73.8007 1037.88 76.738 1042.35 79.8445L1045.2 75.7394C1040.63 72.561 1035.94 69.5545 1031.13 66.7316L1028.6 71.0438ZM1055.4 89.6614C1059.62 93.0888 1063.73 96.6737 1067.71 100.405L1071.13 96.7557C1067.06 92.9452 1062.87 89.2823 1058.55 85.7788L1055.4 89.6614ZM1079.26 111.985C1082.97 115.964 1086.55 120.076 1090.01 124.31L1093.88 121.147C1090.36 116.83 1086.7 112.636 1082.92 108.576L1079.26 111.985ZM1099.96 137.297C1103.14 141.718 1106.19 146.246 1109.11 150.873L1113.33 148.204C1110.36 143.495 1107.26 138.883 1104.02 134.38L1099.96 137.297ZM1117.44 164.969C1120.08 169.737 1122.59 174.59 1124.97 179.519L1129.47 177.347C1127.05 172.335 1124.5 167.398 1121.82 162.548L1117.44 164.969ZM1131.68 194.467C1133.78 199.503 1135.75 204.603 1137.58 209.757L1142.29 208.082C1140.43 202.845 1138.43 197.662 1136.3 192.543L1131.68 194.467ZM1142.66 225.339C1144.21 230.576 1145.63 235.856 1146.91 241.167L1151.77 239.998C1150.47 234.601 1149.03 229.237 1147.45 223.916L1142.66 225.339ZM1150.32 257.198C1151.32 262.575 1152.17 267.974 1152.88 273.385L1157.84 272.735C1157.12 267.236 1156.25 261.749 1155.24 256.286L1150.32 257.198ZM1154.58 289.684C1154.99 295.141 1155.26 300.599 1155.38 306.047L1160.38 305.941C1160.26 300.399 1159.99 294.85 1159.56 289.302L1154.58 289.684ZM1155.27 322.424C1155.07 327.893 1154.72 333.341 1154.21 338.759L1159.19 339.229C1159.71 333.712 1160.06 328.166 1160.26 322.601L1155.27 322.424ZM1152.18 355.001C1151.33 360.407 1150.32 365.771 1149.14 371.08L1154.02 372.166C1155.22 366.751 1156.26 361.283 1157.12 355.774L1152.18 355.001ZM1145.06 386.917C1144.29 389.533 1143.48 392.132 1142.63 394.714L1147.37 396.286C1148.25 393.65 1149.08 390.996 1149.86 388.326L1145.06 386.917ZM1142.63 394.714C1141.79 397.251 1140.87 399.697 1139.89 402.054L1144.51 403.977C1145.54 401.502 1146.49 398.94 1147.37 396.286L1142.63 394.714ZM1132.8 415.825C1129.99 420.306 1126.88 424.399 1123.5 428.149L1127.21 431.499C1130.78 427.537 1134.07 423.211 1137.04 418.478L1132.8 415.825ZM1112.17 438.727C1108.11 441.929 1103.81 444.812 1099.28 447.423L1101.78 451.753C1106.5 449.033 1111.01 446.016 1115.27 442.65L1112.17 438.727ZM1085.29 454.398C1080.54 456.443 1075.63 458.273 1070.59 459.927L1072.15 464.677C1077.31 462.983 1082.36 461.102 1087.27 458.99L1085.29 454.398ZM1055.46 464.327C1050.39 465.635 1045.24 466.815 1040.05 467.906L1041.07 472.799C1046.32 471.696 1051.55 470.499 1056.71 469.169L1055.46 464.327ZM1024.47 470.934C1019.24 471.886 1014 472.786 1008.8 473.674L1009.64 478.603C1014.85 477.714 1020.1 476.81 1025.37 475.853L1024.47 470.934ZM993.096 476.383C987.76 477.33 982.499 478.307 977.363 479.36L978.367 484.258C983.444 483.217 988.657 482.248 993.969 481.306L993.096 476.383ZM961.698 482.966C956.332 484.367 951.161 485.924 946.25 487.701L947.951 492.402C952.688 490.689 957.708 489.176 962.961 487.804L961.698 482.966ZM931.354 494.293C926.389 496.993 921.846 500.093 917.84 503.7L921.185 507.416C924.854 504.113 929.062 501.231 933.742 498.686L931.354 494.293ZM907.301 516.56C905.92 518.924 904.706 521.431 903.67 524.093L908.33 525.907C909.272 523.487 910.372 521.216 911.618 519.081L907.301 516.56Z" fill="#EFF0F1"/>
</svg>
