<svg width="267" height="296" viewBox="0 0 267 296" fill="none" xmlns="http://www.w3.org/2000/svg">
<g opacity="0.8">
<path d="M58.7853 145.757C59.7036 147.42 72.7784 142.085 73.583 142.01C73.5659 141.973 73.5715 141.934 73.6074 141.892C74.2776 141.436 75.0244 141.263 75.8476 141.375C75.9433 141.023 75.824 140.722 75.5703 140.445C75.2559 140.483 57.6284 143.671 58.7853 145.757Z" fill="#EFF0F1"/>
<path d="M58.0657 163.291C57.8956 163.849 57.7814 164.4 57.707 164.935C57.9371 164.857 58.1664 164.779 58.3958 164.7C58.3916 164.391 58.3865 164.082 58.3815 163.772C58.2759 163.612 58.1707 163.451 58.0657 163.291Z" fill="#EFF0F1"/>
<path d="M24.4371 221.001C23.8068 220.982 23.1772 221.006 22.5483 221.075C23.2171 221.22 23.7868 221.15 24.4371 221.001Z" fill="#EFF0F1"/>
<path d="M235.374 114.006C235.709 113.69 236.099 113.56 236.545 113.614C233.297 108.733 228.128 104.488 223.551 101.064C222.952 101.184 222.348 101.274 221.739 101.335C221.451 101.38 221.181 101.336 220.928 101.204C221.826 101.84 240.989 120.491 240.68 120.757C241.288 120.238 238.906 116.884 238.69 116.578C238.085 116.463 235.865 113.473 235.374 114.006Z" fill="#EFF0F1"/>
<path d="M259.197 171.196C256.753 172.098 266.187 196.321 266.678 197.981C267.081 197.828 267.491 197.702 267.909 197.604C267.593 196.34 260.386 170.756 259.197 171.196Z" fill="#EFF0F1"/>
<path d="M223.917 226.408C224.853 226.51 225.791 226.576 226.731 226.606C226.214 226.498 225.469 226.668 225.156 226.249C224.738 225.691 224.25 226.051 223.917 226.408Z" fill="#EFF0F1"/>
<path d="M126.513 121.303C126.581 121.286 126.649 121.267 126.715 121.243C126.647 121.264 126.58 121.284 126.513 121.303Z" fill="#EFF0F1"/>
<path d="M98.3794 74.9899C98.3786 74.9891 98.378 74.9886 98.3772 74.9878C98.3481 74.9866 98.3189 74.9854 98.2919 74.9841C98.3207 74.9862 98.3465 74.9878 98.3794 74.9899Z" fill="#EFF0F1"/>
<path d="M294.495 221.564C296.233 217.735 288.721 205.946 287.378 202.601C287.022 202.857 285.027 203.392 284.835 202.463C284.739 201.993 287.081 202.135 287.198 202.153C285.948 199.05 284.651 195.944 283.661 192.735C283.386 192.657 283.241 192.517 283.535 192.328C281.008 184.103 276.812 176.393 273.479 168.497C273.087 168.54 272.694 168.553 272.3 168.535C272.489 168.321 272.678 168.107 272.867 167.893C272.98 167.915 273.112 167.927 273.244 167.94C270.095 160.48 267.951 152.587 264.559 145.235C261.438 138.473 257.655 132.037 254.541 125.242C253.768 125.389 253.042 125.286 252.363 124.933C252.854 124.448 253.463 124.296 254.19 124.476C253.801 123.564 253.376 122.674 252.914 121.802C252.872 121.769 252.832 121.736 252.783 121.696C251.875 121.558 251.506 120.984 250.832 120.374C250.294 120.236 250.403 119.99 250.504 119.744C250.943 119.753 251.385 119.76 251.778 119.859C246.839 111.918 240.937 104.593 234.354 98.0981C231.906 95.6832 229.31 93.4592 226.589 91.3931C226.241 92.5981 225.225 90.5649 225.183 90.3585C211.998 81.0168 190.19 80.5767 178.209 92.8275C178.362 85.1576 177.673 77.6287 177.714 69.9647C174.069 69.4929 169.625 67.7568 166.085 68.141C159.253 68.8815 162.89 75.8227 159.72 79.6686C159.902 79.7469 160.075 79.8404 160.244 79.9407C160.261 79.9483 160.275 79.9564 160.292 79.9636C160.864 79.9733 161.37 79.8878 161.768 79.6424C162.337 79.5781 162.861 79.7092 163.341 80.0355C162.75 80.6448 162.014 80.842 161.133 80.6266C160.861 80.3571 160.563 80.1311 160.244 79.9407C160.049 79.854 159.872 79.7634 159.72 79.6686C155.362 84.9528 155.478 70.321 155.831 68.5379C151.573 68.7207 142.905 67.0273 139.814 70.0172C137.312 72.4363 140.234 78.9328 135.838 79.9238L135.839 79.9314C135.701 80.5504 134.79 80.4205 134.573 79.9538C134.24 79.9221 133.917 79.8493 133.601 79.7355C133.715 77.1125 133.517 74.5127 133.207 71.9124C132.084 71.1931 116.721 65.6318 117.448 69.8754C117.671 71.2875 126.599 74.0853 128.074 75.0831C128.114 77.9253 127.718 80.7544 127.593 83.592C134.61 87.2488 145.741 86.5113 144.329 74.7183C146.206 74.618 148.083 74.5165 149.959 74.4145C150.228 79.1901 153.531 87.4896 159.526 85.4703C159.574 85.1847 159.766 85.0074 160.314 85.1936C161.994 84.4785 163.383 82.951 164.23 81.3147C165.136 79.5675 164.576 73.8525 165.656 72.9352C167.083 71.7224 172.062 73.4827 173.924 73.6059C173.991 77.5851 174.91 81.4454 175.026 85.4001C175.385 85.5465 175.674 85.9603 175.041 86.262C175.076 93.158 174.408 99.9634 174.327 106.85C174.234 114.677 174.772 122.862 173.438 130.587C173.661 130.445 173.885 130.302 174.109 130.16H174.109C174.118 130.164 174.127 130.168 174.135 130.174C174.861 129.945 177.005 129.111 177.746 129.598C178.637 122.513 177.71 114.951 177.642 107.81C177.149 108.079 176.616 108.315 175.89 108.397C175.791 107.801 176.435 107.304 176.582 106.741C176.976 106.81 177.319 106.923 177.635 107.058C177.611 104.524 177.474 101.965 177.709 99.4374C181.875 98.7676 186.27 98.4811 190.45 99.0287C190.764 99.0693 205.779 103.539 205.719 103.662C208.176 98.6169 180.869 97.1596 177.868 97.8709C177.99 96.7724 178.089 95.6719 178.163 94.5683C178.959 94.5404 179.747 94.4451 180.526 94.2822C181.179 90.9174 184.758 90.2552 182.781 93.7931C196.423 90.5235 209.041 92.7848 220.559 100.942C219.721 100.047 219.825 99.4636 220.798 99.1518C211.519 93.0805 202.009 90.8337 191.125 91.2695C220.804 82.227 242.418 111.119 255.024 135.065L255.052 134.994C255.049 135.027 255.042 135.058 255.037 135.09C258.177 141.047 261.593 146.651 264.188 152.914C264.535 152.542 265.085 152.911 265.4 153.052C265.135 153.148 264.87 153.244 264.604 153.339C264.502 153.327 264.416 153.31 264.343 153.289C266.641 158.832 268.342 164.633 270.559 170.226C270.559 170.159 270.56 170.091 270.561 170.023C272.212 170.208 273.085 169.648 272.211 171.737C273.023 171.879 274.021 172.497 273.445 173.412C272.901 173.294 272.98 172.992 272.84 172.755C272.42 172.43 271.945 172.307 271.413 172.386C274.763 180.839 277.965 189.153 280.867 197.77C283.438 205.401 286.72 214.908 292.241 220.865C291.647 220.787 290.974 220.735 290.234 220.693C287.863 220.529 285.559 220.708 283.191 220.744C282.626 218.011 275.718 196.768 274.764 197.44C272.929 198.727 278.051 208.428 278.336 209.204C279.667 212.822 279.971 217.358 281.723 220.733C279.864 220.71 277.671 222.919 275.942 222.25C275.649 222.136 276.693 221.179 276.441 220.717C275.589 220.714 274.74 220.664 273.894 220.566C272.892 213.093 270.015 206.025 268.203 198.78C267.761 198.822 267.324 198.798 266.893 198.707C269.016 205.888 270.481 213.218 272.448 220.438C265.498 219.992 258.447 222.334 251.458 222.25C247.402 222.202 243.378 221.737 239.301 221.878C240.503 214.442 236.347 204.297 234.648 197.208C232.528 188.36 230.144 179.4 226.966 170.88C226.934 170.877 225.564 170.86 225.817 170.422C225.945 170.042 226.218 169.886 226.635 169.955C226.316 169.004 224.35 161.462 223.408 161.822C221.549 162.523 226.409 174.832 226.829 176.101C226.968 176.147 226.988 176.245 226.934 176.418C229.205 183.327 231.418 190.219 233.489 197.18C233.989 197.094 234.707 197.593 233.612 197.64C234.187 199.95 234.543 202.287 235.08 204.602C235.2 204.646 235.191 204.718 235.126 204.798C236.307 209.896 236.181 217.256 238.538 221.956C232.091 222.772 225.924 221.787 219.479 221.926C219.839 220.216 219.311 218.353 219.77 216.603C219.509 216.243 219.415 215.831 219.47 215.373C219.657 215.454 219.84 215.541 220.033 215.617C220.612 212.433 218.957 207.931 219.095 204.412C218.814 204.354 218.532 204.294 218.25 204.236C217.765 203.82 219.183 203.929 219.114 203.905C219.124 203.656 219.138 203.407 219.138 203.159C219.072 203.182 219.005 203.206 218.939 203.229C218.742 203.137 217.938 202.458 217.947 202.425C218.228 202.266 218.508 202.108 218.789 201.949C217.997 199.256 219.057 195.331 218.905 192.366C218.711 188.587 218.286 184.492 218.397 180.734C218.448 179.013 219.754 174.678 218.148 173.363C215.652 171.319 212.627 177.727 212.427 180.04C212.187 182.82 213.262 186.503 213.641 189.266C214.168 193.102 214.311 196.882 214.828 200.638C215.306 204.111 215.431 206.939 215.648 210.54C215.886 214.464 214.789 218.151 215.426 222.024C205.671 222.338 195.922 221.994 186.178 222.286C178.224 222.525 169.697 220.477 161.857 222.297C161.869 214.525 161.221 205.312 159.145 197.889C156.854 189.696 150.834 187.395 143.038 187.253C128.466 186.989 105.134 184.515 102.477 205.116C102.84 204.99 103.169 205.042 103.461 205.271C103.267 205.685 102.912 205.85 102.397 205.768C101.789 210.971 101.162 214.686 102.16 219.999C95.8982 217.717 85.3131 219.267 78.9347 220.194C72.3826 221.145 65.5288 219.629 59.1496 221.132C58.9817 219.692 59.0168 217.953 59.3213 216.547C57.9442 216.456 56.3935 216.979 55.1023 216.849C54.6092 218.275 54.6069 219.958 54.8851 221.426C49.8656 221.265 45.168 220.798 40.1087 221.066C42.0668 221.898 39.4313 222.591 39.1663 222.783C38.7602 223.077 39.9052 224.026 37.9392 223.617C37.1947 223.461 34.5114 222.158 35.8841 221.188C32.4898 221.239 29.1026 221.206 25.7118 221.052C25.9305 221.207 26.0649 221.442 26.1864 221.646C25.7904 221.719 21.0042 221.824 21.8916 221.133C15.4239 221.722 8.82469 219.591 2.4497 221.138C2.79772 220.754 3.13585 220.36 3.46373 219.958C1.99025 219.792 3.76458 219.129 4.09989 219.146C5.89552 216.723 6.86176 213.829 8.26367 211.167C7.54047 210.851 8.26508 210.593 8.6145 210.548C10.9026 206.626 12.2969 202.829 13.5402 198.399C12.9885 198.508 12.9764 197.535 13.8082 197.404C15.8598 189.597 19.3848 182.745 23.1767 175.76C22.9965 175.759 22.8163 175.759 22.6362 175.757C22.987 175.454 23.1386 175.351 23.3487 175.442C26.2735 170.072 29.6657 165.686 33.4752 161.017C32.9936 160.663 33.1357 160.105 34.0233 160.355C36.4608 157.44 38.4023 153.814 41.2807 151.374C39.5721 151.826 41.5207 150.143 41.608 151.067C46.9488 146.332 54.2898 141.859 60.8911 139.401C59.7013 139.457 58.5731 139.629 57.5934 140.045C57.4569 139.716 57.3197 139.387 57.1845 139.058C57.5454 138.816 57.9027 138.574 58.2613 138.332H58.2608C58.2237 138.238 58.1785 138.144 58.1243 138.052C57.8285 137.947 57.5327 137.843 57.2389 137.739L57.2375 137.739L57.2361 137.739C57.4404 137.522 57.6441 137.305 57.8477 137.088C58.2722 136.959 58.698 136.83 59.1232 136.702C59.2433 137.061 59.5857 137.276 60.2716 137.272C62.3554 136.382 63.6816 137.3 62.3897 138.814C71.1348 135.646 79.9836 140.026 88.7744 138.714C88.6015 139.329 88.5137 139.953 88.5108 140.582C84.6084 139.604 80.3694 140.081 76.4057 140.234C76.5307 140.596 76.655 140.959 76.7801 141.321C77.2946 141.499 77.987 141.251 78.5409 141.335C79.3139 141.037 80.0795 141.052 80.8369 141.38C83.3758 141.302 86.0512 142.262 88.5408 141.858C88.5515 142.102 88.5608 142.348 88.5695 142.593C89.3404 142.994 89.4648 143.772 88.6209 144.088C88.7238 147.083 88.9316 150.067 89.1611 153.051C86.8786 152.683 83.4285 154.209 81.0927 154.599C79.4191 154.88 70.8811 156.204 76.5565 157.634C72.494 157.634 68.2407 157.072 64.2061 157.511C64.782 157.742 65.0373 158.166 64.9714 158.785C64.1553 159.123 63.3094 159.3 62.431 159.317C61.9409 159.138 61.8623 158.868 61.9067 158.57C61.8801 158.483 61.8573 158.407 61.8394 158.34C60.5425 159.21 59.339 160.427 58.6281 161.866C58.7681 161.973 58.9167 162.062 59.0732 162.134C59.7384 162.129 60.3282 161.996 60.9082 161.846C60.3284 161.996 59.7388 162.129 59.0746 162.134C58.929 162.481 58.703 162.737 58.3966 162.903C58.5566 162.955 59.5708 163.15 59.4692 163.469C59.1819 163.772 58.8196 163.873 58.3814 163.772C58.3865 164.082 58.3915 164.39 58.3958 164.7C58.5209 164.746 59.8442 165.113 59.3763 165.481C58.9475 165.818 58.0844 165.62 57.6568 165.358C57.3918 167.924 57.922 170.507 58.4302 173.004C57.6147 172.929 52.7491 171.473 52.2781 172.34C51.8888 173.058 53.8332 174.508 54.2291 174.789C51.6401 175.261 48.8488 179.93 49.2791 182.705C45.0193 186.587 43.5731 195.302 42.6405 200.55C41.588 206.474 39.3041 214.974 40.7096 220.921C40.8771 220.912 40.9677 220.837 40.9805 220.696L41.8788 220.947C42.6848 215.415 42.0674 209.803 43.2515 204.294C44.7007 197.548 47.091 191.39 49.6613 185.109C50.4667 187.872 50.2245 190.89 51.1184 193.707C47.2853 195.573 47.2039 203.812 46.8458 207.322C46.6223 209.509 46.8031 211.864 46.6987 214.077C46.6516 215.084 46.1293 221.204 47.9221 219.114C49.2627 217.549 47.7728 210.711 48.0863 208.423C48.7203 203.796 50.2686 199.594 51.6 195.227C53.4872 201.318 55.1093 208.857 55.4596 215.327C56.0068 215.446 57.1053 215.965 57.549 215.297C58.1386 215.354 58.6652 215.345 58.7861 214.916C58.9725 214.843 59.1296 214.782 59.2683 214.732C55.3417 205.274 56.828 194.299 55.2109 184.276C55.1508 184.295 55.0958 184.315 55.0293 184.333C54.9207 184.282 54.7978 184.246 54.6606 184.224C54.637 183.924 54.6134 183.623 54.59 183.322C54.7678 183.154 54.9594 183.007 55.1638 182.881C54.9429 180.388 56.1469 178.405 55.7183 175.716C57.9498 176.918 60.4203 177.348 62.8963 177.532C63.1685 174.531 62.7784 171.579 62.7234 168.575C62.642 168.607 62.5475 168.644 62.4383 168.686C62.4391 168.457 62.4396 168.228 62.4405 168C62.5469 168.041 62.6398 168.079 62.7192 168.112C62.7262 166.78 62.8913 164.944 63.9417 163.979C62.9449 163.939 62.1495 162.392 63.5836 162.086C63.576 162.071 63.5637 162.057 63.558 162.041C63.558 162.041 63.5645 162.04 63.5673 162.04C63.2915 161.841 63.0164 161.644 62.7413 161.448C62.6482 161.138 62.5547 160.829 62.4618 160.519C63.4607 160.332 64.4169 160.452 65.3309 160.881C65.8605 161.741 63.6453 162.026 63.5687 162.039C63.5852 162.051 63.601 162.062 63.6181 162.074L63.558 162.041L63.6181 162.076C63.6038 162.079 63.5973 162.083 63.5836 162.086C63.7781 162.483 65.9361 162.934 65.3509 163.476C67.1419 163.514 68.9333 163.557 70.7247 163.599C70.3955 163.418 70.1087 163.179 70.7225 163.017C71.4478 162.825 72.1337 163.185 72.8513 163.06C72.7477 163.366 72.6877 163.54 72.5357 163.641C75.1485 163.703 77.7617 163.766 80.3753 163.822C80.7525 167.112 81.8544 170.186 83.0898 173.208C89.3054 174.031 95.1337 173.842 101.26 172.511C100.684 168.848 100.027 165.205 100.244 161.47C101.564 161.34 118.461 159.647 118.451 159.529C119.685 161.407 118.791 165.986 119.975 168.433C121.896 172.404 125.294 173.109 129.285 172.904C139.207 172.393 143.201 169.023 142.771 158.298C147.004 156.281 152.624 154.945 157.125 156.806C157.172 161.254 156.687 165.607 157.618 169.994C162.911 170.506 168.232 170.849 173.537 171.205C173.985 167.788 173.547 164.149 174.563 160.832C174.501 160.828 174.44 160.823 174.38 160.818C174.38 160.605 174.502 160.465 174.71 160.377C175.497 158.149 177.016 156.492 179.071 155.512C177.877 155.513 176.682 155.515 175.488 155.516L175.502 155.507C175.502 155.507 175.492 155.513 175.488 155.515C175.482 155.293 175.474 155.071 175.467 154.849C174.812 153.897 176.327 146.016 176.38 144.831C178.012 144.774 181.136 143.816 182.595 144.891C182.969 144.127 183.927 144.236 183.754 145.178C184.713 145.316 188.968 147.664 188.814 146.085C188.348 146.267 187.945 146.175 187.607 145.811C187.906 145.625 188.205 145.44 188.504 145.253L188.504 145.253C186.031 142.262 179.979 143.561 176.551 143.283C176.523 143.293 176.495 143.304 176.469 143.312C176.47 143.3 176.471 143.289 176.472 143.278C176.077 143.337 175.767 143.211 175.544 142.899C175.749 142.53 176.246 142.355 176.83 142.264C176.752 142.198 176.645 142.141 176.571 142.107C176.788 139.523 176.979 136.936 177.167 134.349C182.078 134.999 187.227 134.504 191.496 137.622C192.059 138.033 204.806 152.843 204.806 152.843C208.885 149.908 189.641 134.892 187.094 134.212C186.936 134.351 186.793 134.505 186.676 134.685C186.526 134.407 186.413 134.193 186.34 134.02C185.724 133.87 185.101 133.758 184.472 133.686C184.462 134.085 183.667 134.541 183.571 133.864C183.604 133.784 183.633 133.688 183.678 133.592C181.484 133.458 179.535 132.647 177.293 133.048C177.419 132.025 177.553 131.004 177.695 129.984C177.186 130.092 176.655 130.169 176.131 130.256C176.097 130.424 176.063 130.59 176.03 130.757H176.031L176.028 130.76L176.029 130.757C175.34 130.726 174.709 130.531 174.136 130.174C174.126 130.177 174.117 130.18 174.107 130.183C174.108 130.175 174.109 130.167 174.109 130.16C173.886 130.301 173.662 130.444 173.438 130.587C173.402 130.793 173.367 131 173.332 131.209C173.921 131.361 174.183 131.679 174.117 132.163C173.807 132.299 173.49 132.332 173.163 132.264C173.116 132.521 173.078 132.779 173.046 133.038C173.062 133.016 173.097 132.989 173.116 132.965C173.178 132.981 173.241 132.998 173.303 133.015C173.243 133.135 173.156 133.153 173.042 133.068C172.024 140.593 170.981 149.252 172.22 156.801C170.451 160.049 170.364 163.768 170.329 167.41C166.984 167.219 163.638 167.029 160.293 166.832C159.753 162.845 160.331 158.694 160.317 154.667C157.607 153.196 154.73 152.521 151.68 152.589C152.012 150.846 151.914 149.191 151.827 147.43C151.193 147.737 150.258 147.222 149.701 146.963C148.901 146.933 148.431 146.698 148.291 146.259C146.936 144.907 151.48 145.421 151.846 145.528C151.974 136.297 149.923 121.995 138.168 121.73C138.124 121.819 138.081 121.909 138.037 121.999C138.081 121.909 138.123 121.819 138.167 121.73C134.768 121.653 130.878 120.178 127.524 121.032C127.7 121.069 126.838 123.868 127.064 123.773C126.335 123.836 125.7 123.581 125.159 123.006C125.104 122.933 125.103 122.86 125.154 122.783C125.306 122.302 125.546 121.876 125.877 121.503C125.458 121.641 125.044 121.794 124.639 121.968C124.738 122.155 124.881 122.345 125.064 122.539C124.881 122.345 124.738 122.156 124.639 121.968C117.2 125.173 115.099 132.828 114.304 140.508C113.914 144.279 111.102 151.935 113.736 155.068C107.724 155.614 101.703 156.023 95.6838 156.469C95.0408 160.26 94.7671 164.059 95.1665 167.903C94.3313 167.998 93.4924 168.062 92.6527 168.091C92.8447 165.933 92.6446 163.809 92.7091 161.647C92.6555 161.633 92.6563 161.6 92.7111 161.547C92.8334 155.825 92.539 150.717 92.0224 145.016C91.6179 140.558 92.5777 136.288 92.3474 131.843C92.0397 125.914 92.2073 119.84 92.5564 113.763C91.786 114.488 89.014 113.796 88.2672 113.715C88.7559 120.959 89.0875 128.676 89.0267 135.892C89.5863 135.598 89.9236 135.243 89.5849 134.699C90.3137 134.366 91.0426 134.033 91.7715 133.699C91.7672 134.591 90.6609 134.99 91.2955 136.051C90.3151 136.301 89.2834 136.28 88.2464 136.236C88.48 136.143 88.7101 136.049 88.9159 135.949C82.7648 132.116 70.4989 131.94 64.0419 133.945C63.7208 134.41 63.3035 134.562 62.7899 134.402C56.1791 137.061 50.3938 141.011 44.3149 144.727C44.5714 145.092 44.8293 145.457 45.0872 145.821C44.2733 145.817 43.46 145.839 42.6475 145.888C33.9046 152.787 25.5933 162.582 19.7586 172.15C21.8467 172.723 18.9125 173.973 18.5917 174.126H18.5653C16.4166 177.714 14.1228 181.169 12.4956 185.058C11.6015 185.258 14.8579 184.65 14.8944 185.143C14.9036 185.266 12.0547 186.857 11.586 187.191C8.52243 194.253 6.33644 201.61 3.22734 208.638C4.03197 208.781 3.34867 209.389 2.93775 209.354C1.87461 212.247 1.26222 215.343 0.482558 218.327C0.576858 218.394 0.504719 218.616 0.401752 218.639C0.410419 218.606 -0.718045 223.791 1.22211 222.358C1.52217 223.534 3.92116 224.739 4.80717 225.134C5.023 225.05 5.29464 224.976 5.60115 224.91C6.01223 225.007 10.096 225.446 9.89872 226.304C16.7481 227.183 22.8012 227.01 29.8371 226.745C38.3207 226.426 47.2539 226.252 55.6589 225.365C64.4276 224.439 73.0742 224.204 81.9366 223.746C87.4761 223.46 98.3429 226.748 102.956 222.383C104.345 224.464 107.52 210.432 107.953 208.512C109.017 203.793 108.852 199.876 112.775 196.608C112.696 196.456 112.64 196.296 112.605 196.159C112.225 196.189 111.844 196.195 111.461 196.179C111.546 195.661 113.321 193.375 113.369 194.975C113.224 195.446 112.969 195.84 112.605 196.158C112.64 196.296 112.696 196.456 112.775 196.608C119.41 191.088 128.288 191.442 136.173 191.369C144.38 191.292 154.794 188.663 155.987 200.409C156.434 200.721 156.881 201.032 157.327 201.344C157.753 201.906 155.857 201.797 156.166 201.841C156.949 206.637 156.353 211.337 156.917 216.157C157.016 217.006 160.149 229.771 161.642 224.52C165.854 227.233 170.776 226.913 175.419 228.055C175.768 227.974 176.113 228.055 176.453 228.297C182.75 229.671 190.046 228.042 196.455 227.905C205.049 227.723 213.625 226.426 222.204 226.334C221.931 226.236 221.512 226.159 221.399 225.826C221.087 224.891 226.713 225.573 227.134 225.55C227.118 225.902 227.102 226.254 227.086 226.605C228.864 226.588 230.646 226.505 232.423 226.453C232.421 226.001 236.34 225.001 236.909 225.896C242.564 224.59 248.077 225.858 253.745 225.535C253.816 225.239 254.048 225.122 254.442 225.184C254.234 225.3 254.025 225.416 253.817 225.532C262.182 225.066 270.193 224.854 278.526 225.257C281.918 225.42 285.267 225.344 288.642 224.921C289.332 224.834 297.364 223.566 294.495 221.564ZM130.85 80.5412C131.257 80.1278 131.618 80.1878 131.933 80.7214C131.528 81.1475 131.168 81.0874 130.85 80.5412ZM132.292 73.8915C131.321 74.0523 130.364 73.9291 129.42 73.5208C129.512 74.1691 129.325 75.2138 128.375 74.6976C128.155 74.125 128.381 73.743 129.052 73.5534C129.716 70.5681 132.378 73.8242 132.292 73.8915ZM139.629 79.689C139.186 79.6813 138.758 79.584 138.344 79.397C139.229 79.1076 139.265 79.1156 139.629 79.689ZM141.538 83.1583C140.587 83.8725 138.844 85.0345 138.41 83.1189C138.265 83.102 138.215 83.0775 138.235 83.0483C137.7 82.8439 137.529 82.4829 137.729 81.9638C138.562 81.5101 138.809 82.26 138.795 82.8883C139.944 82.6865 142.369 82.5312 141.538 83.1583ZM146.273 69.0516C146.273 69.0516 146.269 69.0507 146.267 69.0507V69.0503L146.271 69.0486L146.273 69.0516C146.706 68.9382 146.907 69.0524 146.876 69.3931C146.559 69.4959 146.358 69.3816 146.273 69.0516ZM150.137 71.8375C149.626 72.716 148.863 73.181 147.849 73.233C147.511 73.2601 147.247 73.0926 147.056 72.7308C147.406 72.2074 150.444 71.0476 150.137 71.8375ZM152.397 71.4157L152.48 71.2786L152.615 71.3979L152.397 71.4157ZM159.212 85.1614C158.413 85.4945 156.836 84.5682 156.41 83.9301C155.767 82.9708 160.997 84.4188 159.212 85.1614ZM164.047 78.3497C164.094 77.8149 164.295 77.4856 164.649 77.3617C164.767 77.7531 164.574 78.084 164.047 78.3497ZM166.042 70.9333C165.811 71.5147 164.272 71.5409 164.052 70.9168C163.728 69.9901 166.389 70.0595 166.042 70.9333ZM176.689 126.206C176.691 126.215 176.694 126.223 176.696 126.23L176.657 126.204C176.668 126.204 176.678 126.205 176.689 126.206ZM175.477 94.8412L175.462 94.7151L175.656 94.768L175.477 94.8412ZM184.197 98.0292H184.197L184.197 98.03C184.084 98.0812 183.972 98.132 183.859 98.1832C183.424 97.7643 183.949 97.9331 184.197 98.0292ZM196.031 85.673C196.239 85.5664 196.442 85.3954 196.679 85.6523C196.679 85.6523 196.682 85.6544 196.684 85.6565C196.467 85.6688 196.249 85.6747 196.031 85.673ZM197.84 84.0939C197.816 84.0541 197.753 84.0016 197.777 83.9758C197.805 83.9466 197.91 83.9415 197.983 83.925C198.1 84.0587 198.053 84.1146 197.84 84.0939ZM211.044 85.1652C211.31 85.2613 211.575 85.3573 211.84 85.4525C210.958 85.8478 210.079 85.2816 211.044 85.1652ZM225.301 94.7816C225.306 94.377 225.526 94.2006 225.963 94.2518C227.224 94.2518 225.762 95.5648 225.301 94.7816ZM228.597 98.3893C228.592 98.3766 228.581 98.3668 228.576 98.3541C227.502 99.1382 226.486 97.8933 227.617 97.9086C228.148 97.9145 228.452 98.0783 228.576 98.3541C228.595 98.3398 228.618 98.3326 228.636 98.3165L228.597 98.3893ZM255.83 130.269C255.677 131.14 254.926 132.912 254.362 131.48C254.434 131.175 254.473 130.858 254.595 130.552C254.68 130.336 255.965 129.502 255.83 130.269ZM262.113 147.899C262.292 147.235 262.745 146.984 263.473 147.145C264.283 147.111 264.933 147.29 265.09 147.8C264.953 148.621 262.421 148.627 262.113 147.899ZM40.9319 220.505C40.9319 220.505 40.9319 220.507 40.9218 220.509C40.9319 220.505 40.9363 220.502 40.9327 220.505L40.9319 220.505ZM68.4108 158.399C68.6889 157.948 69.1582 157.931 69.818 158.345C69.9328 158.707 69.687 158.795 69.0804 158.61C68.811 158.589 68.5108 158.595 68.4108 158.399ZM71.5592 160.205C71.2749 161.039 68.9682 160.062 69.179 159.785C69.5262 159.331 71.8786 159.265 71.5592 160.205ZM174.416 144.529C174.5 144.517 174.599 144.541 174.782 144.557C175.779 145.562 173.361 147.208 172.833 145.843C172.942 144.956 173.469 144.517 174.416 144.529ZM172.6 166.084C173.802 165.907 172.818 167 172.153 166.323C172.261 166.19 172.415 166.111 172.6 166.084ZM155.927 153.317C156.671 153.485 156.676 153.658 155.938 153.836C155.194 153.666 155.19 153.492 155.927 153.317ZM140.854 159.577C140.57 159.468 140.286 159.359 140.001 159.251C139.555 158.449 142.496 159.478 140.854 159.577ZM123.992 123.756C124.097 123.519 124.202 123.282 124.307 123.045C124.305 123.033 124.3 123.019 124.3 123.007C124.522 122.923 124.744 122.838 124.965 122.754C124.744 122.838 124.522 122.923 124.301 123.007C124.309 123.006 124.316 123.006 124.323 123.006C124.318 123.019 124.313 123.031 124.307 123.043C124.588 124.715 124.594 125.03 122.872 125.052C122.735 124.479 123.06 124.034 123.992 123.756ZM122.405 125.043C122.118 125.157 121.832 125.27 121.544 125.383L121.543 125.383C121.829 125.27 122.117 125.157 122.405 125.043ZM117.846 138.727C117.137 140.452 117.824 140.106 115.513 141.114C115.384 140.035 116.069 139.21 117.846 138.727ZM115.707 154.504C119.503 150.112 119.646 143.717 120.223 138.218C121.299 127.968 126.401 125.412 135.246 125.39C140.491 125.376 144.626 126.877 146.997 132.483C149.768 139.032 145.609 146.282 148.39 152.855C145.156 153.273 142.115 154.531 139.165 155.931C139.262 158.676 140.181 166.687 136.883 167.481C137.222 167.436 137.567 167.418 137.925 167.455C137.948 167.913 137.615 168.391 138.151 168.822C138.724 171.084 135.598 170.736 135.214 168.879L135.2 168.863C136.703 168.78 135.401 168.378 135.095 168.354C135.121 168.24 135.147 168.126 135.174 168.011C135.658 167.974 136.017 167.829 136.285 167.608C130.148 168.717 123.639 170.487 123.197 162.508C122.956 163.499 121.821 163.377 121.321 162.771C121.629 162.125 122.114 161.718 122.774 161.552C122.89 161.657 123.065 161.761 123.167 161.866C123.028 156.223 120.304 154.469 115.287 154.926C115.422 154.807 115.56 154.667 115.707 154.504ZM106.981 159.259C107.399 158.41 109.783 158.472 109.479 159.482C109.202 160.403 106.564 160.101 106.981 159.259ZM94.9479 169.711C94.9479 169.711 94.9799 169.692 94.9829 169.693C95.4581 169.445 95.7453 169.545 95.8446 169.993C95.2437 170.694 94.4776 170.964 93.5472 170.804C94.0532 170.409 94.5005 170.06 94.9479 169.711ZM90.0552 168.75C90.2144 168.312 90.5582 168.15 91.0861 168.264C91.6207 168.524 90.7861 168.806 90.6416 168.852C90.4465 168.818 90.2509 168.783 90.0552 168.75ZM91.0861 172.878C90.7931 172.785 90.7554 172.688 90.9719 172.587C91.1633 172.529 91.2985 172.567 91.3614 172.684C91.2699 172.748 91.1784 172.813 91.0861 172.878ZM92.113 165.443C91.9851 165.834 91.5107 167.722 90.7095 166.798C91.1577 166.388 91.2228 165.945 91.044 165.483C91.3999 165.094 91.7558 165.081 92.113 165.443ZM90.1056 158.475C90.2495 158.391 90.3472 158.326 90.4681 158.302C91.0668 158.185 91.4936 158.473 91.7479 159.166C92.2358 159.848 90.8322 158.919 90.1056 158.475C90.0641 158.499 90.0204 158.524 89.9694 158.55C89.5043 158.13 89.6997 158.227 90.1056 158.475ZM89.7942 160.864C89.9879 161.093 88.6358 161.377 88.3458 160.98C88.2086 163.301 88.3635 165.71 88.7952 167.994C88.2243 167.944 87.6576 167.878 87.088 167.803C84.046 158.451 87.7977 157.652 76.8416 157.634C80.4903 156.884 85.7383 155.868 89.1289 154.533C88.9304 156.256 88.5271 157.89 88.425 159.634C89.1982 159.634 89.1939 160.156 89.7942 160.864ZM69.63 136.309C70.0616 136.833 70.0586 136.836 69.0417 137.072C68.6766 136.679 69.0432 136.467 69.63 136.309ZM41.778 149.202C42.0045 149.267 40.899 149.857 40.4517 149.537C40.6097 149.264 41.352 149.079 41.778 149.202ZM19.7371 175.43C18.9554 175.257 18.6445 174.908 18.5945 174.46C19.4997 174.601 19.8805 174.924 19.7371 175.43ZM15.2774 181.066C15.2797 181.066 15.2803 181.065 15.2803 181.065C15.2889 181.391 15.2954 181.719 15.3024 182.046C14.3162 181.65 14.314 181.604 15.2774 181.066ZM11.5473 194.921C11.3764 195.056 14.1119 194.064 13.8661 195.224C12.5827 196.967 11.398 195.039 11.5473 194.921ZM48.4329 223.86C48.2751 224.054 48.0364 224.228 47.8342 224.412C47.7641 225.036 46.7894 225.013 46.8367 224.354C46.3479 224.223 45.9519 223.945 45.6497 223.521C46.0063 222.765 49.1412 222.988 48.4329 223.86ZM76.1083 221.808C74.3056 222.476 76.2363 219.387 76.6143 221.088C76.5677 221.364 76.5414 221.647 76.1083 221.808ZM79.1197 221.622C79.5334 221.435 79.9614 221.338 80.4045 221.33C80.0407 221.904 80.0043 221.912 79.1197 221.622ZM95.1179 220.919C94.7321 220.543 94.7985 220.355 95.3158 220.355C95.6209 220.712 95.5552 220.901 95.1179 220.919ZM199.931 224.648C199.703 225.011 197.81 225.705 197.96 224.631C198.113 223.495 200.426 223.857 199.931 224.648ZM209.52 223.207C209.354 223.063 209.373 223.026 209.578 223.098C209.559 223.134 209.539 223.17 209.52 223.207ZM220.184 223.51C220.171 223.511 220.158 223.511 220.145 223.512L220.04 223.445L220.188 223.485H220.189C220.187 223.494 220.186 223.502 220.185 223.51C220.947 223.268 221.443 223.457 221.672 224.077C221.327 224.311 220.015 224.308 220.184 223.51ZM223.536 223.904C223.052 223.395 223.269 223.294 224.184 223.6C224.194 223.772 224.203 223.944 224.213 224.116C223.986 224.047 223.741 223.99 223.536 223.904ZM254.241 224.215C253.388 224.209 252.631 224.095 252.367 223.425C253.359 223.401 254.273 223.66 255.111 224.202C254.82 224.208 254.525 224.218 254.241 224.215ZM257.064 222.448C257.257 222.308 257.608 221.807 257.636 222.605C257.346 223.002 257.156 222.949 257.064 222.448ZM289.368 223.166C289.367 222.575 288.305 222.246 288.213 221.677C287.915 221.577 287.615 221.477 287.316 221.377C286.55 221.457 285.832 221.465 285.451 220.974C286.354 221.014 289.715 221.702 290.271 222.559C290.191 222.997 289.89 223.199 289.368 223.166Z" fill="#EFF0F1"/>
<path d="M138.795 82.8884C138.482 82.9434 138.266 83.0014 138.235 83.0483C138.289 83.0695 138.344 83.0902 138.406 83.108C138.407 83.1123 138.409 83.1152 138.41 83.119C138.497 83.1292 138.616 83.1368 138.775 83.1402C138.786 83.061 138.793 82.976 138.795 82.8884Z" fill="#EFF0F1"/>
<path d="M89.9694 158.55C90.0204 158.524 90.0641 158.499 90.1056 158.475C89.6997 158.227 89.5043 158.13 89.9694 158.55Z" fill="#EFF0F1"/>
<path d="M93.7568 96.6564C93.7658 90.2788 95.1351 84.3464 95.07 77.9942C99.6227 79.7917 103.707 74.7064 107.996 73.4979C108.114 73.9697 107.575 74.3433 107.768 74.9006C108.41 74.7792 108.977 75.8167 107.969 75.6072C108.5 77.516 107.798 80.0139 108.64 81.6087C109.254 81.5727 109.809 81.9142 108.935 82.1655C109.059 82.4245 109.265 82.6107 109.554 82.7237C110.587 86.6153 112.535 87.1692 115.59 85.7669C120.409 83.556 120.237 80.7573 119.419 76.699C119.145 75.3411 118.115 65.6994 114.616 71.303C113.282 73.4408 116.713 76.2931 115.902 78.7622C116.333 79.0948 116.668 79.6063 116.441 80.1615L116.421 80.0909L116.424 80.1137C116.32 80.4878 113.265 80.3887 112.701 80.5043C112.685 78.3039 112.011 74.4834 111.098 72.7887C109.537 69.8927 107.089 69.8792 104.316 70.3645C102.34 70.7102 90.1128 73.0942 93.1843 76.4409C90.8496 78.3505 90.158 81.395 89.4712 84.2491C90.7039 84.3781 91.9323 84.5207 93.1742 84.5169C92.3432 85.5117 90.1145 86.4917 88.8909 85.904C87.549 89.1499 88.0806 92.4572 88.082 95.9083C88.0834 101.244 87.7663 106.58 88.1429 111.92C88.5536 112.156 91.8061 113.382 92.5713 113.505C92.8828 108.154 93.3314 102.803 93.7223 97.5459C92.8469 97.4765 93.3165 96.7732 93.7568 96.6564ZM117.384 81.0416C118.092 81.2151 118.08 81.4589 117.347 81.7707C116.629 81.6074 116.641 81.3641 117.384 81.0416ZM115.89 74.2824C115.545 74.2413 115.233 74.1559 114.96 74.0154C115.845 73.7264 115.881 73.7349 116.245 74.3078C116.123 74.3044 116.005 74.2959 115.89 74.2824ZM107.981 73.4526C107.965 73.4361 107.948 73.4167 107.939 73.3972C107.911 73.332 107.951 73.3688 107.981 73.4526ZM99.9129 74.6162C100.799 75.0339 99.1965 75.0208 98.3772 74.9878C98.378 74.9886 98.3786 74.989 98.3794 74.9899C98.3466 74.9878 98.3208 74.9861 98.292 74.984C97.7525 74.948 97.8998 74.9666 98.292 74.984C98.3189 74.9852 98.3482 74.9865 98.3772 74.9878C98.1857 74.7715 97.9941 74.5549 97.8027 74.3379C98.5358 74.3628 99.2997 74.3268 99.9129 74.6162Z" fill="#EFF0F1"/>
<path d="M174.109 130.16C173.885 130.302 173.661 130.445 173.438 130.587C173.662 130.444 173.886 130.301 174.109 130.16H174.109Z" fill="#EFF0F1"/>
<path d="M72.5357 163.641C71.932 163.627 71.3283 163.614 70.7247 163.599C70.8614 163.674 71.0055 163.74 71.0955 163.785C71.9622 163.779 72.332 163.776 72.5357 163.641Z" fill="#EFF0F1"/>
<path d="M159.72 79.6687C159.872 79.7635 160.049 79.854 160.244 79.9408C160.075 79.8405 159.902 79.747 159.72 79.6687Z" fill="#EFF0F1"/>
<path d="M92.7332 113.496C92.7262 113.52 92.6672 113.52 92.5712 113.505C92.5662 113.591 92.5612 113.677 92.5563 113.763C92.6357 113.688 92.701 113.603 92.7332 113.496Z" fill="#EFF0F1"/>
<path d="M211.561 167.997C211.086 166.4 207.049 157.284 205.952 157.061C203.093 156.481 209.212 166.668 210.003 167.934C207.328 167.878 204.651 168.053 201.975 167.996C201.896 164.876 202.136 161.663 201.358 158.616C201.035 159.184 200.967 159.101 201.242 159.77C199.464 159.287 198.779 158.462 198.909 157.383C199.613 157.69 200.652 157.843 201.271 158.283C198.691 149.22 183.412 148.244 176.653 152.253C177.008 152.251 177.363 152.249 177.718 152.248C177.993 152.593 178.143 153.002 178.569 153.272C179.527 153.877 179.649 154.564 179.568 155.29C184.069 153.401 194.072 153.966 196.809 158.781C198.256 161.325 197.033 164.791 197.554 167.5C198.675 173.324 201.531 172.581 206.713 172.047C206.408 171.838 206.125 171.602 205.864 171.335C206.175 171.167 206.486 170.999 206.798 170.831C206.935 170.502 207.072 170.173 207.209 169.844C207.072 170.173 206.935 170.502 206.8 170.831C207.161 171.072 207.519 171.315 207.877 171.557C207.839 171.651 207.794 171.745 207.74 171.837C207.62 171.879 207.501 171.922 207.381 171.964C209.485 171.673 211.618 171.363 213.682 170.822C213.506 170.399 214.456 169.61 214.525 170.525C214.518 170.541 214.51 170.56 214.502 170.579C218.299 169.29 212.69 168.069 211.561 167.997ZM202.404 171.988C202.125 171.841 202.106 171.733 202.347 171.664C202.478 171.703 202.592 171.759 202.713 171.809C202.61 171.868 202.508 171.928 202.404 171.988ZM204.135 170.504C204.199 170.486 204.264 170.469 204.327 170.451C204.499 170.658 204.219 170.602 204.135 170.504Z" fill="#EFF0F1"/>
<path d="M57.1768 148.2C57.1946 148.181 57.2125 148.162 57.2282 148.144C57.2103 148.155 57.1917 148.167 57.1732 148.179C57.1738 148.186 57.1768 148.193 57.1768 148.2Z" fill="#EFF0F1"/>
<path d="M37.0754 162.719C36.8745 162.696 36.6736 162.696 36.4737 162.719C36.1234 163.116 35.7625 163.503 35.3918 163.878C35.2138 164.6 34.9251 165.334 34.0469 165.239C26.3057 173.419 21.4501 185.242 17.3061 195.671C17.3119 195.674 17.3183 195.677 17.3242 195.68C17.5583 196.335 17.462 196.306 16.9395 196.6C16.7952 196.96 16.6608 197.324 16.5381 197.692C17.1654 198.121 16.7852 198.215 16.292 198.445C15.7526 200.134 10.3217 215.219 11.5866 215.61C12.9635 216.04 21.2972 190.507 21.8509 189.151C25.7719 179.543 30.5253 170.456 37.6434 163.079C37.6255 162.985 37.6076 162.891 37.589 162.797C37.4176 162.756 37.2469 162.734 37.0754 162.719Z" fill="#EFF0F1"/>
<path d="M54.2533 148.761C52.3724 149.584 50.5588 151.034 48.8294 152.159C44.6864 154.856 41.0733 157.867 37.6162 161.494C37.6333 161.495 37.6499 161.498 37.667 161.499C38.2494 161.281 38.8867 161.214 39.5384 161.189C44.4613 156.481 50.1608 153.422 55.6046 149.49C55.0787 149.372 54.6178 149.176 54.297 148.814C55.2344 148.493 56.1934 148.28 57.1732 148.179C58.3514 147.424 54.6555 148.584 54.2533 148.761ZM40.8033 158.591C40.8454 158.466 40.9319 158.357 41.0733 158.287C41.4022 158.101 41.6422 158.189 41.7929 158.554C41.4651 158.963 41.1348 158.975 40.8033 158.591Z" fill="#EFF0F1"/>
<path d="M59.8899 151.873C55.0416 154.004 50.7976 156.617 46.7265 160.147C45.5289 161.185 41.1177 166.743 42.2288 166.296C48.0686 163.945 52.7634 157.181 58.3651 154.039C60.5124 152.834 78.9131 146.754 78.8359 146.252C78.5294 144.248 61.8873 150.995 59.8899 151.873Z" fill="#EFF0F1"/>
<path d="M51.3843 162.891C51.6251 162.819 51.8917 162.779 52.1976 162.786C51.8574 163.274 51.8201 163.321 51.1142 163.181C50.8976 163.428 50.6989 163.679 50.4803 163.911C50.9248 164.233 50.7789 164.382 50.043 164.36C44.5936 170.106 39.7565 175.968 35.3638 182.725C34.9759 183.305 31.8702 186.902 32.6521 187.462C33.9883 188.427 37.4669 183.16 38.0294 182.1C37.5941 181.299 37.7463 181.074 38.6073 181.064C41.3986 176.782 44.1075 172.33 47.4761 168.532C48.3922 167.499 57.9927 160.348 57.6097 159.53C57.1396 158.524 51.8358 162.473 51.3843 162.891Z" fill="#EFF0F1"/>
<path d="M24.2048 191.485C23.3709 193.914 16.7545 216.238 18.6296 216.769C18.7783 216.811 24.898 193.628 26.1443 190.338C26.3958 189.713 35.5582 171.917 36.0463 172.407C32.7054 169.054 24.4641 190.729 24.2048 191.485Z" fill="#EFF0F1"/>
<path d="M31.2907 192.413C28.1988 191.334 25.6064 211.93 25.8107 214.622C26.3201 221.327 27.427 211.932 27.5906 210.165C27.9288 206.509 28.8505 202.73 29.7516 199.179C29.9315 198.591 31.8175 192.596 31.2907 192.413Z" fill="#EFF0F1"/>
<path d="M33.7618 220.691C34.1218 220.712 36.6415 199.917 37.6048 197.283C37.7263 196.927 37.8478 196.574 37.9685 196.22C37.9149 196.158 37.9478 196.096 38.0321 196.035C38.443 194.835 49.4533 172.266 49.9414 172.698C44.4857 167.866 27.5841 220.315 33.7618 220.691Z" fill="#EFF0F1"/>
<path d="M40.7068 220.921L40.712 220.931C40.7112 220.928 40.7106 220.924 40.7106 220.924C40.7082 220.921 40.7068 220.921 40.7068 220.921Z" fill="#EFF0F1"/>
<path d="M78.6373 149.73C76.1734 149.589 73.0385 151.271 70.7439 152.031C70.7282 152.053 70.7097 152.073 70.6946 152.097C70.6869 152.082 70.6805 152.069 70.6726 152.055C69.039 152.657 64.6714 154.365 68.8495 154.724C71.1405 154.921 74.0511 152.614 76.1507 151.842C78.15 151.108 82.7033 151.123 84.1703 149.995C87.6756 147.3 79.0576 149.755 78.6373 149.73Z" fill="#EFF0F1"/>
<path d="M248.19 136.34C246.482 137.523 261.695 162.271 262.213 163.592C262.472 163.576 263.472 163.932 262.43 164.106C265.589 170.969 269.081 177.889 270.822 185.356C270.907 185.236 270.992 185.116 271.076 184.996H271.077C270.992 185.116 270.907 185.236 270.822 185.356C270.835 185.419 270.851 185.481 270.869 185.542C271.191 185.665 271.515 185.789 271.837 185.912C271.583 186.017 271.31 186.083 271.025 186.125C271.305 187.129 272.884 194.356 274.063 194.101C277.04 193.465 251.887 133.758 248.19 136.34Z" fill="#EFF0F1"/>
<path d="M249.342 167.461C248.668 165.093 240.205 140.684 237.417 142.609C237.472 142.571 246.951 162.988 247.156 163.606C249.079 169.379 250.456 175.437 251.756 181.377C251.82 181.415 251.874 181.463 251.904 181.527C251.872 181.562 251.846 181.607 251.817 181.649C253.781 190.033 256.673 198.611 257.774 207.18C258.401 207.009 259.046 206.998 259.71 207.15C259.533 205.24 259.004 203.511 258.571 201.646C255.902 190.132 252.57 178.791 249.342 167.461Z" fill="#EFF0F1"/>
<path d="M258.105 209.146C258.127 209.235 258.147 209.321 258.168 209.402C258.34 210.097 259.548 215.884 260.144 215.76C261.106 215.563 260.086 209.885 260.002 209.375C259.404 209.244 258.778 209.159 258.105 209.146Z" fill="#EFF0F1"/>
<path d="M234.33 168.261C234.536 168.365 234.74 168.409 234.941 168.406C234.873 168.141 234.805 167.879 234.74 167.624C234.572 167.793 234.435 168.004 234.33 168.261Z" fill="#EFF0F1"/>
<path d="M235.944 167.142C235.972 167.151 236.004 167.159 236.035 167.167C235.828 166.209 233.996 159.628 233.216 159.899C232.917 160.001 233.559 163.002 234.74 167.624C235.04 167.322 235.44 167.16 235.944 167.142Z" fill="#EFF0F1"/>
<path d="M240.551 185.105C240.548 185.106 240.546 185.107 240.543 185.108C240.543 185.116 240.547 185.114 240.551 185.105Z" fill="white"/>
<path d="M245.08 198.282C244.789 198.486 244.449 198.445 244.059 198.16C243.549 197.723 245.073 197.894 244.974 197.851C244.915 197.612 244.857 197.374 244.798 197.137C244.782 197.142 244.765 197.148 244.748 197.154C244.553 197.065 243.749 196.388 243.753 196.362C244.001 196.213 244.25 196.064 244.499 195.915C243.635 193.465 242.925 190.96 242.464 188.386C242.005 188.443 241.623 188.278 241.318 187.89C241.607 187.665 241.928 187.613 242.28 187.736C242.332 187.899 242.384 188.061 242.435 188.223C242.219 187.059 241.834 185.919 241.493 184.789C241.187 184.901 240.866 185.001 240.551 185.105C240.546 185.114 240.543 185.116 240.543 185.107C240.544 185.12 240.538 185.132 240.54 185.143L240.499 185.123C240.513 185.117 240.529 185.113 240.543 185.107C240.546 185.107 240.548 185.106 240.551 185.105C240.613 184.983 241.023 183.348 241.046 183.336C239.435 178.168 237.506 172.943 236.157 167.699C235.763 168.167 235.358 168.398 234.941 168.406C239.286 185.228 249.989 221.134 249.77 221.167C250.405 221.072 249.893 218.643 249.838 218.25C248.921 211.461 246.693 204.889 245.08 198.282Z" fill="white"/>
<path d="M224.31 188.045C224.141 187.826 223.972 187.608 223.803 187.39C224.065 187.393 224.323 187.434 224.577 187.514C224.094 185.653 223.567 183.794 223.11 181.926C222.944 181.17 222.377 176.234 221.459 176.466C218.488 177.217 225.829 198.434 226.38 199.539C226.469 199.508 226.568 199.481 226.678 199.459L226.679 199.46V199.459C226.751 199.393 226.823 199.325 226.895 199.258C226.831 199.33 226.768 199.401 226.705 199.472C227.033 199.752 227.066 200.059 226.801 200.394C228.26 203.818 228.994 208.179 229.786 211.797C230.475 211.885 231.078 212.071 231.445 212.521C229.269 204.257 226.742 196.182 224.664 187.86C224.546 187.922 224.428 187.983 224.31 188.045Z" fill="white"/>
<path d="M229.943 212.504C230.128 213.317 231.568 217.519 232.658 216.383C233.087 215.934 231.606 213.129 231.449 212.536C230.937 212.616 230.439 212.562 229.943 212.504Z" fill="white"/>
<path d="M216.238 136.675C214.959 136.665 214.843 136.15 214.872 134.985C212.045 131.634 208.496 129.054 205.314 126.117C205.356 126.514 204.223 126.819 204.059 126.84C208.526 131.331 212.876 134.246 216.543 139.658C216.882 140.157 225.839 156.762 225.362 156.909C226.032 156.702 225.669 154.26 225.602 153.861C224.221 147.046 219.847 142.318 216.238 136.675Z" fill="white"/>
<path d="M198.637 122.156C198.161 122.937 202.918 125.816 203.448 126.269C203.585 125.782 203.541 125.146 204.207 125.109C204.248 125.106 204.287 125.109 204.325 125.113C203.626 124.457 199.374 120.942 198.637 122.156Z" fill="white"/>
<path d="M190.784 124.053C190.2 123.618 181.241 120.05 181.092 122.222C181.037 123.021 189.207 124.519 189.62 124.662C189.544 124.609 189.531 124.548 189.588 124.481C189.946 124.194 190.345 124.052 190.784 124.053ZM183.551 122.625C183.825 122.318 184.224 122.249 184.75 122.418C184.419 122.614 183.965 122.583 183.551 122.625Z" fill="white"/>
<path d="M192.161 124.879C191.445 124.942 190.522 124.944 189.828 124.749C192.051 125.761 205.018 137.697 204.8 137.876C205.294 137.471 204.768 136.051 204.579 135.645C202.29 131.023 196.908 126.407 192.161 124.879ZM201.365 132.911C200.58 133.183 201.094 132.104 201.574 132.617C201.583 132.744 201.527 132.856 201.365 132.911Z" fill="white"/>
<path d="M193.569 116.52C191.621 114.816 186.569 114.847 184.104 114.451C181.116 113.971 177.111 113.728 181.498 115.637C183.887 116.823 188.296 116.663 191.052 117.764C193.123 118.59 197.176 119.677 193.569 116.52Z" fill="white"/>
<path d="M220.483 122.339C220.294 121.985 220.106 121.633 219.918 121.28C220.026 121.151 220.134 121.022 220.243 120.893C215.764 114.861 209.159 110.499 202.492 107.438C198.859 105.77 194.869 104.424 191.017 103.451C189.066 102.958 187.044 102.28 185.049 101.995C184.016 101.848 179.18 102.207 180.466 102.8C186.636 105.708 194.423 105.131 200.885 108.074C201.06 107.997 201.226 107.926 201.392 107.839C202.454 107.841 202.717 108.149 202.179 108.76C202.51 108.928 202.834 109.107 203.152 109.299C203.666 108.999 204.607 108.738 205.087 109.347C205.103 109.85 204.907 110.155 204.5 110.263C205.068 110.63 222.441 124.041 221.708 124.639C222.098 124.321 221.298 122.604 221.147 122.311C220.926 122.321 220.704 122.33 220.483 122.339Z" fill="white"/>
<path d="M233.823 122.828C233.57 122.982 233.231 123.089 232.882 123.192C234.299 125.508 235.433 128.376 237.179 130.438C237.215 130.413 237.25 130.388 237.285 130.361C237.579 130.466 237.875 130.57 238.171 130.675C238.225 130.766 238.27 130.86 238.307 130.955H238.308C238.166 131.05 238.023 131.146 237.882 131.242C238.102 131.479 238.893 132.18 239.266 131.871C240.026 131.24 234.16 123.075 233.934 122.735C233.908 122.766 233.874 122.797 233.823 122.828Z" fill="white"/>
<path d="M222.887 108.923C222.485 108.902 222.342 108.781 222.456 108.558C221.848 108.044 214.516 102.982 214.074 104.112C214.194 104.751 214.515 105.271 215.039 105.673C220.953 111.566 227.553 114.527 232.188 122.066C232.436 121.87 232.751 121.694 233.139 121.542C229.978 116.788 227.346 112.709 222.887 108.923Z" fill="white"/>
<path d="M234.622 150.579C234.692 150.543 234.76 150.502 234.83 150.471C234.522 149.716 225.079 130.621 223.769 131.626C221.958 133.013 230.111 144.309 230.612 145.17C232.144 147.586 241.29 169.107 241.504 169.003C243.06 168.248 235.822 152.904 234.872 150.573C234.788 150.575 234.705 150.577 234.622 150.579Z" fill="white"/>
<path d="M213.142 157.417C213.294 157.145 213.578 156.982 213.923 156.867C213.176 153.897 210.74 150.728 209.232 148.177C208.48 146.905 206.153 142.236 205.417 144.397C204.695 146.511 208.388 150.17 209.301 151.535C211.24 154.431 212.628 157.496 214.491 160.42C214.883 160.161 215.302 160.023 215.749 160.005C215.465 159.601 215.188 159.193 214.915 158.78C214.621 158.701 212.748 158.124 213.142 157.417Z" fill="white"/>
<path d="M214.88 161.713C215.013 162.443 216.255 165.894 217.165 164.402C217.581 163.722 216.246 161.496 216.105 160.833C215.787 161.159 215.306 161.426 214.88 161.713Z" fill="white"/>
<path d="M172.998 90.113C172.998 90.2159 172.999 90.3182 172.999 90.4211C172.999 90.4363 173 90.4524 173 90.468C173 90.3496 172.999 90.2315 172.998 90.113Z" fill="white"/>
<path d="M173.175 97.2371C172.854 97.0636 172.845 96.9142 173.148 96.789C173.021 94.6656 172.996 92.5465 172.999 90.4211C172.959 86.3543 172.447 81.8098 172.757 77.8149C172.732 77.8161 172.708 77.8187 172.684 77.8195H172.683C171.954 77.5517 172.252 77.3325 172.801 77.3431C173.088 74.7251 168.063 73.1904 166.778 75.1499C166.467 75.6238 167.479 76.3271 167.702 76.5599C166.559 80.9614 164.868 85.8059 160.421 86.9454C154.819 88.3807 152.287 84.2881 149.85 80.008C148.892 78.3264 148.123 74.7809 145.64 76.9851C144.88 77.6587 144.808 81.8567 144.146 82.8985C143.011 84.6858 142.214 84.7151 140.494 85.7369C136.29 88.2322 128.443 88.0206 126.644 83.3174C126 81.6316 127.317 79.2079 126.747 77.5276C125.865 74.9316 127.196 76.7532 124.472 75.0852C119.753 72.1968 120.742 76.0051 121.502 79.7275C122.454 79.4055 123.113 79.5862 123.481 80.2695C122.97 80.6156 122.398 80.6495 121.764 80.3719C121.707 80.3072 121.65 80.2429 121.593 80.1781C122.555 85.0307 119.763 85.4585 115.957 86.4728C110.925 87.8146 110.282 87.509 107.624 82.312C107.468 82.3159 107.312 82.3179 107.157 82.323C107.258 82.2092 107.359 82.0945 107.461 81.9794C106.942 80.8611 107.166 79.1182 107.442 77.9537C104.986 73.5534 99.5312 82.3044 97.3988 80.0656C96.1061 85.6236 95.1715 90.493 95.5373 96.4162C96.242 96.1513 96.7364 95.7117 97.3123 95.3397C97.9969 95.3554 98.6816 95.3702 99.3667 95.3863C99.7049 96.0184 100.64 96.5364 100.492 97.2616C99.4705 97.3894 96.3062 97.5079 95.5709 97.4952C95.496 116.51 90.2379 135.785 94.6599 154.536C97.7841 156.179 100.877 154.509 104.087 154.271C106.633 154.083 109.268 154.271 111.824 154.269C112.369 149.978 111.866 146.374 112.693 142.041C113.665 136.96 113.433 128.278 117.253 124.609C117.175 124.541 117.109 124.466 117.053 124.384C117.266 124.349 117.441 124.322 117.585 124.306C122.879 119.654 129.994 119.242 136.56 120.011C137.322 119.653 138.121 119.458 138.958 119.423C138.796 119.702 138.724 119.995 138.74 120.303C141.177 120.672 145.091 120.959 146.739 123.16C146.787 123.16 147.247 123.544 147.18 123.621C147.686 123.981 148.203 124.323 148.73 124.647C148.795 124.603 148.859 124.559 148.919 124.514C148.483 123.105 149.995 124.281 149.387 124.624C149.397 124.828 149.395 125.033 149.423 125.236C150.683 126.619 152.938 131.455 153.639 133.516C154.675 136.564 153.923 141.023 153.78 144.194C153.676 146.514 152.919 148.852 154.315 150.353C157.717 154.013 162.026 151.461 162.339 157.855C162.46 160.335 160.592 164.479 162.178 165.689C162.822 166.181 166.458 165.783 167.182 165.499C169.513 164.58 168.398 165.676 169.437 163.498C171.318 159.558 170.542 152.502 170.624 148.111C170.723 142.781 171.298 137.433 171.995 132.154C171.3 132.052 170.68 131.857 170.278 131.403C170.974 131.331 171.623 131.13 172.229 130.799C173.417 125.128 172.98 120.575 172.912 114.79C172.844 108.884 173.543 103.141 173.175 97.2371ZM97.0831 105.002C96.9307 105.038 96.8021 104.984 96.6971 104.843C96.7921 104.773 96.888 104.703 96.9829 104.633C97.2388 104.755 97.2717 104.878 97.0831 105.002ZM112.48 116.883C112.507 117.402 112.535 117.921 112.562 118.44C112.145 118.475 111.727 118.509 111.31 118.544C111.247 118.428 111.185 118.312 111.122 118.196C111.488 117.383 111.294 116.994 112.48 116.883ZM111.2 122.426C111.522 122.906 111.225 123.243 110.31 123.437C110.143 122.763 110.149 122.756 111.2 122.426ZM111.276 118.84C111.243 119.228 111.209 119.615 111.175 120.002C110.393 119.639 110.427 119.251 111.276 118.84ZM109.773 97.5227C110.406 97.2451 110.978 97.279 111.489 97.6251C111.062 98.399 110.297 98.5822 109.196 98.1747C109.388 97.9581 109.581 97.7397 109.773 97.5227ZM107.781 105.941L107.708 106.19L107.375 106.021L107.781 105.941ZM105.834 116.236C105.777 117.221 104.147 116.709 104.055 115.788C104.027 115.532 105.749 115.642 105.834 116.236ZM104.636 111.9C104.463 112.408 104.195 112.66 103.835 112.66L103.788 112.626C103.788 112.424 103.784 112.223 103.776 112.02C104.064 111.981 104.351 111.942 104.636 111.9ZM103.019 118.171C103.441 117.825 103.901 117.614 104.4 117.539C104.367 117.867 104.34 118.196 104.319 118.525C104.484 118.516 102.691 118.753 103.019 118.171ZM103.512 152.772C102.741 152.726 101.969 152.68 101.198 152.634C101.151 153.113 101.103 153.593 101.055 154.071C99.1147 154.141 98.8894 153.934 98.8989 151.976C98.622 151.485 98.868 151.068 99.637 150.726C100.545 150.745 101.128 151.134 101.388 151.892C102.1 151.919 102.813 151.945 103.526 151.971C103.521 152.238 103.516 152.505 103.512 152.772ZM105.372 122.758C105.191 122.71 103.527 122.552 103.632 122.141C104.175 120.02 108.008 123.805 108.471 123.932C109.025 123.87 109.578 123.808 110.133 123.746C109.617 124.799 106.472 124.909 105.511 124.385C105.754 123.834 105.399 123.3 105.372 122.758ZM107.04 126.16L106.976 126.262L106.877 126.18L107.04 126.16ZM106.338 137.117C106.199 136.932 106.019 136.756 105.86 136.574C106.019 136.756 106.199 136.932 106.338 137.117H106.338ZM107.865 146.484C107.234 148.043 107.91 143.938 107.978 143.612C107.548 143.428 107.152 143.184 106.791 142.877C107.094 142.534 107.439 142.246 107.824 142.014C107.876 141.908 107.927 141.8 107.978 141.693C108.214 141.683 108.45 141.674 108.686 141.665C108.746 142.074 108.807 142.482 108.867 142.89C108.966 142.935 109.065 142.98 109.162 143.025C109.232 144.238 108.332 145.336 107.865 146.484ZM110.482 142.171L110.524 142.197C110.504 142.185 110.482 142.172 110.482 142.172C110.641 141.878 110.82 141.587 110.953 141.29C110.82 141.587 110.641 141.878 110.482 142.171ZM113.278 134.829C113.241 134.881 113.192 134.933 113.135 134.986C113.093 135.316 113.051 135.646 113.009 135.975C110.816 136.576 111.048 135.306 110.622 133.705C110.172 133.832 109.887 133.69 109.765 133.278C110.02 132.396 111.839 132.537 111.479 133.725C111.99 133.994 112.521 134.212 113.073 134.38C113.372 134.522 113.386 134.674 113.278 134.829ZM115.695 123.43C114.192 122.948 111.833 121.492 114.448 120.546C113.213 122.645 116.182 121.555 116.341 122.831C116.125 123.031 115.91 123.231 115.695 123.43ZM132.495 107.97C131.947 108.451 131.489 108.402 131.121 107.82C131.335 107.438 132.677 107.319 132.495 107.97ZM128.209 89.0514C128.72 89.2025 128.678 89.3637 128.083 89.5355C127.569 89.3929 127.61 89.2317 128.209 89.0514ZM121.569 86.8257L121.701 86.9285L121.476 86.9365L121.569 86.8257ZM118.253 94.3724L118.1 94.4701L118.026 94.3517L118.253 94.3724ZM119.38 113.603C119.329 113.584 116.02 112.295 117.623 112.1C118.163 112.034 118.726 112.029 119.28 111.998C119.516 112.152 119.752 112.305 119.988 112.457C119.786 112.84 119.583 113.222 119.38 113.603ZM119.611 108.338C119.012 108.141 118.955 107.904 119.441 107.625C120.223 107.83 120.279 108.068 119.611 108.338ZM120.359 111.562C120.287 111.827 120.492 112.13 120.164 112.363C120.492 112.13 120.287 111.827 120.359 111.56C121.065 111.203 121.682 110.961 122.176 111.698C121.571 111.654 120.966 111.608 120.359 111.562ZM122.645 97.8206C122.921 97.367 123.729 97.4343 123.848 97.9632C123.644 99.1721 122.106 98.7054 122.645 97.8206ZM124.34 106.738C124.392 106.682 124.448 106.63 124.508 106.584C125.494 106.902 124.115 106.982 124.34 106.738ZM124.314 82.6459C124.588 82.5054 124.9 82.4199 125.244 82.3793C125.359 82.3658 125.477 82.3569 125.599 82.3531C125.235 82.9273 125.199 82.9345 124.314 82.6459ZM126.353 98.4976C126.766 98.3106 127.195 98.2133 127.637 98.2048C127.274 98.779 127.238 98.787 126.353 98.4976ZM127.287 97.0953C126.703 96.7741 126.69 96.5571 127.247 96.445C128.07 96.7344 128.084 96.951 127.287 97.0953ZM128.454 93.6289C127.559 93.8511 124.975 90.6716 126.573 90.3669C128.203 90.0563 130.275 93.1757 128.454 93.6289ZM129.593 114.13C129.921 113.132 131.02 112.261 131.985 112.11C135.342 113.582 129.248 115.182 129.593 114.13ZM135.439 90.8049C134.982 91.3795 134.087 91.5141 133.095 91.5509C132.998 91.8928 132.189 92.6756 131.94 92.1073C131.994 91.6931 132.242 91.4997 132.684 91.5268C132.77 91.5048 132.864 91.4929 132.953 91.4764L132.953 91.4756C133.393 90.7643 134.075 90.1702 135.381 89.8782C135.649 89.6256 136.884 88.9752 136.992 89.8985C136.744 90.6174 136.227 90.9196 135.439 90.8049ZM137.77 111.982C137.222 112.39 137.176 112.39 136.764 111.97C137.099 111.974 137.434 111.978 137.77 111.982ZM137.463 113.012C137.431 112.975 137.359 112.932 137.374 112.902C137.433 112.772 137.995 112.947 137.463 113.012ZM138.703 118.839C138.516 118.806 138.435 118.699 138.461 118.516C138.448 118.519 138.439 118.517 138.425 118.52C138.43 118.512 138.431 118.506 138.436 118.499C137.936 118.483 137.435 118.472 136.937 118.445C137.444 118.465 137.953 118.483 138.461 118.5C138.462 118.505 138.461 118.51 138.461 118.51C138.828 118.521 138.909 118.628 138.703 118.839ZM140.781 118.774C139.863 118.39 139.686 118.032 140.251 117.699C141.021 117.617 141.198 117.976 140.781 118.774ZM142.713 117.467C142.641 117.47 140.807 117.258 141.879 117.049C142.232 116.98 142.61 116.952 142.979 116.908C142.89 117.093 142.802 117.28 142.713 117.467ZM144.771 119.406C144.931 119.62 145.091 119.836 145.252 120.05C144.277 119.894 144.266 119.879 144.771 119.406ZM148.572 95.6249C149.239 94.8789 149.52 95.33 149.44 93.9852C149.931 94.0745 150.4 94.0144 150.85 93.8054C151.048 93.6073 151.299 93.4385 151.674 93.3395C151.556 94.7393 151.612 95.8039 150.247 95.9744C150.073 96.0815 149.898 96.1881 149.724 96.2956C149.395 96.3121 149.065 96.3286 148.735 96.3442C148.654 96.2766 148.572 96.2093 148.49 96.1407C148.51 95.9668 148.443 95.7671 148.572 95.6249ZM148.223 123.268C148.327 123.228 148.431 123.188 148.535 123.148C149.447 122.965 150.339 123.048 151.212 123.394C150.29 123.544 149.001 123.905 148.223 123.268ZM149.457 114.64C147.779 113.376 151.343 112.336 152.008 112.317C151.869 113.341 150.86 114.06 149.457 114.64ZM153.163 100.537C152.445 100.373 152.457 100.129 153.2 99.8072C153.908 99.9816 153.896 100.224 153.163 100.537ZM168.138 79.2853L167.978 79.4173L167.894 79.2629L168.138 79.2853ZM167.723 80.9406C167.787 80.936 167.86 80.977 167.928 80.9982C167.876 81.0312 167.824 81.0642 167.775 81.0951C167.692 81.0688 167.624 81.0477 167.556 81.0265C167.611 80.9961 167.662 80.9449 167.723 80.9406ZM165.388 84.1688C166.203 84.3257 166.219 84.5441 165.436 84.8225C164.753 84.7451 164.738 84.5267 165.388 84.1688ZM165.038 88.0418C165.474 88.0595 165.541 88.2474 165.236 88.6045C164.718 88.6045 164.652 88.4167 165.038 88.0418ZM163.288 112.673C164.198 112.735 162.725 113.375 162.604 113.389C162.599 113.27 162.594 113.149 162.589 113.03C162.713 112.84 162.849 112.643 163.288 112.673ZM163.215 115.092C163.221 115.304 163.227 115.517 163.233 115.73C163.04 115.748 162.847 115.767 162.654 115.785C162.629 115.571 162.604 115.356 162.579 115.141C162.791 115.125 163.003 115.108 163.215 115.092ZM161.06 101.145C161.175 101.132 161.293 101.123 161.416 101.119C161.051 101.693 161.015 101.701 160.131 101.411C160.404 101.272 160.716 101.186 161.06 101.145ZM159.315 105.479C159.58 105.575 159.846 105.672 160.111 105.767C159.228 106.162 158.351 105.594 159.315 105.479ZM158.345 124.766C158.375 124.698 158.654 124.667 158.866 124.605C159.329 124.484 159.662 124.611 159.866 124.985C159.928 125.12 158.136 125.225 158.345 124.766ZM156.987 100.447C157.269 100.436 157.554 100.558 157.625 100.877C157.284 102.902 155.346 100.51 156.987 100.447ZM155.625 87.6102C155.959 87.0372 156.769 87.3957 155.627 87.6097L155.625 87.6131L155.621 87.611C155.623 87.6102 155.625 87.6102 155.625 87.6102ZM155.023 110.117C155.034 109.692 155.076 109.277 155.543 108.919C155.624 108.915 155.706 108.913 155.788 108.915C155.817 109.208 155.847 109.5 155.876 109.792L155.916 109.782C155.816 110.082 155.805 110.381 155.882 110.679C154.988 110.551 155.011 110.551 155.023 110.117ZM154.69 128.492C155.16 128.256 155.203 127.936 155.254 127.61C155.295 127.347 155.397 127.086 155.473 126.824C156.164 126.935 156.854 127.058 157.557 126.849C158.435 126.309 159.373 126.216 160.37 126.567C160.283 126.728 160.196 126.89 160.109 127.051C160.427 127.504 160.748 127.957 161.068 128.41C158.748 128.421 157.262 129.453 155.271 129.457C155.078 129.135 154.883 128.814 154.69 128.492ZM157.112 133.994C156.404 133.887 156.373 133.704 157.019 133.444C157.748 133.538 157.779 133.721 157.112 133.994ZM157.837 132.047C157.301 132.467 156.833 132.493 156.433 132.126C156.766 131.55 157.924 131.971 157.837 132.047ZM161.038 145.934C160.481 146.048 159.429 145.839 160.454 145.51C161.599 144.082 165.692 146.907 161.038 145.934ZM162.754 162.87C163.057 162.431 163.68 162.267 164.456 162.233C164.159 162.676 163.537 162.842 162.754 162.87ZM164.668 130.151C164.31 130.141 164.25 130.083 164.489 129.974C164.674 129.952 164.734 130.011 164.668 130.151ZM165.686 145.358L165.519 145.274L165.722 145.234L165.686 145.358ZM166.114 132.071C166.105 132.071 166.098 132.068 166.089 132.068C166.091 132.055 166.102 132.045 166.105 132.032C166.128 132.041 166.152 132.051 166.175 132.06C166.153 132.063 166.135 132.068 166.114 132.071C166.482 132.263 166.434 132.344 165.971 132.316C165.724 132.174 165.884 132.111 166.114 132.071ZM166.776 162.229C166.777 162.228 166.779 162.227 166.779 162.227C166.787 162.554 166.793 162.882 166.801 163.209C165.814 162.813 165.812 162.766 166.776 162.229ZM168.391 121.349C166.56 122.006 165.999 122.241 164.957 123.398C162.705 122.548 165.549 122.459 164.487 121.429C163.572 120.543 162.339 121.92 161.315 121.32C161.533 120.672 162.077 120.433 162.95 120.603C164.777 120.234 164.783 120.245 166 119.592C166.805 120.009 167.226 120.688 168.522 120.768C168.478 120.962 168.434 121.156 168.391 121.349ZM170.264 104.674C170.22 104.586 170.102 104.478 170.154 104.416C170.199 104.359 170.434 104.354 170.586 104.327H170.586C170.768 104.678 170.802 104.573 170.264 104.674Z" fill="white"/>
<path d="M107.978 143.612C107.979 143.612 107.98 143.613 107.981 143.613C107.986 143.58 107.984 143.584 107.978 143.612Z" fill="white"/>
<path d="M166.544 207.905C166.567 207.904 166.592 207.903 166.617 207.902C166.618 207.901 166.619 207.901 166.619 207.9C166.591 207.902 166.569 207.903 166.544 207.905Z" fill="white"/>
<path d="M211.76 187.673C211.191 183.125 210.586 178.223 212.354 173.883L207.021 174.476C207.647 174.798 208.07 175.33 208.29 176.069C207.649 176.018 204.115 175.619 205.203 174.607C202.843 174.573 197.603 174.801 195.896 172.919C193.672 170.467 195.245 165.058 194.405 162.143C193.077 157.534 186.773 155.895 182.497 157.119C178.926 158.141 177.914 160.95 176.579 165.12C175.328 169.029 176.691 171.097 173.1 172.401C170.407 173.378 164.581 172.772 161.764 172.262C153.685 170.797 152.739 165.59 154.65 158.243C151.531 157.204 146.77 158.567 146.77 158.567C144.121 162.048 144.733 170.006 141.516 172.481C138.939 174.465 130.271 174.771 127.327 174.807C126.992 175.026 126.657 175.245 126.322 175.464C125.337 175.137 124.971 174.975 125.114 174.647C119.415 173.67 116.276 167.734 115.556 162.29C111.475 162.551 107.47 162.923 103.409 163.423C101.284 167.467 106.011 170.639 102.788 174.408C99.8299 177.869 92.4226 176.814 88.6045 176.452C89.4634 176.902 87.1996 176.823 88.2164 176.413C83.6129 175.933 82.689 174.881 80.6554 171.141C77.7669 165.83 74.9537 166.805 69.3625 166.443C69.5028 166.579 67.0968 167.015 66.5708 166.311C63.3015 167.248 69.2269 176.27 65.1909 178.93C65.3489 179.033 65.4367 179.196 65.4531 179.423C65.4595 179.423 65.471 179.423 65.471 179.423L65.4718 179.424C66.1213 179.109 68.4237 178.989 68.6681 180.142C66.3907 180.703 66.1984 180.66 65.4718 179.424C65.4668 179.426 65.4609 179.43 65.4561 179.432C65.4553 179.429 65.4545 179.426 65.4531 179.423C65.2709 179.423 65.0901 179.429 64.9094 179.441C63.5258 180.901 59.5007 179.841 57.9057 179.565C58.618 185.158 58.5681 190.833 59.4527 196.316C60.4754 202.65 59.7493 209.256 61.9202 215.298C62.0639 215.289 62.7391 215.38 62.6749 215.68C62.6355 215.862 62.4739 216.08 62.2404 216.199C62.5149 217.02 62.7105 217.86 62.827 218.717C70.5367 218.985 78.1843 216.926 85.8503 216.563C89.1968 216.405 93.1971 217.561 96.4407 216.943C99.4476 216.37 97.682 218.059 99.0581 215.142C100.281 212.55 99.5369 207.156 100.311 204.013C101.527 199.075 102.237 194.715 106.143 191.11C109.237 188.253 112.996 187.448 116.967 186.569C124.927 184.81 132.249 182.44 140.464 183.785C143.446 184.274 146.509 184.949 149.448 185.387C152.615 185.857 157.537 187.846 159.95 190.586C160.061 190.712 162.765 193.98 162.938 194.37C164.071 196.929 163.496 200.769 163.877 204.013C164.494 209.258 164.973 214.518 165.443 219.779H196.983C196.873 219.696 196.791 219.591 196.741 219.47C197.238 219.02 198.917 219.066 198.151 219.779H212.354C215.721 209.56 213.065 198.115 211.76 187.673ZM210.746 177.039C210.769 177.02 211.57 177.011 210.534 177.29C210.601 177.205 210.652 177.113 210.746 177.039ZM59.6971 181.057C59.785 181.071 59.8728 181.085 59.9621 181.099C59.8714 181.086 59.7822 181.073 59.6929 181.06L59.6971 181.057ZM59.7813 184.026C59.1333 184.186 59.0968 183.59 59.685 183.49C60.1995 183.524 60.2315 183.703 59.7813 184.026ZM60.614 182.499C59.9522 182.436 59.8515 182.294 60.3115 182.072C60.9727 182.125 61.0734 182.268 60.614 182.499ZM64.036 202.519C63.7203 202.479 63.4051 202.438 63.0899 202.397C63.1065 201.761 63.5367 201.675 64.3804 202.141C64.5606 202.353 64.3913 202.463 64.036 202.519ZM63.4867 191.519L63.7852 190.77C63.7632 191.027 63.6631 191.281 63.4867 191.519ZM62.6998 182.997C62.8084 182.922 62.9064 182.787 63.0271 182.78C63.6995 182.503 64.267 182.578 64.7292 183.004C64.6756 182.951 63.0307 183.109 62.6998 182.997ZM85.4652 196.116C85.4666 196.117 85.468 196.118 85.468 196.118C85.2522 196.126 85.035 196.132 84.8172 196.137C85.0251 196.03 85.2281 195.859 85.4652 196.116ZM66.6422 168.101C66.2992 168.109 66.0469 167.974 65.8861 167.693C66.3135 167.719 66.7109 167.829 67.0788 168.023C66.9138 168.071 66.7687 168.095 66.6422 168.101ZM68.9253 191.618C68.2065 191.454 68.2186 191.211 68.9617 190.888C69.6699 191.062 69.6578 191.306 68.9253 191.618ZM68.215 170.956C67.9677 170.823 67.7805 170.608 67.6542 170.31C67.6483 170.09 67.6427 169.871 67.6368 169.651C67.6427 169.871 67.6483 170.09 67.6548 170.31C69.0525 170.214 69.7386 169.5 71.1435 169.333C70.839 169.922 71.5473 170.412 71.6442 170.961C70.5011 170.96 69.3583 170.958 68.215 170.956ZM70.619 168.212C71.3964 167.98 72.1196 168.21 72.7876 168.905C72.5962 170.529 70.4517 168.33 70.619 168.212ZM73.263 191.705C73.3267 191.78 73.3671 191.868 73.3871 191.958C72.8499 195.149 71.4972 189.62 73.263 191.705ZM72.5855 202.001C73.1092 201.514 73.7259 201.346 74.4348 201.497C75.0443 201.53 75.4967 201.707 75.5624 202.1C75.2293 203.179 72.2454 202.805 72.5855 202.001ZM75.0774 196.561C75.3424 196.657 75.6081 196.752 75.8725 196.848C74.9901 197.243 74.1125 196.676 75.0774 196.561ZM75.8925 192.493C76.1655 192.353 76.4779 192.267 76.8222 192.226C76.9373 192.212 77.0552 192.204 77.1775 192.201C76.813 192.774 76.7773 192.782 75.8925 192.493ZM85.5488 205.828C84.2705 206.37 85.2216 207.387 84.6735 207.914C84.5834 208 80.0287 208.378 81.455 209.965C81.1213 210.208 80.7882 210.45 80.4553 210.692C80.2788 210.715 80.1044 210.74 79.9307 210.768C79.6442 209.344 78.3673 209.638 77.2682 209.563C77.5733 209.016 78.3821 208.803 78.9631 208.479C80.8005 207.457 82.6306 206.413 84.497 205.468C84.9042 205.522 85.3838 205.511 85.4896 205.829C85.536 205.826 85.5825 205.825 85.6289 205.825C85.6002 205.816 85.5732 205.816 85.5481 205.828H85.5488ZM86.8309 194.508C86.8045 194.537 86.6979 194.542 86.6266 194.558C86.5079 194.425 86.555 194.369 86.7686 194.388C86.793 194.43 86.8551 194.481 86.8309 194.508ZM86.0548 188.04C86.555 187.244 84.3948 187.125 85.7083 186.949C87.5275 186.706 86.1691 186.159 86.7144 185.301C86.8351 185.36 86.9558 185.418 87.0767 185.477C87.2117 185.666 87.4747 185.795 87.7326 185.927C87.9355 186.495 86.8252 188.108 86.0548 188.04ZM87.7234 178.901C87.7941 178.751 87.7971 178.517 87.9414 178.485C88.2578 178.414 88.4766 179.453 87.7234 178.901ZM93.6788 190.687C92.9598 190.522 92.9727 190.279 93.7153 189.957C94.424 190.131 94.4113 190.374 93.6788 190.687ZM96.9388 190.885C97.2145 190.431 98.0227 190.497 98.1414 191.026C97.9371 192.235 96.3991 191.769 96.9388 190.885ZM99.8307 195.628C100.096 195.725 100.362 195.821 100.626 195.916C99.7442 196.311 98.8652 195.745 99.8307 195.628ZM100.646 191.561C100.919 191.421 101.232 191.335 101.576 191.294C101.691 191.281 101.809 191.272 101.931 191.268C101.567 191.842 101.531 191.85 100.646 191.561ZM113.058 170.35C113.296 169.815 113.686 169.609 114.229 169.729C114.683 170.013 113.648 170.306 113.188 170.425C113.074 170.455 112.993 170.474 112.982 170.479L113.058 170.35ZM106.363 168.057C106.255 167.852 106.148 167.647 106.041 167.443C106.208 167.139 106.614 166.968 107.097 166.841C107.46 167.416 108.106 167.856 109.052 168.151C108.103 168.602 107.26 168.088 106.363 168.057ZM111.286 171.192C111.314 171.126 111.561 171.091 111.708 171.041C113.171 171.225 110.998 171.839 111.286 171.192ZM112.294 183.745C112.137 183.272 112.305 182.956 112.8 182.795C113.21 182.704 113.478 182.877 113.607 183.315C113.523 183.876 112.808 184.282 112.294 183.745ZM113.834 171.838C114.231 171.445 114.548 171.46 114.785 171.884C114.411 172.179 114.095 172.163 113.834 171.838ZM115.363 185.029C115.329 184.843 115.485 184.711 115.794 184.693C116.402 184.658 115.969 185.286 115.363 185.029ZM115.988 169.797C115.296 169.72 116.39 169.212 116.354 169.226C116.432 169.195 116.521 169.174 116.604 169.148C116.701 169.16 116.798 169.161 116.894 169.151C116.864 169.623 116.563 169.839 115.988 169.797ZM124.069 181.159C123.754 184.537 117.839 183.559 117.819 183.613C118.544 181.644 120.87 182.853 121.258 181.179C122.194 181.172 123.132 181.165 124.069 181.158L124.101 181.14L124.069 181.159ZM124.099 180.838C123.186 180.512 123.191 180.453 124.161 180.161C124.141 180.387 124.12 180.613 124.099 180.838ZM130.454 177.873C130.616 178.154 130.632 178.434 130.453 178.715C129.193 178.578 128.326 178.364 127.577 178.004C128.548 178.048 129.466 177.718 130.454 177.873ZM131.066 181.136C130.85 180.477 130.632 179.817 130.415 179.157C131.271 179.395 132.147 179.906 133.043 180.689C132.612 181.155 131.771 181.053 131.066 181.136ZM144.519 167.642C144.548 167.624 144.56 167.599 144.578 167.575C144.345 167.364 144.377 167.196 144.672 167.07C144.635 167.236 144.679 167.443 144.578 167.575C144.774 167.928 145.958 170.05 144.668 170.153C144.237 169.926 143.967 169.56 143.857 169.059C143.838 168.552 143.837 168.061 144.519 167.642ZM144.886 177.838C144.86 177.54 144.871 177.251 145.437 177.095C145.899 177.499 145.715 177.747 144.886 177.838ZM145.462 174.916C145.732 174.683 146.14 174.608 146.604 174.599C146.361 174.864 145.93 174.911 145.462 174.916ZM146.569 173.366C146.576 173.148 146.583 172.93 146.591 172.712C145.969 172.526 145.405 172.565 144.901 172.83C144.477 173.611 143.886 174.193 143.126 174.578C142.996 174.569 142.866 174.563 142.738 174.559C142.586 174.401 142.587 174.175 142.74 173.883C143.243 173.128 143.685 172.976 143.659 171.98C143.962 171.238 146.093 170.28 146.779 170.985C146.626 171.619 146.155 171.974 145.369 172.051C145.795 172.225 146.229 172.313 146.67 172.313V172.313C147.56 172.439 148.449 172.566 149.337 172.693C148.535 173.387 147.613 173.611 146.569 173.366ZM148.94 184.098C149.109 184.096 149.275 184.094 149.442 184.091C149.285 184.337 149.118 184.367 148.94 184.098ZM149.258 174.801C149.746 174.307 150.321 174.257 150.985 174.652C151.08 174.745 151.138 174.85 151.213 174.949C151.205 175.166 151.198 175.383 151.19 175.599C150.411 175.637 149.767 175.371 149.258 174.801ZM151.781 180.978C151.278 181.046 150.96 180.857 150.827 180.413C151.295 180.071 151.822 179.987 152.407 180.16C152.395 180.481 152.142 180.742 151.781 180.978ZM153.914 175.338C153.59 175.794 152.236 175.605 151.779 175.602C151.772 175.383 151.767 175.165 151.761 174.947H151.761C151.764 174.728 151.768 174.508 151.771 174.288C151.689 174.271 154.385 174.676 153.914 175.338ZM159.251 178.642C159.251 178.505 159.19 178.385 159.265 178.306C159.509 178.048 161.309 177.116 161.442 177.811C161.578 178.531 159.591 179.198 159.251 178.642ZM162.916 175.154C162.818 174.902 163.201 174.825 163.565 174.76C165.062 174.493 163.55 175.806 162.916 175.154ZM166.358 177.426C166.984 177.284 167.57 177.375 168.118 177.701C167.953 178.365 167.506 178.643 166.776 178.537C166.777 178.537 166.778 178.538 166.778 178.538H166.775L166.776 178.537H166.776C166.415 178.231 166.053 177.927 165.693 177.624C165.795 177.427 166.088 177.407 166.358 177.426ZM168.152 208.274C167.539 208.564 166.775 208.527 166.042 208.552C166.233 208.336 166.426 208.118 166.617 207.902C166.592 207.903 166.567 207.904 166.544 207.905C165.984 207.942 166.14 207.923 166.544 207.905C166.569 207.903 166.591 207.902 166.619 207.9C166.619 207.901 166.618 207.901 166.617 207.902C167.437 207.869 169.038 207.856 168.152 208.274ZM168.79 195.059C167.585 195.096 166.694 194.553 166.115 193.429C165.739 192.6 169.212 194.445 169.422 194.582C169.3 194.933 169.098 195.044 168.79 195.059ZM172.57 181.038C172.758 180.967 174.646 180.539 174.701 181.073C174.805 182.029 171.827 181.323 172.57 181.038ZM177.039 214.768C176.088 215.484 174.345 216.643 173.911 214.729C173.764 214.712 173.714 214.687 173.735 214.658C173.201 214.453 173.03 214.093 173.23 213.573C174.064 213.12 174.309 213.87 174.296 214.498C175.446 214.296 177.871 214.141 177.039 214.768ZM175.706 207.729C176.023 207.184 176.384 207.124 176.788 207.55C176.473 208.083 176.112 208.143 175.706 207.729ZM174.867 186.362C175.201 185.823 175.93 185.471 176.69 185.14C177.76 184.672 178.098 185.523 178.316 186.37C177.166 186.368 176.016 186.365 174.867 186.362ZM177.945 174.622C178.01 174.552 178.052 174.426 178.166 174.399C179.434 174.1 178.429 175.303 177.945 174.622ZM179.2 164.966C179.23 164.931 179.247 164.875 179.292 164.866C179.339 164.857 179.414 164.894 179.476 164.911C179.413 165.034 179.322 165.052 179.2 164.966ZM180.056 207.91C180.339 207.898 180.623 208.021 180.694 208.34C180.353 210.365 178.414 207.973 180.056 207.91ZM181.302 167.551C181.28 167.808 181.18 168.062 181.003 168.3L181.302 167.551ZM181.856 196.157C182.138 196.146 182.422 196.268 182.494 196.587C182.152 198.614 180.213 196.218 181.856 196.157ZM182.813 174.077C183.641 174.21 183.731 174.425 183.086 174.722C182.043 174.573 181.952 174.358 182.813 174.077ZM183.199 208.875C183.473 208.734 183.785 208.649 184.129 208.608C184.244 208.594 184.362 208.586 184.484 208.582C184.12 209.155 184.084 209.164 183.199 208.875ZM184.277 179.415C185.133 178.934 186.504 178.245 186.683 179.742C186.178 181.535 184.199 179.459 184.277 179.415ZM188.835 188.322C188.524 188.153 188.213 187.985 187.901 187.817C187.901 187.817 188.687 187.074 188.891 187.002C189.185 187.107 189.482 187.211 189.778 187.315C189.831 187.408 189.876 187.501 189.914 187.596C189.556 187.838 189.198 188.08 188.837 188.322C188.972 188.65 189.11 188.98 189.247 189.308C189.11 188.98 188.972 188.65 188.835 188.322ZM190.084 195.532C189.55 195.375 189.639 195.175 190.351 194.932C190.907 195.092 190.818 195.292 190.084 195.532ZM187.645 165.09C187.247 164.979 186.848 164.869 186.449 164.758L186.45 164.754L186.448 164.753C186.458 164.215 186.467 163.677 186.477 163.139C186.665 163.033 186.854 162.926 187.042 162.819V162.82C187.432 162.819 192.66 162.39 192.53 163.427C192.169 166.259 188.804 163.256 187.645 165.09ZM209.329 175.293H209.328C209.242 175.25 209.112 175.211 209.045 175.167C209.112 175.211 209.242 175.25 209.329 175.293ZM202.141 206.368C202.223 207.705 200.866 207.921 200.214 207.129C200.522 206.483 201.007 206.077 201.667 205.911C201.834 206.063 202.132 206.213 202.141 206.368ZM199.771 192.442C199.914 192.34 200.056 192.237 200.197 192.132C200.491 192.236 200.787 192.34 201.083 192.444C201.137 192.537 201.182 192.63 201.219 192.724H201.22C200.861 192.966 200.504 193.209 200.143 193.451C200.278 193.779 200.415 194.109 200.551 194.437C200.415 194.109 200.278 193.779 200.14 193.451C198.965 192.967 198.949 192.924 199.771 192.442ZM195.84 211.567C195.795 211.558 195.778 211.503 195.749 211.467C195.87 211.381 195.962 211.4 196.025 211.523C195.963 211.539 195.887 211.575 195.84 211.567ZM194.406 185.472C194.353 185.029 194.44 184.63 194.681 184.278C194.655 184.271 194.627 184.264 194.608 184.256C193.798 183.91 197.057 180.936 197.712 182.828C197.318 183.086 196.959 183.407 196.505 183.698C196.638 185.183 195.907 184.817 194.406 185.472ZM197.552 208.133C197.728 208.371 197.828 208.625 197.85 208.882L197.552 208.133ZM207.244 213.335C205.959 216.266 200.817 217.161 200.033 213.639C199.783 213.433 197.119 211.927 198.556 211.145C200.817 209.917 201.061 212.1 200.835 213.708C201.178 213.717 207.688 212.324 207.244 213.335ZM206.651 197.651C206.828 196.987 207.282 196.736 208.01 196.897C208.82 196.863 209.471 197.043 209.628 197.552C209.49 198.373 206.958 198.379 206.651 197.651ZM209.142 203.091C208.178 202.976 209.055 202.409 209.938 202.804C209.673 202.899 209.407 202.995 209.142 203.091Z" fill="white"/>
<path d="M174.296 214.498C173.983 214.553 173.767 214.611 173.735 214.658C173.789 214.679 173.844 214.7 173.907 214.718C173.908 214.722 173.91 214.725 173.911 214.729C173.998 214.739 174.117 214.746 174.276 214.75C174.287 214.671 174.294 214.586 174.296 214.498Z" fill="white"/>
</g>
</svg>
