<svg width="176" height="176" viewBox="0 0 176 176" fill="none" xmlns="http://www.w3.org/2000/svg">
<path d="M14.3247 118.894C14.9345 119.295 15.7664 119.135 16.5648 119.022C15.8376 118.674 15.1465 118.618 14.3247 118.894Z" fill="#EFF0F1"/>
<path d="M16.5814 119.029L16.5921 119.02L16.5629 119.021L16.5814 119.029Z" fill="#EFF0F1"/>
<path d="M160.934 56.7642C160.742 56.8234 160.525 56.8908 160.304 56.9609C160.52 56.9216 160.74 56.8665 160.934 56.7642Z" fill="#EFF0F1"/>
<path d="M54.5177 110.847L54.4121 109.949C56.2493 109.462 55.2046 110.805 56.8482 110.151C57.1967 108.752 59.7062 109.55 60.1261 108.745C60.1372 108.845 60.9794 108.668 61.0251 109.067C61.1081 108.335 61.8407 108.691 62.3225 108.387C62.4654 108.153 62.1316 108.224 61.9379 108.058L63.0802 107.513C63.6057 107.607 63.822 107.969 63.3291 108.173C66.534 107.602 81.7917 104.345 85.0918 103.14C84.5275 102.75 83.5689 103.359 82.9681 102.669C83.7491 101.994 84.3277 102.483 84.6005 101.915C85.2482 103.003 86.6409 101.688 87.6263 102.707L87.7105 101.973L88.2614 102.266C92.0191 100.555 89.0725 101.695 92.6051 100.953C94.5986 100.328 95.3198 99.1544 96.5323 99.2053C96.3628 99.2408 95.8119 98.9471 96.2918 98.6415C96.5323 99.2053 97.575 97.8615 97.9841 98.3867C98.4782 98.1806 100.158 97.8275 99.3891 97.1706C99.7748 97.4971 101.298 97.2779 100.504 97.8545C101.01 97.7487 101.524 97.7422 101.839 97.4724L101.139 97.4138C102.798 96.863 103.878 97.2447 104.791 96.2358L104.085 96.0772C105.081 95.7661 105.909 95.4886 106.51 96.1791L105.536 96.6908C107.203 96.2392 108.201 95.9262 109.485 95.1443L108.982 95.2512C110.555 94.0015 119.683 90.9486 121.065 89.5337L120.152 89.1123L121.427 88.2312C121.258 88.2667 121.263 90.4034 121.07 90.2402C124.074 89.4045 139.646 84.8775 142.54 84.5734C143.753 84.6243 142.995 85.4981 143.006 85.5984C144.316 85.0164 143.428 84.7949 144.606 84.5467C144.951 84.5757 144.666 85.0457 144.509 85.1797C145 84.9744 145.528 85.0674 145.493 84.7702C144.798 84.7119 144.869 83.8791 144.473 83.4522L145.987 83.1319L146.045 83.6297C146.382 83.5575 146.552 82.0948 148.087 81.974C150.621 81.5433 153.272 80.6791 155.795 80.1461C155.83 80.4452 155.352 80.752 154.87 81.0566C155.209 80.9855 155.698 80.7791 156.06 80.9068C155.326 80.5521 157.019 80.2974 156.493 80.2036C158.016 78.5541 160.658 79.0211 162.063 77.805C161.931 76.7085 160.822 58.7192 160.497 57.4595C161.003 57.3518 161.507 57.248 161.686 57.3117C161.481 57.05 160.459 57.1612 159.981 57.4649L160.064 58.1627C158.921 58.71 159.679 57.8343 158.516 58.182C158.31 57.6467 159.361 57.2479 160.3 56.95C159.426 57.1066 158.468 56.9245 158.275 57.6182C157.411 57.5954 158.19 56.9192 157.16 56.9343C156.511 57.2755 155.744 58.05 154.865 57.9277L154.854 57.8274C152.776 57.7556 152.118 59.4279 150.208 59.3175L150.351 59.0841C149.645 58.9254 148.528 59.6707 147.316 59.6198C147.666 59.6491 148.047 59.9752 147.388 60.2172C146.006 60.2018 145.213 60.7784 144.156 60.5924L143.389 61.367C138.861 62.4237 121.279 67.7789 116.778 69.0317L116.934 68.8997C110.114 70.946 95.9613 74.5546 89.0313 77.1355C87.7923 76.8866 86.3071 77.4041 85.118 77.552C85.8141 77.6083 85.6935 78.0425 85.1871 78.1502C81.6718 78.9916 85.0457 78.5799 81.5649 79.7204C77.6154 81.2669 61.8687 84.7297 58.1321 85.2087C56.3913 86.4951 53.8111 86.5283 52.0338 87.5144L52.1779 87.279C50.2078 88.1019 38.4431 90.3604 36.138 91.2565L36.4849 91.2866C34.5382 92.3083 34.5978 91.377 32.8973 91.5306C33.338 92.3558 31.6913 93.3147 31.0309 93.5555L31.0075 93.3568C30.0243 93.7693 27.9082 95.1312 26.2515 95.6832L26.1936 95.1853C24.9215 96.0656 22.2207 96.533 21.2214 96.8449C18.8563 97.242 15.0748 97.3247 12.1461 98.7569L9.79473 97.8988L9.5366 98.1112C9.5366 98.1112 10.5969 115.52 15.5917 118L15.6497 118.498L16.4419 118.228C17.4707 118.215 17.7769 117.541 17.8349 118.039L16.4926 118.323C17.5011 118.212 16.8879 118.642 16.5859 119.008C17.0033 118.95 17.4147 118.906 17.7753 118.97C17.9194 118.734 17.5825 118.807 17.405 118.741C17.8849 118.435 18.4984 117.797 19.1915 117.854C20.2 117.641 19.4554 118.617 20.6333 118.369C26.8637 117.159 32.9511 116.184 39.1227 114.473C39.3156 114.637 39.1462 114.672 38.9898 114.809C40.8028 114.12 42.4828 113.767 44.1295 113.113C44.6581 113.206 44.8621 113.47 45.055 113.633C44.6736 113.317 54.3391 110.784 54.5177 110.847Z" fill="#EFF0F1"/>
<path d="M118.032 162.281C118.433 161.671 118.272 160.839 118.16 160.041C117.812 160.768 117.756 161.459 118.032 162.281Z" fill="#EFF0F1"/>
<path d="M118.167 160.025L118.158 160.014L118.159 160.043L118.167 160.025Z" fill="#EFF0F1"/>
<path d="M55.9018 15.672C55.961 15.8632 56.0303 16.0813 56.0985 16.3012C56.0592 16.0853 56.0041 15.8652 55.9018 15.672Z" fill="#EFF0F1"/>
<path d="M109.986 122.087L109.087 122.193C108.599 120.358 109.943 121.4 109.289 119.757C107.89 119.408 108.688 116.899 107.883 116.479C107.984 116.468 107.807 115.624 108.206 115.578C107.474 115.495 107.83 114.762 107.526 114.281C107.292 114.138 107.364 114.472 107.197 114.665L106.652 113.523C106.746 112.997 107.108 112.781 107.312 113.274C106.741 110.069 103.485 94.8116 102.279 91.5114C101.888 92.0777 102.498 93.0343 101.808 93.6351C101.133 92.8541 101.623 92.2755 101.054 92.0027C102.142 91.355 100.828 89.9623 101.847 88.9769L101.112 88.8928L101.406 88.3418C99.6952 84.5821 100.836 87.5288 100.092 83.9981C99.4677 82.0046 98.2937 81.2834 98.3446 80.0709C98.3802 80.2404 98.0865 80.7913 97.7808 80.3114C98.3446 80.0709 97.0008 79.0282 97.526 78.6191C97.3199 78.125 96.9668 76.445 96.3099 77.2141C96.6364 76.8284 96.4172 75.3055 96.9938 76.0988C96.8881 75.5936 96.8815 75.0792 96.6117 74.7638L96.5531 75.4638C96.0023 73.8052 96.384 72.7253 95.3751 71.8124L95.2165 72.5186C94.9054 71.5224 94.6279 70.6945 95.3184 70.0936L95.8301 71.0675C95.3786 69.3997 95.0656 68.4024 94.2836 67.1181L94.3905 67.6213C93.1408 66.0481 90.0879 56.9198 88.673 55.5382L88.2516 56.4514L87.3704 55.1763C87.406 55.3457 89.5427 55.34 89.3794 55.5329C88.5438 52.5289 84.0168 36.9568 83.7127 34.0631C83.7636 32.8506 84.6374 33.6083 84.7377 33.5971C84.1557 32.2874 83.9323 33.1741 83.686 31.9973C83.715 31.6524 84.185 31.9374 84.319 32.0946C84.1136 31.6036 84.2055 31.0769 83.9095 31.1106C83.8512 31.8056 83.0183 31.7338 82.5915 32.1306L82.2712 30.6158L82.769 30.5578C82.6968 30.2209 81.2341 30.051 81.1114 28.5146C80.6806 25.9813 79.8165 23.3304 79.2854 20.8082C79.5845 20.7736 79.8913 21.2516 80.1959 21.7333C80.1248 21.3945 79.9184 20.9054 80.0461 20.5431C79.6914 21.2769 79.4367 19.5846 79.3429 20.1101C77.6934 18.5876 78.1603 15.9455 76.9442 14.5405C75.8478 14.6727 57.8585 15.7812 56.5988 16.1062C56.4911 15.5998 56.3873 15.0958 56.451 14.9171C56.1893 15.1222 56.3005 16.1438 56.6042 16.6225L57.302 16.5392C57.8493 17.6825 56.9736 16.9238 57.3232 18.0886C56.788 18.2939 56.3892 17.2433 56.0912 16.3043C56.2478 17.1782 56.0657 18.1361 56.7594 18.3291C56.7366 19.1935 56.0605 18.4144 56.0755 19.4444C56.4167 20.0937 57.1901 20.8624 57.069 21.7391L56.9686 21.7503C56.8969 23.8283 58.5691 24.4865 58.4588 26.3959L58.2253 26.253C58.0667 26.9591 58.8119 28.0759 58.761 29.2884C58.7903 28.9384 59.1165 28.5577 59.3584 29.2162C59.345 30.5993 59.9196 31.3915 59.7336 32.4488L60.5082 33.2156C61.5638 37.7456 66.9201 55.3255 68.1729 59.8259L68.0409 59.6699C70.0873 66.4904 73.6959 80.643 76.2768 87.573C76.0279 88.812 76.5454 90.2973 76.6932 91.4864C76.7496 90.7902 77.1838 90.9109 77.2914 91.4172C78.1328 94.9326 77.7212 91.5587 78.8617 95.0394C80.4082 98.9889 83.871 114.736 84.35 118.472C85.6364 120.213 85.6696 122.793 86.6557 124.57L86.4202 124.426C87.2431 126.397 89.5036 138.162 90.3978 140.466L90.4279 140.119C91.4495 142.066 90.5183 142.007 90.6738 143.708C91.4989 143.268 92.456 144.913 92.6987 145.575L92.5 145.598C92.9125 146.581 94.2744 148.697 94.8263 150.354L94.3285 150.412C95.2088 151.684 95.6762 154.385 95.9881 155.384C96.3852 157.749 96.4679 161.531 97.9001 164.459L97.042 166.811L97.2544 167.069C97.2544 167.069 114.665 166.01 117.143 161.014L117.641 160.956L117.371 160.164C117.358 159.135 116.684 158.829 117.182 158.771L117.466 160.113C117.355 159.104 117.785 159.718 118.151 160.02C118.093 159.602 118.049 159.191 118.113 158.83C117.878 158.686 117.95 159.023 117.884 159.2C117.58 158.722 116.94 158.107 116.997 157.414C116.785 156.406 117.76 157.15 117.512 155.972C116.303 149.742 115.326 143.656 113.617 137.483C113.78 137.29 113.815 137.459 113.952 137.616C113.263 135.803 112.91 134.123 112.256 132.476C112.349 131.947 112.613 131.743 112.776 131.551C112.455 131.932 109.922 122.266 109.986 122.087Z" fill="#EFF0F1"/>
</svg>
