<svg width="217" height="125" viewBox="0 0 217 125" fill="none" xmlns="http://www.w3.org/2000/svg">
<g opacity="0.8">
<path d="M93.4512 125C92.8312 124.951 92.2126 124.861 91.5926 124.858C79.1785 124.82 66.7659 124.799 54.3519 124.758C40.4859 124.712 26.6213 124.663 12.7553 124.585C8.92824 124.563 5.10118 124.437 1.27558 124.346C0.425127 124.326 0.294276 124.13 0.40947 123.224C0.450713 122.9 0.504718 122.573 0.496185 122.248C0.470586 121.33 0.732265 120.531 1.24424 119.822C3.08025 117.284 4.84233 114.673 6.7722 112.226C8.79167 109.664 10.9804 107.267 13.0823 104.786C15.5 101.931 17.9034 99.0589 20.3154 96.1994C21.0379 95.3433 21.7547 94.4824 22.4999 93.6516C24.5947 91.3144 26.671 88.9533 28.8228 86.6809C29.6462 85.8122 30.6801 85.1966 31.5732 84.4022C32.984 83.1505 34.4773 81.9747 35.7245 80.5394C39.0254 76.74 41.47 72.2221 44.0541 67.8276C44.9941 66.2293 46.1972 65.0267 47.7232 64.112C48.9292 63.3888 50.0427 62.4394 51.1079 61.4693C52.6112 60.1005 54.1286 58.7206 55.464 57.1603C57.2986 55.0161 59.018 52.7453 60.6947 50.4444C62.5293 47.9283 64.5943 45.7049 66.7873 43.575C69.7169 40.7329 72.5783 37.7816 75.2747 34.6705C76.7808 32.933 77.853 30.7397 79.1955 28.817C80.5822 26.831 81.9844 24.8466 83.5132 22.9983C86.1357 19.8287 88.6785 16.5926 90.9283 13.0843C93.0218 9.81811 95.0825 6.52502 97.2001 3.27783C97.8543 2.27456 98.6038 1.33617 99.3846 0.449994C100.11 -0.372881 101.161 0.000578002 101.664 1.02126C102.001 1.7033 102.468 2.42173 103.045 2.82209C105.616 4.59602 108.216 6.32564 110.868 7.94607C113.29 9.42566 115.775 10.7866 118.267 12.1206C122.701 14.4958 126.241 17.8744 128.532 22.81C129.93 25.8214 131.896 28.4056 133.956 30.8884C135.695 32.9852 137.98 34.1578 140.226 35.3826C141.94 36.3163 143.695 37.1565 145.403 38.0997C147.991 39.5286 149.922 41.7425 151.342 44.5134C152.286 46.3569 153.125 48.2685 154.125 50.0725C155.735 52.9795 157.996 55.2186 160.342 57.3787C162.471 59.3393 164.562 61.3633 166.554 63.4917C168.725 65.81 171.027 67.9241 173.517 69.7914C177.169 72.5275 180.022 76.0706 182.126 80.3543C182.912 81.9557 183.926 83.3277 185.148 84.5209C186.83 86.1666 188.541 87.7792 190.223 89.4249C191.647 90.8175 193.27 91.8682 194.958 92.786C198.721 94.829 201.416 97.9543 202.74 102.385C203.491 104.898 204.866 106.786 206.708 108.378C207.904 109.411 209.007 110.576 210.149 111.684C211.258 112.76 212.105 114.051 212.719 115.537C213.211 116.725 213.924 117.718 214.892 118.468C215.302 118.786 215.502 119.161 215.484 119.753C215.467 120.284 215.407 120.803 216.067 121.185C216.6 121.492 216.331 122.383 216.061 122.868C215.441 123.984 214.599 124.826 213.286 124.801C212.099 124.777 210.91 124.809 209.721 124.81C199.85 124.818 189.979 124.821 180.108 124.839C179.355 124.84 178.604 124.943 177.853 125C177.787 125 177.721 125 177.656 125C177.061 125 176.467 125 175.872 125C175.806 125 175.74 125 175.675 125C175.542 125 175.41 125 175.278 125C175.211 125 175.146 125 175.08 125C175.013 125 174.948 125 174.883 125C174.75 125 174.618 125 174.486 125C174.42 125 174.354 125 174.288 125C174.223 125 174.156 125 174.09 125C173.826 125 173.563 125 173.298 125C173.231 125 173.166 125 173.101 125C172.836 125 172.573 125 172.309 125C148.601 125 124.892 125 101.185 125C101.053 125 100.92 125 100.788 125C100.721 125 100.656 125 100.59 125C100.326 125 100.061 125 99.7983 125C99.7329 125 99.6661 125 99.6007 125C99.4684 125 99.3362 125 99.2039 125C99.1385 125 99.0716 125 99.0062 125C98.7417 125 98.4786 125 98.214 125C98.1486 125 98.0818 125 98.0164 125C97.7519 125 97.4888 125 97.2242 125C97.1574 125 97.092 125 97.0266 125C96.2345 125 95.4409 125 94.6488 125C94.5819 125 94.5164 125 94.451 125C94.1865 125 93.9235 125 93.659 125C93.5836 125 93.5181 125 93.4512 125ZM159.225 120.153C159.229 120.174 159.233 120.194 159.237 120.213C159.235 120.194 159.233 120.175 159.23 120.155C159.201 120.124 159.169 120.093 159.139 120.063C159.169 120.093 159.196 120.123 159.225 120.153ZM167.147 119.942C167.153 119.963 167.159 119.982 167.165 120.003C167.159 119.98 167.153 119.958 167.146 119.938C167.076 119.863 167.007 119.791 166.937 119.716C166.933 119.691 166.93 119.666 166.926 119.639C166.934 119.659 166.944 119.678 166.953 119.699C167.018 119.781 167.083 119.862 167.147 119.942ZM158.632 119.056C158.637 119.078 158.642 119.102 158.647 119.124C158.643 119.102 158.637 119.078 158.632 119.056C158.626 119.037 158.622 119.02 158.616 119.001C158.622 119.02 158.626 119.039 158.632 119.056ZM166.354 118.832L166.391 118.873L166.35 118.835L166.316 118.787L166.354 118.832ZM165.765 117.96C165.771 117.982 165.777 118.004 165.784 118.026C165.778 118.004 165.772 117.98 165.767 117.958C165.762 117.939 165.758 117.922 165.752 117.903C165.755 117.922 165.761 117.941 165.765 117.96ZM74.2294 51.6803C74.2479 51.6597 74.2663 51.6407 74.2848 51.6201C74.272 51.647 74.2593 51.674 74.2465 51.6993C74.1725 51.7768 74.1 51.8544 74.0275 51.9303C73.9692 52.0727 73.9094 52.2167 73.8511 52.3592C73.7757 52.4319 73.699 52.5063 73.6236 52.5791C73.5695 52.7294 73.5169 52.8798 73.4628 53.0301C73.3846 53.0997 73.305 53.1678 73.2268 53.2374C73.1756 53.3925 73.1258 53.5492 73.0746 53.7042C72.9936 53.7691 72.9125 53.8356 72.8314 53.9005C72.7603 53.9748 72.6735 54.0365 72.6181 54.1252C68.0928 61.376 63.5291 68.5983 59.0578 75.8886C52.048 87.3187 45.2842 98.9275 38.8148 110.747C37.2121 113.676 35.6875 116.659 34.1374 119.623C33.9695 119.944 33.8743 120.311 33.7506 120.644C34.8655 120.995 35.4443 120.574 35.8368 119.503C36.3318 118.153 36.9788 116.873 37.5491 115.558C40.712 108.266 44.1593 101.165 49.0515 95.0822C50.1381 93.7308 51.4251 92.5772 52.6212 91.3334C52.6411 91.3555 52.6595 91.3824 52.6823 91.3982C52.6936 91.4061 52.715 91.3951 52.7321 91.3919C52.6894 91.3792 52.6467 91.3666 52.6027 91.3539C52.8771 90.9567 53.2014 90.5912 53.4204 90.1592C59.3053 78.5994 65.4462 67.2089 71.8018 55.9624C72.1787 55.2946 72.4773 54.5746 72.8129 53.8783C72.894 53.8134 72.975 53.7485 73.0547 53.6821C73.1059 53.527 73.1556 53.3703 73.2068 53.2153C73.2865 53.1456 73.3647 53.0776 73.4443 53.008C73.4984 52.8576 73.551 52.7089 73.6051 52.5585C73.6805 52.4842 73.7572 52.4114 73.8326 52.337C73.8923 52.1946 73.9506 52.0506 74.0104 51.9082C74.0829 51.8338 74.1568 51.7578 74.2294 51.6803ZM74.6276 51.0188C74.6461 50.9998 74.6646 50.9808 74.6831 50.9618C74.6689 50.9872 74.6561 51.0109 74.6418 51.0362L74.5991 51.0805L74.6276 51.0188ZM51.0539 76.145L51.0197 76.1766L51.0567 76.1418C51.0738 76.1355 51.0895 76.1307 51.1065 76.1244C51.0895 76.1307 51.071 76.1371 51.0539 76.145ZM50.6586 76.8175C50.5889 76.884 50.5178 76.952 50.4481 77.0185C50.3969 77.172 50.3457 77.3255 50.2945 77.479C50.2149 77.5455 50.1352 77.6119 50.0556 77.6784C49.9304 77.9015 49.8053 78.1246 49.6801 78.3493C49.4739 78.5725 49.235 78.7687 49.0671 79.0235C46.5969 82.766 44.1166 86.5021 41.679 90.2715C40.1445 92.6436 38.6783 95.0695 37.1808 97.4701C37.1111 97.5429 37.0429 97.6157 36.9732 97.6901L36.9575 97.7359L36.9817 97.6758C37.0414 97.6014 37.1026 97.5255 37.1623 97.4511C37.6544 97.1204 38.1478 96.7896 38.7039 96.4162C38.6541 97.1093 38.6171 97.6299 38.5787 98.1505C38.5304 98.2249 38.4834 98.2977 38.4351 98.3705C38.4621 98.3863 38.4906 98.4022 38.5176 98.418C38.5319 98.323 38.5446 98.2281 38.5589 98.1316C38.7267 97.9243 38.9286 97.7407 39.0581 97.5065C41.8142 92.5423 44.5646 87.5734 47.3137 82.6045C48.1001 81.1835 48.8809 79.7561 49.6645 78.3319C49.7897 78.1072 49.9133 77.8825 50.0385 77.6578C50.1181 77.5913 50.1978 77.5233 50.276 77.4568C50.3272 77.3033 50.3798 77.1498 50.431 76.9963C50.5078 76.933 50.5832 76.8682 50.66 76.8049L50.6898 76.7653C50.6884 76.7669 50.6586 76.8175 50.6586 76.8175ZM75.0272 50.3668C75.0415 50.3494 75.0543 50.332 75.0685 50.3162C75.0528 50.3368 75.0372 50.3573 75.023 50.3779L74.9931 50.4238L75.0272 50.3668ZM75.4212 49.7165L75.4724 49.6706L75.4126 49.7196C75.3942 49.7275 75.3756 49.7354 75.3557 49.7434C75.3785 49.7354 75.3998 49.7259 75.4212 49.7165ZM19.1649 103.645C19.2303 103.57 19.2972 103.496 19.3626 103.423L19.4109 103.381L19.3796 103.444C19.3142 103.518 19.2488 103.591 19.182 103.665C19.1109 103.741 19.0397 103.816 18.9686 103.892C18.2376 104.616 17.3786 105.234 16.7955 106.083C13.6455 110.668 10.5637 115.307 7.46193 119.933C7.25571 120.24 7.08652 120.575 6.886 120.92C7.84595 121.172 8.41054 120.848 8.93816 119.982C11.2221 116.238 13.5915 112.559 15.9153 108.846C16.9449 107.202 17.9404 105.533 18.9516 103.874C19.0255 103.797 19.0952 103.721 19.1649 103.645ZM25.2944 103.406L25.3313 103.385L25.3115 103.426C25.2347 103.499 25.1579 103.57 25.0811 103.643C25.0313 103.8 24.9801 103.957 24.9303 104.112C24.8493 104.177 24.7696 104.241 24.6886 104.305C24.6146 104.376 24.5236 104.433 24.4667 104.518C20.9682 109.736 17.4726 114.955 13.9812 120.177C13.8788 120.33 13.8375 120.536 13.7763 120.696C14.9581 121.055 15.5797 120.533 16.1884 119.431C18.8435 114.633 21.6096 109.913 24.3273 105.159C24.4795 104.895 24.5563 104.577 24.6686 104.286C24.7482 104.221 24.8293 104.156 24.909 104.091C24.9602 103.934 25.0099 103.779 25.0611 103.623C25.1422 103.551 25.219 103.479 25.2944 103.406ZM159.021 101.225L159.057 101.263L159.014 101.227C158.947 101.091 158.88 100.956 158.814 100.82C158.76 100.654 158.706 100.489 158.651 100.325C157.347 96.8751 156.02 93.4333 155.348 89.743C155.125 88.515 154.987 87.2664 154.81 86.029C154.876 86.0195 154.943 86.0084 155.008 85.9989C156.214 88.3568 157.419 90.7162 158.624 93.074C158.64 93.0899 158.657 93.1057 158.673 93.1215C158.652 93.112 158.63 93.1009 158.609 93.0915C158.303 91.7195 157.933 90.3617 157.706 88.9755C157.369 86.9088 157.133 84.8216 156.853 82.7438L156.837 82.758C156.939 82.8783 157.069 82.9828 157.137 83.1236C158.239 85.3913 159.334 87.6621 160.428 89.9329C160.901 90.9156 161.369 91.8999 161.864 92.9332C161.864 91.1624 161.864 89.4961 161.864 87.8804C162.555 89.2904 163.284 90.7289 163.97 92.1926C164.835 94.033 165.667 95.894 166.513 97.747C166.547 97.8673 166.583 97.9891 166.617 98.1094C166.651 98.0936 166.685 98.0778 166.721 98.0619C166.67 97.9401 166.618 97.8182 166.566 97.6964C166.56 97.6236 166.564 97.5476 166.547 97.478C165.575 93.3573 164.875 89.1796 164.44 84.9482C164.401 84.5779 164.383 84.2044 164.344 83.6901C165.594 86.8297 166.755 89.8158 167.972 92.775C168.715 94.579 169.544 96.3371 170.335 98.1173C170.352 98.2075 170.369 98.2961 170.347 98.1885C170.404 98.2803 170.36 98.2091 170.316 98.1363C170.279 97.8483 170.266 97.554 170.204 97.2723C169.486 94.0884 168.941 90.8713 168.732 87.594C168.675 86.6983 168.723 85.7948 168.723 84.8959C170.436 89.8237 172.202 94.6913 174.182 99.4687C173.574 95.223 172.956 90.9995 173.561 86.4784C174.315 89.2382 175.012 91.7875 175.707 94.3384C175.737 94.3305 175.769 94.3226 175.798 94.3163C175.739 93.1975 175.679 92.0803 175.619 90.9631C176.95 94.6438 178.41 98.1964 180.014 101.676C180.045 101.766 180.078 101.858 180.035 101.736C180.118 101.814 180.056 101.755 179.995 101.698C179.906 101.205 179.847 100.7 179.721 100.217C178.964 97.3324 178.412 94.4175 178.612 91.384C178.667 90.5437 178.798 89.7414 179.594 88.9739C180.1 91.2147 180.51 93.3162 181.058 95.3702C181.624 97.4907 182.275 99.5858 182.98 101.654C183.676 103.694 184.451 105.702 185.254 107.693C186.052 109.669 186.93 111.608 187.827 113.692C187.115 109.188 186.429 104.862 185.744 100.535C185.799 100.521 185.856 100.505 185.911 100.491C186.032 100.728 186.155 100.967 186.335 101.323C186.294 100.882 186.263 100.565 186.216 100.075C187.245 101.507 188.151 102.798 189.09 104.059C189.817 105.037 190.585 105.976 191.334 106.932C191.392 107.087 191.451 107.243 191.509 107.398L191.547 107.433L191.502 107.395C191.441 107.246 191.38 107.096 191.318 106.947C190.707 104.878 190.08 102.816 189.49 100.739C188.897 98.6553 188.305 96.5744 188.285 94.3447C188.281 93.9017 187.988 93.3937 187.705 93.0377C187.206 92.4094 186.601 91.884 186.056 91.2969C183.353 88.3852 180.766 85.3738 178.853 81.7136C177.117 78.3921 174.935 75.4772 172.129 73.17C169.904 71.3391 167.652 69.5382 165.531 67.5665C162.752 64.9824 160.155 62.1545 157.362 59.591C153.98 56.4862 151.272 52.8323 149.183 48.5549C148.433 47.02 147.473 45.6005 146.515 44.2095C145.947 43.3851 145.216 42.6888 144.237 42.2061C144.008 44.439 143.766 46.5626 143.578 48.6926C143.363 51.1248 143.076 53.5602 143.05 55.9956C143.032 57.7569 142.631 59.1969 141.352 60.4202C142.897 65.3875 144.424 70.3469 145.989 75.2905C146.384 76.5406 146.899 77.7417 147.358 78.9665C147.421 79.1896 147.483 79.4127 147.546 79.6343C147.566 79.7261 147.587 79.8163 147.557 79.6881C147.638 79.7862 147.583 79.7197 147.527 79.6533C147.465 79.4302 147.401 79.207 147.338 78.9855C147.158 78.256 146.976 77.5265 146.796 76.797C146.425 75.2889 145.834 73.8346 145.908 72.1983C146.218 72.749 146.489 73.3203 146.65 73.928C147.498 77.1388 148.709 80.1913 150.065 83.1584C152.211 87.8551 154.465 92.4901 156.723 97.1204C157.271 98.2439 158.013 99.2519 158.666 100.312C158.72 100.477 158.775 100.64 158.829 100.804C158.896 100.94 158.959 101.083 159.021 101.225ZM58.5814 101.649C58.6397 101.496 58.6966 101.341 58.7549 101.187C59.109 100.727 59.4574 100.258 59.8215 99.8058C60.1714 99.369 60.4729 98.8168 60.9124 98.562C61.2992 98.3373 61.5324 98.0809 61.7443 97.6916C64.9839 91.7432 68.2663 85.8233 71.4704 79.8511C75.5406 72.2632 79.6805 64.7133 83.0553 56.6935C84.001 54.4464 84.9453 52.2009 85.8911 49.9538C84.8771 51.5236 83.9811 53.1583 83.1833 54.8499C81.8095 57.7648 80.2494 60.5388 78.3735 63.085C77.6937 64.0076 76.9002 64.7418 75.7738 64.9412C75.5164 64.9871 75.2078 65.2783 75.0812 65.5489C71.3651 73.5181 67.6505 81.4858 63.9799 89.4803C62.1965 93.3636 60.5056 97.2976 58.772 101.208C58.7052 101.358 58.6397 101.51 58.5729 101.66C58.5587 101.668 58.5444 101.675 58.5302 101.683C58.5487 101.672 58.5657 101.66 58.5814 101.649ZM64.7237 83.2011C64.664 83.353 64.6057 83.5034 64.546 83.6553C64.418 83.8104 64.2643 83.9465 64.1662 84.1221C61.2934 89.2334 58.371 94.3115 55.5721 99.4719C52.2187 105.655 48.7699 111.783 46.0664 118.371C45.7763 119.08 45.4805 119.786 45.1861 120.496C45.8758 120.759 46.1845 120.449 46.4291 119.867C47.0946 118.281 47.7957 116.714 48.4855 115.14C50.1409 111.359 51.748 107.546 53.8499 104.037C54.6975 102.623 55.4569 101.095 56.8079 100.138L56.7909 100.119C56.5307 101.217 56.269 102.316 56.0073 103.414C55.9874 103.504 55.9661 103.596 55.9462 103.686C55.9604 103.588 55.9746 103.491 55.9888 103.393C56.1154 103.195 56.269 103.012 56.3628 102.797C58.0879 98.85 59.8215 94.9097 61.5168 90.9472C62.5535 88.5261 63.5263 86.0701 64.5275 83.63C64.59 83.4812 64.654 83.3341 64.7166 83.1853L64.7507 83.1521L64.7237 83.2011ZM111.272 104.773C111.21 104.616 111.147 104.46 111.083 104.303C110.834 103.366 110.601 102.425 110.335 101.494C109.406 98.2566 108.995 94.9287 108.91 91.5422L108.892 91.5581C113.664 101.171 118.439 110.785 123.143 120.259C124.287 120.259 125.191 120.259 126.228 120.259C123.362 115.863 120.76 111.448 118.724 106.64C116.779 102.042 114.498 93.544 114.764 91.5723C115.569 93.237 116.386 94.9271 117.204 96.6171C117.224 96.6377 117.244 96.6599 117.267 96.6757C117.278 96.6836 117.297 96.6757 117.312 96.6741C117.271 96.6615 117.228 96.6504 117.187 96.6377C117.15 96.3909 117.139 96.1361 117.073 95.9003C116.162 92.6167 115.106 89.3711 114.358 86.0432C113.451 82.0064 112.743 77.9094 112.062 73.8156C111.671 71.4625 111.454 69.0683 111.248 66.6819C111.001 63.8161 110.796 60.9408 110.674 58.0655C110.584 55.9418 110.668 53.8118 110.644 51.6834C110.64 51.3084 110.58 50.8558 110.386 50.5726C108.803 48.2416 107.566 45.7081 106.73 42.9451C106.316 41.5763 106.008 40.1695 105.597 38.5681C105.029 41.2424 104.469 43.7047 103.989 46.186C102.991 51.359 102.043 56.5416 100.615 61.5991C99.8596 64.2734 99.0773 66.9256 97.6651 69.2914C97.2769 69.9418 96.772 70.3437 96.1235 70.5605C95.1195 70.896 94.3984 70.4434 94.232 69.3104C94.0998 68.4131 94.0472 67.5 93.9775 66.5917C93.7855 64.0788 93.6105 61.5658 93.4171 59.0545C93.2806 57.2727 93.1228 55.4924 92.9791 53.7106C92.7928 51.4192 92.5923 49.1294 92.4358 46.8364C92.3306 45.3046 92.3136 43.7664 92.2126 42.2346C92.1258 40.8974 91.9765 39.5666 91.8557 38.2326C91.7817 38.2152 91.7077 38.1994 91.6338 38.182C91.5214 38.5333 91.3849 38.8767 91.2981 39.2359C90.7947 41.339 90.4064 43.4848 89.7864 45.5451C87.9632 51.5996 85.4005 57.2916 82.7197 62.922C82.2362 63.9379 81.8379 65.0029 81.3999 66.0442C81.3202 66.1122 81.242 66.1787 81.1624 66.2467C81.0984 66.386 81.0359 66.5268 80.9719 66.6661L80.9349 66.7057L80.9676 66.6598C81.0259 66.5158 81.0842 66.3702 81.1439 66.2262C81.2235 66.1581 81.3017 66.0917 81.3814 66.0252C83.0083 63.7813 84.6325 61.5358 86.2637 59.295C86.4614 59.0244 86.6975 58.7871 86.9151 58.5355L86.9037 58.5228C86.7544 58.9532 86.6278 59.3947 86.4529 59.8125C85.4915 62.1023 84.5173 64.3874 83.5473 66.674C83.4834 66.8212 83.4194 66.9699 83.354 67.1171C83.29 67.2658 83.2259 67.4146 83.1619 67.5618C83.0994 67.7105 83.0382 67.8608 82.9771 68.0112C82.9102 68.1568 82.8434 68.3039 82.7766 68.4495C82.7097 68.5967 82.6443 68.7423 82.5774 68.8894C82.5106 69.035 82.4452 69.1822 82.3784 69.3278C82.3187 69.486 82.2575 69.6427 82.1978 69.7993C82.057 69.975 81.8777 70.1301 81.781 70.3311C77.5288 79.2624 73.2808 88.1953 69.0513 97.1394C68.8479 97.5698 68.7754 98.0983 68.7228 98.5905C68.5763 99.9656 68.4938 101.349 68.3473 102.722C68.2279 103.841 68.0516 104.952 67.9008 106.066C67.8525 106.186 67.8027 106.307 67.7543 106.427C67.7828 106.436 67.8098 106.446 67.8382 106.455C67.8525 106.319 67.8667 106.181 67.8823 106.045C69.596 101.841 70.657 97.3862 71.7492 92.9443C71.8302 92.9633 71.9113 92.9807 71.9923 92.9997C72.0435 93.2355 72.0933 93.4712 72.1502 93.7355C72.2455 93.5978 72.3237 93.5203 72.3621 93.4222C74.3901 88.3251 76.374 83.2059 78.4546 78.1341C79.6137 75.3079 80.9306 72.5607 82.1764 69.7788C82.2376 69.6221 82.2987 69.4639 82.3584 69.3072C82.4253 69.1616 82.4921 69.0145 82.5575 68.8689C82.623 68.7217 82.6898 68.5761 82.7552 68.4289C82.822 68.2834 82.889 68.1378 82.9558 67.9922C83.0184 67.8434 83.0795 67.6931 83.1421 67.5428C83.2061 67.394 83.2701 67.2468 83.3341 67.0981C83.3995 66.9509 83.4634 66.8038 83.5289 66.6582C83.7877 66.2119 84.0678 65.7783 84.2997 65.3163C85.4303 63.047 86.5467 60.7715 87.6688 58.4975L87.7314 58.5592C87.6247 58.9358 87.5522 59.3298 87.4057 59.6859C86.2793 62.4235 85.0662 65.12 84.0167 67.8925C81.0188 75.8111 78.0934 83.7629 75.1197 91.6926C74.7329 92.7227 74.5906 93.7149 75.003 94.8306C76.8163 90.569 78.5527 86.3391 80.4058 82.1725C83.0382 76.2542 85.8129 71.1935 86.9392 70.0921C86.4272 71.3565 85.9537 72.5069 85.4929 73.6637C83.0767 79.7451 80.6604 85.8248 78.2612 91.9141C78.1432 92.2132 78.092 92.6215 78.1716 92.9253C78.8201 95.3939 79.0207 97.9195 79.0164 100.475C79.015 101.412 79.0164 102.35 79.0164 103.287C79.4359 99.2994 79.965 95.3559 81.2278 91.585C81.3018 91.5913 81.3771 91.5976 81.4511 91.6039C81.4511 92.7101 81.4511 93.8146 81.4511 94.9208C81.5179 94.9271 81.5848 94.9334 81.6516 94.9398C81.8464 94.234 82.0199 93.5187 82.2404 92.8224C83.7507 88.0545 85.254 83.2818 86.7984 78.5281C87.2322 77.1926 87.7982 75.9108 88.3045 74.6053L88.2874 74.5894C88.2575 74.8727 88.2618 75.167 88.1921 75.4376C87.4199 78.4617 86.6093 81.4747 85.8641 84.5066C85.335 86.6635 84.523 88.7682 84.7562 91.0881C84.833 91.8508 84.8984 92.6183 84.9198 93.3858C85.0719 99.0193 85.2028 104.654 85.3578 110.288C85.4104 112.225 85.5028 114.16 85.591 116.096C85.655 117.477 85.7432 118.859 85.8214 120.253C86.2423 120.253 86.6349 120.253 86.9947 120.253C86.9421 119.58 86.8923 119.003 86.8496 118.423C86.5936 114.934 86.305 111.446 86.0973 107.952C85.9992 106.31 86.0219 104.654 86.0546 103.007C86.103 100.594 86.177 98.1806 86.3078 95.7721C86.3576 94.8638 86.5965 93.9681 86.7501 93.0661C86.8482 93.0598 86.9449 93.0551 87.043 93.0487C87.373 94.3099 87.7029 95.5696 88.094 97.0634C88.4496 95.7547 88.1452 94.4555 89.1237 93.4839C89.4095 94.1913 89.7224 94.791 89.8987 95.4366C90.3225 96.9827 90.6823 98.5509 91.0677 100.111C91.0905 100.369 91.1132 100.627 91.136 100.885C91.1829 100.871 91.2313 100.855 91.2782 100.841C91.2014 100.603 91.1247 100.368 91.0479 100.13C90.9981 98.9259 90.9568 97.7217 90.8942 96.5175C90.7677 94.0583 90.88 91.6214 91.4318 89.2287C91.52 88.8426 91.7461 88.496 91.9509 88.0339C93.0189 89.1812 93.1071 90.6703 93.8196 92.0644C93.7357 90.6592 93.9447 89.5816 94.5577 88.4881C94.653 88.9533 94.7028 89.273 94.7838 89.5816C95.7324 93.1532 96.681 96.7263 97.6395 100.295C98.2155 102.439 98.8085 104.578 99.3945 106.72C99.5239 107.239 99.6533 107.758 99.7841 108.277C99.9235 108.778 100.063 109.28 100.202 109.782C100.262 110.081 100.323 110.38 100.383 110.68C100.45 110.904 100.515 111.125 100.582 111.348C101.323 114.28 102.061 117.214 102.82 120.142C102.843 120.23 103.098 120.245 103.318 120.318C102.781 118.574 102.283 116.96 101.787 115.347C101.378 114.019 100.972 112.692 100.565 111.362C100.498 111.141 100.431 110.918 100.364 110.696C100.305 110.397 100.245 110.096 100.185 109.797C100.046 109.296 99.9065 108.794 99.7671 108.291C99.6363 107.772 99.5069 107.253 99.3774 106.734C99.3661 106.515 99.3803 106.291 99.3419 106.077C98.8711 103.515 98.3904 100.955 97.9154 98.3927C97.4291 95.7721 97.6011 93.1294 97.7533 90.4646C99.9335 96.0902 102.112 101.714 104.284 107.316C102.876 102.344 101.916 97.2596 101.961 91.7226C102.545 93.0234 103.015 94.0852 103.495 95.1423C104.241 96.7896 104.992 98.4322 105.743 100.078C105.756 100.132 105.77 100.186 105.784 100.239C105.77 100.192 105.754 100.144 105.74 100.097C105.488 98.2265 105.174 96.3624 105.008 94.4824C104.893 93.1816 104.985 91.8603 104.985 90.3522C105.562 91.7606 106.039 92.9823 106.559 94.1802C107.595 96.5681 108.646 98.9465 109.704 101.32C110.149 102.317 110.628 103.297 111.092 104.284C111.156 104.439 111.22 104.594 111.285 104.749C111.305 104.827 111.326 104.904 111.308 104.833C111.356 104.898 111.314 104.836 111.272 104.773ZM58.1434 120.332C58.2088 120.284 58.2757 120.238 58.1875 120.3C58.2429 120.186 58.2031 120.267 58.1633 120.349C58.149 120.376 58.1292 120.401 58.1206 120.431C58.1164 120.444 58.1334 120.465 58.1405 120.482C58.1419 120.431 58.1434 120.382 58.1434 120.332ZM125.339 105.221C125.326 105.173 125.312 105.128 125.299 105.08C125.323 105.091 125.365 105.101 125.366 105.116C125.369 105.145 125.349 105.177 125.339 105.207C125.411 105.349 125.485 105.49 125.558 105.632C125.815 106.732 126.074 107.834 126.332 108.935L126.349 108.918C126.128 108.786 125.848 108.71 125.699 108.514C125.278 107.957 124.871 107.375 124.528 106.756C122.168 102.501 120.367 97.9575 118.979 93.2085C118.419 91.289 117.884 89.36 117.336 87.4342C117.299 87.7807 117.389 88.0877 117.44 88.4026C117.979 91.7543 118.474 95.1154 119.066 98.456C119.271 99.6127 119.5 100.876 120.073 101.823C123.723 107.859 127.471 113.822 131.202 119.795C131.35 120.031 131.655 120.276 131.895 120.287C133.064 120.338 134.236 120.311 135.504 120.311C135.378 120.012 135.317 119.848 135.243 119.692C131.321 111.502 127.872 103.066 124.973 94.3701C122.303 86.3565 119.925 78.2307 118.619 69.774C118.402 68.3656 118.225 66.9319 118.498 65.2672C119.71 67.6757 120.057 70.2076 120.897 72.5591C121.146 71.9689 120.612 71.2536 121.341 70.7061C121.51 71.116 121.71 71.4799 121.813 71.8724C123.09 76.6672 124.426 81.4304 126.114 86.0828C128.089 91.5264 130.332 96.807 133.148 101.763C136.398 107.485 139.768 113.124 143.1 118.787C144.036 120.378 144.057 120.363 145.774 120.291C145.821 120.289 145.865 120.216 145.946 120.147C145.879 119.996 145.826 119.824 145.737 119.678C141.347 112.559 137.574 105.06 134.572 97.0982C133.666 94.6961 132.906 92.2259 132.078 89.7857L132.094 89.7715C132.232 89.9107 132.404 90.0262 132.504 90.1956C133.309 91.5549 134.102 92.9253 134.897 94.2925C138.396 100.306 141.914 106.305 145.383 112.339C146.725 114.675 147.951 117.092 149.248 119.46C149.498 119.917 149.712 120.577 150.476 120.142C150.262 119.783 150.067 119.454 149.873 119.124C145.967 112.533 142.827 105.55 141.068 97.8625C140.941 97.3071 140.893 96.7279 140.808 96.1614L140.789 96.1772C141.003 96.5633 141.236 96.9384 141.426 97.3387C142.088 98.7202 142.689 100.138 143.393 101.493C146.182 106.86 149.39 111.924 152.573 117.005C153.052 117.771 153.586 118.498 154.095 119.241C154.152 119.395 154.207 119.55 154.264 119.704L154.314 119.759L154.248 119.719C154.19 119.566 154.133 119.414 154.075 119.26C153.623 118.29 153.168 117.322 152.717 116.35C150.595 111.783 148.553 107.175 147.395 102.165C146.997 100.44 146.68 98.6917 146.324 96.9542C146.731 97.4052 146.961 97.9211 147.237 98.4069C149.304 102.035 151.376 105.658 153.456 109.275C153.567 109.468 153.764 109.601 153.92 109.761C153.971 109.929 154.021 110.095 154.072 110.263C154.138 110.399 154.202 110.536 154.267 110.672L154.295 110.714L154.256 110.684C154.189 110.549 154.121 110.415 154.054 110.28C154.002 110.112 153.951 109.945 153.9 109.777C153.152 107.729 152.36 105.7 151.672 103.627C151.269 102.417 151.027 101.14 150.714 99.8928L150.697 99.9118C152.019 101.749 153.34 103.585 154.661 105.422C154.668 105.436 154.674 105.45 154.681 105.465C154.671 105.446 154.662 105.427 154.652 105.408C154.573 105.098 154.529 104.77 154.406 104.482C153.368 102.013 152.32 99.551 151.268 97.0919C150.749 95.8797 150.326 94.5948 149.672 93.4776C145.29 86.0084 141.654 78.1088 138.6 69.8785C136.821 65.0821 135.331 60.1654 134.04 55.1775C133.963 54.8784 133.842 54.5524 133.651 54.3388C131.07 51.4524 128.975 48.1862 127.377 44.5244C127.326 44.4058 127.208 44.3235 127.121 44.2238C127.107 44.1478 127.091 44.0734 127.112 44.1763C127.053 44.094 127.095 44.1526 127.137 44.2095C127.323 47.0168 127.51 49.8241 127.694 52.6313C127.786 54.0524 127.902 55.475 127.943 56.8992C127.973 57.9183 127.188 59.1953 126.491 59.428C125.683 59.6986 124.831 59.2571 124.156 58.1984C123.947 57.8708 123.746 57.5306 123.583 57.173C122.849 55.5747 122.116 53.9764 121.408 52.3639C119.905 48.9411 118.399 45.5214 116.935 42.078C116.423 40.8737 116.035 39.6062 115.591 38.3671C115.27 39.9448 115.084 41.494 114.875 43.0385C114.626 44.8694 114.378 46.6987 114.09 48.5217C113.933 49.5076 113.497 50.4871 113.534 51.4524C113.613 53.4779 113.889 55.4972 114.145 57.51C114.418 59.6622 114.747 61.8064 115.078 63.9474C115.522 66.8228 115.991 69.6949 116.449 72.5671C116.092 68.2628 115.532 63.9838 115.27 59.6843C115.01 55.3848 114.808 51.0615 115.249 46.7367C115.478 47.1291 115.614 47.5295 115.661 47.9441C115.88 49.8905 116.042 51.8449 116.283 53.7881C116.647 56.7331 117.045 59.6732 117.45 62.6119C117.91 65.9429 118.309 69.2866 118.882 72.594C119.898 78.4569 121.092 84.2804 122.62 90.0088C124.716 97.8736 127.09 105.628 130.301 113.038C130.86 114.328 131.221 115.722 131.673 117.069L131.683 117.059C131.464 116.854 131.191 116.691 131.036 116.436C130.234 115.121 129.388 113.828 128.697 112.442C127.586 110.212 126.585 107.914 125.537 105.645C125.473 105.509 125.406 105.365 125.339 105.221ZM61.3546 82.0554C61.4129 81.9114 61.4698 81.7674 61.5266 81.6234C61.602 81.5506 61.6775 81.4763 61.7529 81.4035C61.8055 81.2468 61.8595 81.0917 61.9121 80.9351C62.0501 80.7214 62.188 80.5062 62.3259 80.2926C62.4639 80.1502 62.6331 80.0315 62.7369 79.8622C66.2425 74.0925 69.7269 68.3071 73.2567 62.5549C73.891 61.5215 74.063 60.455 73.9663 59.102C73.7444 59.4454 73.5852 59.6637 73.4543 59.9011C70.6285 64.9982 67.7941 70.0905 64.9882 75.2018C64.0681 76.8777 63.2248 78.6057 62.3459 80.31C62.2094 80.5252 62.0714 80.7404 61.9349 80.9556C61.8808 81.1123 61.8268 81.2674 61.7727 81.4225C61.6974 81.4952 61.6205 81.5696 61.5451 81.6424C61.4868 81.7848 61.4272 81.9273 61.3688 82.0697L61.3276 82.1077L61.3546 82.0554ZM133.87 109.609L133.843 109.566L133.882 109.595C133.949 109.74 134.015 109.884 134.081 110.03C134.163 110.342 134.209 110.674 134.335 110.96C135.597 113.806 136.863 116.649 138.145 119.482C138.592 120.469 138.72 120.5 139.66 120.128C137.798 116.778 135.93 113.413 134.061 110.049C133.998 109.903 133.934 109.756 133.87 109.609ZM29.046 110.684C28.9877 110.837 28.9308 110.989 28.8725 111.142C28.7587 111.266 28.6194 111.37 28.5341 111.514C26.8431 114.372 25.1564 117.233 23.4726 120.096C23.3616 120.284 23.2806 120.493 23.1669 120.732C25.0697 120.791 24.8663 121.242 25.8206 119.014C26.5643 117.278 27.2 115.486 27.8798 113.716C28.2112 112.855 28.5327 111.988 28.8583 111.123C28.9152 110.968 28.9735 110.813 29.0304 110.658C29.0574 110.66 29.0845 110.666 29.1101 110.66C29.1257 110.657 29.1399 110.636 29.1541 110.623C29.1171 110.647 29.0816 110.665 29.046 110.684ZM115.444 114.674C115.428 114.656 115.414 114.635 115.398 114.616C115.418 114.63 115.438 114.644 115.458 114.659C115.522 114.806 115.586 114.955 115.65 115.102C115.717 115.247 115.783 115.393 115.849 115.539C115.913 115.686 115.978 115.834 116.042 115.982C116.106 116.129 116.17 116.276 116.234 116.423C116.725 117.613 117.204 118.809 117.722 119.985C117.8 120.161 118.056 120.24 118.23 120.363C118.284 120.294 118.339 120.223 118.393 120.153C117.668 118.915 116.944 117.676 116.219 116.439C116.153 116.293 116.089 116.148 116.024 116.001C115.958 115.853 115.894 115.706 115.829 115.559C115.762 115.414 115.695 115.268 115.63 115.122C115.569 114.974 115.506 114.823 115.444 114.674ZM192.325 118.15C192.391 118.305 192.455 118.461 192.52 118.616C192.678 119.177 192.837 119.738 192.997 120.3C193.061 120.275 193.123 120.249 193.187 120.224C193.13 120.031 193.092 119.827 193.011 119.647C192.854 119.302 192.674 118.971 192.503 118.634C192.438 118.479 192.372 118.324 192.307 118.169C192.263 118.094 192.22 118.021 192.176 117.947C192.226 118.015 192.276 118.083 192.325 118.15ZM191.711 116.66C191.694 116.637 191.677 116.613 191.661 116.588C191.647 116.566 191.633 116.542 191.619 116.518C191.653 116.561 191.685 116.605 191.719 116.648C191.738 116.676 191.755 116.705 191.774 116.733C191.789 116.759 191.806 116.784 191.823 116.811C191.785 116.76 191.748 116.711 191.711 116.66ZM142.595 71.4894C142.614 71.5859 142.631 71.6825 142.607 71.548C142.675 71.6524 142.628 71.5796 142.58 71.5068C142.513 71.2868 142.446 71.0685 142.379 70.8485C142.361 70.6301 142.368 70.4038 142.318 70.195C141.537 66.924 140.751 63.6563 139.949 60.3236C139.61 60.1337 139.181 59.8948 138.673 59.6099C138.95 60.523 139.178 61.3411 139.447 62.1403C140.422 65.0393 141.414 67.9321 142.399 70.8279C142.465 71.0495 142.53 71.2694 142.595 71.4894ZM68.2606 113.727C68.3275 113.617 68.3928 113.51 68.4597 113.401C68.4312 113.382 68.4014 113.363 68.3729 113.344C68.3388 113.477 68.3047 113.61 68.272 113.744C68.2308 113.883 68.1895 114.024 68.1482 114.163C68.1767 114.17 68.2037 114.178 68.2322 114.184C68.2421 114.03 68.2507 113.879 68.2606 113.727ZM106.145 113.304C106.187 113.386 106.228 113.47 106.269 113.553C106.221 113.477 106.174 113.401 106.126 113.325C106.056 113.119 105.986 112.915 105.916 112.711C105.891 112.628 105.864 112.548 105.837 112.467C105.868 112.543 105.898 112.619 105.929 112.695C106.002 112.897 106.074 113.1 106.145 113.304ZM193.46 97.7533C193.457 97.7027 193.456 97.6521 193.453 97.6014C193.447 97.6188 193.432 97.6394 193.436 97.6537C193.445 97.6837 193.464 97.709 193.479 97.7359C193.756 98.2028 194.033 98.6712 194.399 99.2868C194.567 98.2044 194.186 97.8277 193.46 97.7533ZM188.705 94.2324C188.702 94.1802 188.699 94.128 188.696 94.0757C188.689 94.0947 188.673 94.1169 188.678 94.1311C188.687 94.1612 188.707 94.1881 188.723 94.2166C189.337 95.261 189.953 96.307 190.661 97.5112C190.477 95.8924 190.144 94.628 188.705 94.2324ZM106.518 114.448C106.504 114.345 106.488 114.242 106.511 114.394C106.431 114.28 106.484 114.355 106.537 114.431C107.08 116.323 107.615 118.221 108.185 120.104C108.228 120.246 108.528 120.291 108.707 120.381C108.755 120.327 108.805 120.275 108.853 120.221C108.075 118.298 107.296 116.374 106.518 114.448ZM53.8129 111.788C52.3268 114.678 50.8406 117.569 49.3545 120.46C49.3985 120.517 49.444 120.574 49.4881 120.631C49.6901 120.431 49.9575 120.272 50.084 120.025C51.044 118.161 52.011 116.3 52.9027 114.394C53.2881 113.57 53.5029 112.646 53.7958 111.768C53.8229 111.766 53.8513 111.771 53.8769 111.763C53.8926 111.758 53.9053 111.736 53.9181 111.722C53.8826 111.744 53.8471 111.766 53.8129 111.788ZM76.4238 97.5017C75.6373 99.2282 75.0358 101.007 75.0571 102.987C75.0671 103.827 75.0528 104.67 74.9959 105.509C74.8338 107.873 74.6389 110.233 74.4669 112.597C74.3374 114.379 74.2152 116.162 74.1085 117.945C74.0616 118.732 73.972 119.531 74.2137 120.498C74.484 116.42 74.7073 112.564 75.0088 108.715C75.168 106.688 75.4511 104.672 75.7042 102.654C75.9204 100.929 76.1721 99.2092 76.4082 97.4859C76.4579 97.3657 76.5077 97.2454 76.5561 97.1251C76.5234 97.1141 76.4892 97.1014 76.4565 97.0903C76.4451 97.2264 76.4338 97.3641 76.4238 97.5017ZM202.81 111.802C202.798 111.772 202.791 111.739 202.773 111.715C202.764 111.704 202.734 111.712 202.714 111.712C202.751 111.736 202.787 111.76 202.824 111.782C202.824 111.855 202.802 111.935 202.825 111.997C203.851 114.902 205.318 117.529 206.958 120.044C207.055 120.193 207.255 120.337 207.413 120.341C208.188 120.371 208.966 120.356 209.969 120.356C209.103 118.901 208.498 117.468 207.558 116.399C206.096 114.738 204.404 113.323 202.81 111.802ZM85.9437 34.7781L85.9025 34.737C86.0361 34.2195 86.1414 33.691 86.3049 33.1862C87.838 28.4531 89.3811 23.7263 91.3934 19.2052C92.2695 17.2382 93.0147 15.2 93.8196 13.1951C93.1071 13.923 92.5184 14.73 91.9637 15.564C90.6226 17.5832 89.2943 19.6119 87.9688 21.6422C85.7005 25.1188 83.2971 28.4989 81.208 32.1038C78.1958 37.3005 74.5281 41.771 70.1976 45.61C68.6802 46.9551 67.0987 48.2337 65.7064 49.7244C63.7097 51.8623 62.4141 54.5999 60.965 57.1951C60.9522 57.2125 60.9393 57.2315 60.9265 57.2489C60.9336 57.2236 60.9422 57.1999 60.9493 57.1761C61.1996 57.0116 61.467 56.8723 61.6974 56.6792C63.5647 55.1174 65.3424 53.3972 67.3121 52.0158C69.3913 50.5567 71.6482 49.4095 73.8341 48.1403C74.4157 47.8017 75.003 47.452 75.6217 47.2209C76.6584 46.8332 77.2927 47.433 77.1975 48.6499C77.169 49.0123 77.0794 49.3683 77.0438 49.7307C76.7949 52.2294 76.5574 54.7312 76.3071 57.2299C76.1863 58.4278 76.1934 59.5973 76.8135 60.8537C77.3809 60.072 77.8943 59.4185 78.355 58.7222C79.6563 56.7552 80.9193 54.7582 82.2262 52.7959C84.3495 49.6073 86.3888 46.3632 88.0883 42.8629C89.236 40.4971 90.4619 38.1788 91.6523 35.8384C91.995 35.1658 92.4828 34.8335 93.201 34.9585C93.9234 35.0851 94.1752 35.658 94.2676 36.3432C94.4895 38.0016 94.7355 39.66 94.8734 41.3279C95.1095 44.1652 95.2631 47.012 95.4665 49.8541C95.5931 51.636 95.7509 53.4146 95.8903 55.1965C96.0823 57.6699 96.2629 60.1432 96.4592 62.615C96.5758 64.0835 96.7123 65.5505 96.8403 67.019C96.9413 67.0332 97.0437 67.0475 97.1446 67.0617C97.2982 66.7326 97.4703 66.4113 97.6011 66.0711C99.0148 62.3777 99.7316 58.4642 100.559 54.5825C101.741 49.0328 102.931 43.4863 104.186 37.9573C104.42 36.9223 104.904 35.9317 105.396 35.0028C105.951 33.9537 106.724 34.0628 107.172 35.2022C107.408 35.802 107.579 36.4365 107.738 37.0695C108.658 40.725 109.938 44.1905 112.018 47.2399C112.137 47.414 112.311 47.5422 112.527 47.7605C112.908 44.6969 113.288 41.7836 113.623 38.8656C113.788 37.4335 114.181 36.0979 114.853 34.8778C115.482 33.7369 116.442 33.7258 117.14 34.8367C117.439 35.3114 117.648 35.8589 117.873 36.3859C119.872 41.0747 121.859 45.7698 123.866 50.4555C124.336 51.5537 124.87 52.6203 125.477 53.9226C125.426 52.6915 125.336 51.7404 125.356 50.7909C125.431 47.2557 125.167 43.7585 124.289 40.3547C123.873 38.739 124.463 37.4936 125.234 36.2925C125.791 35.4238 126.533 35.3826 127.249 36.1026C127.512 36.3685 127.752 36.6976 127.91 37.0489C128.368 38.0601 128.783 39.095 129.206 40.1268C131.052 44.632 133.395 48.748 136.745 52.0822C137.909 53.2422 139.093 54.3815 140.347 55.6095C140.882 50.5647 141.398 45.6859 141.924 40.7186C140.382 39.8657 138.839 38.9605 137.259 38.1503C134.855 36.9176 132.832 35.1357 131.005 33.0343C128.79 30.4865 127.046 27.5526 125.283 24.6283C123.638 21.8985 121.51 19.7401 118.885 18.213C117.103 17.1781 115.294 16.2017 113.521 15.1478C109.975 13.04 106.436 10.9163 102.917 8.75628C101.872 8.11539 100.902 7.32258 100.013 6.68327C99.7528 10.3166 99.5182 13.9578 99.2224 17.5927C99.0674 19.5075 98.847 21.4191 98.5824 23.3196C98.17 26.2867 97.6978 29.2443 97.247 32.205C97.0906 33.2289 96.9199 34.2512 96.7564 35.275C96.5928 35.0076 96.5871 34.7544 96.5942 34.5028C96.6582 32.2699 96.7123 30.0371 96.7934 27.8042C96.9185 24.3703 97.0096 20.9332 97.2143 17.5057C97.3907 14.5544 97.7135 11.6142 97.9538 8.66767C97.9993 8.11539 97.9595 7.5552 97.9595 6.93963C97.3181 7.28619 97.2087 7.77041 97.2442 8.36383C97.4063 11.0477 96.9854 13.684 96.6042 16.3062C96.0567 20.0692 95.0825 23.7199 93.8622 27.2852C93.5423 28.222 93.1612 29.1319 92.8085 30.0545C92.7246 30.0244 92.6393 29.9944 92.5554 29.9659C93.0901 27.07 93.6077 24.1709 94.1638 21.2798C94.7213 18.3823 95.3143 15.4928 95.8917 12.5985C95.6271 12.8042 95.5361 13.0621 95.4394 13.3169C94.1296 16.7587 92.8768 20.2275 91.493 23.6329C89.9144 27.5083 88.0542 31.2223 85.9437 34.7781ZM94.8094 120.276C94.5065 119.169 94.2349 118.173 93.905 116.963C93.8737 119.216 94.1055 120.09 94.8094 120.276ZM82.2873 119.017C82.2802 119.015 82.2432 119.012 82.2205 119.009C82.2205 119.221 82.2205 119.436 82.2205 119.65C82.2432 119.65 82.2646 119.65 82.2873 119.65C82.2873 119.441 82.2873 119.232 82.2873 119.017ZM78.9324 119.325C78.8955 119.341 78.8585 119.355 78.8215 119.371C78.8357 119.607 78.85 119.841 78.8627 120.077C78.8855 120.075 78.9083 120.074 78.9311 120.071C78.9325 119.822 78.9324 119.574 78.9324 119.325ZM116.759 73.2538C116.739 73.2538 116.721 73.2538 116.701 73.2538C116.701 73.4042 116.701 73.5561 116.701 73.7064C116.721 73.7064 116.739 73.7064 116.759 73.7064C116.759 73.5561 116.759 73.4057 116.759 73.2538ZM116.896 74.6765C116.914 74.6765 116.933 74.6765 116.951 74.6765C116.951 74.5815 116.951 74.4866 116.951 74.3916C116.937 74.3916 116.923 74.39 116.908 74.39C116.904 74.4866 116.9 74.5815 116.896 74.6765ZM117.176 86.5702C117.163 86.5433 117.15 86.518 117.137 86.4911C117.117 86.5417 117.092 86.5923 117.08 86.6461C117.076 86.6683 117.103 86.6983 117.116 86.7252C117.136 86.673 117.156 86.6224 117.176 86.5702ZM93.7314 116.496C93.7599 116.444 93.7897 116.403 93.8054 116.357C93.8139 116.331 93.7968 116.297 93.7912 116.265C93.7599 116.279 93.7016 116.292 93.7016 116.306C93.7016 116.366 93.7186 116.425 93.7314 116.496ZM67.211 117.431C67.2039 117.477 67.1968 117.521 67.1911 117.567C67.2054 117.547 67.2281 117.528 67.231 117.506C67.2338 117.483 67.2181 117.456 67.211 117.431ZM67.3832 116.787C67.376 116.816 67.3689 116.844 67.3604 116.873C67.386 116.854 67.413 116.836 67.4386 116.817C67.4201 116.808 67.4016 116.797 67.3832 116.787ZM67.6193 116.116C67.6008 116.121 67.5723 116.121 67.5652 116.134C67.5538 116.157 67.5552 116.187 67.5523 116.216C67.5822 116.209 67.6107 116.202 67.6405 116.195C67.6334 116.168 67.6264 116.141 67.6193 116.116ZM142.868 72.5101C142.884 72.4373 142.893 72.3977 142.901 72.3582C142.883 72.3661 142.848 72.374 142.847 72.3835C142.844 72.4136 142.856 72.4436 142.868 72.5101ZM121.064 73.2C121.055 73.2285 121.047 73.257 121.04 73.2855C121.072 73.2902 121.104 73.295 121.136 73.2982C121.132 73.2681 121.132 73.2348 121.121 73.2095C121.115 73.1984 121.084 73.2032 121.064 73.2ZM67.8311 115.581C67.8354 115.551 67.8396 115.523 67.8439 115.493C67.8126 115.501 67.7813 115.508 67.7501 115.516C67.7586 115.545 67.7643 115.573 67.7771 115.599C67.7799 115.603 67.8126 115.588 67.8311 115.581ZM117.163 75.7415C117.167 75.7114 117.171 75.6813 117.176 75.6528C117.144 75.6608 117.112 75.6687 117.08 75.6766C117.089 75.7051 117.095 75.7351 117.107 75.7589C117.11 75.7636 117.143 75.7478 117.163 75.7415ZM68.043 114.864C68.0302 114.837 68.016 114.812 68.0032 114.785C67.9847 114.801 67.9463 114.828 67.9477 114.833C67.9662 114.874 67.9904 114.912 68.0145 114.95C68.0245 114.921 68.0331 114.893 68.043 114.864ZM66.8342 118.819L66.7773 118.811L66.7986 118.903L66.8342 118.819ZM105.655 111.834C105.663 111.802 105.678 111.769 105.678 111.737C105.678 111.726 105.638 111.717 105.616 111.707C105.609 111.739 105.595 111.771 105.598 111.802C105.598 111.815 105.635 111.825 105.655 111.834ZM105.447 111.044C105.44 111.097 105.434 111.149 105.427 111.201C105.443 111.177 105.469 111.155 105.471 111.13C105.476 111.103 105.457 111.073 105.447 111.044ZM105.247 110.441C105.232 110.465 105.208 110.487 105.207 110.511C105.205 110.535 105.225 110.562 105.235 110.587C105.249 110.565 105.274 110.544 105.275 110.521C105.275 110.495 105.257 110.468 105.247 110.441ZM104.88 109.343C104.87 109.316 104.86 109.289 104.848 109.263C104.844 109.313 104.84 109.365 104.836 109.416C104.851 109.391 104.865 109.367 104.88 109.343ZM66.6151 119.45C66.6009 119.472 66.5782 119.493 66.5754 119.517C66.5725 119.541 66.591 119.567 66.5995 119.593C66.6137 119.571 66.6365 119.55 66.638 119.528C66.6408 119.503 66.6237 119.476 66.6151 119.45ZM104.665 108.755C104.674 108.721 104.689 108.688 104.688 108.656C104.688 108.645 104.648 108.636 104.627 108.625C104.619 108.658 104.605 108.69 104.607 108.721C104.607 108.734 104.644 108.743 104.665 108.755ZM104.44 108.109C104.457 108.093 104.484 108.08 104.489 108.061C104.496 108.036 104.486 108.004 104.483 107.976C104.456 107.995 104.425 108.011 104.406 108.038C104.4 108.046 104.428 108.084 104.44 108.109ZM111.585 105.53L111.548 105.612L111.608 105.621L111.585 105.53ZM66.4473 120.243C66.4388 120.216 66.4317 120.189 66.4232 120.164C66.4118 120.199 66.4004 120.234 66.389 120.267C66.4089 120.261 66.4289 120.251 66.4473 120.243ZM124.837 103.779C124.83 103.806 124.823 103.833 124.814 103.862C124.84 103.844 124.867 103.827 124.892 103.811C124.874 103.8 124.855 103.789 124.837 103.779ZM86.2566 48.96L86.2125 48.9252L86.2054 48.9806L86.2566 48.96ZM86.0262 49.3699L85.9935 49.419L86.0404 49.4284L86.0262 49.3699ZM124.264 102.178L124.232 102.229L124.281 102.236L124.264 102.178ZM124.619 103.314L124.665 103.35L124.672 103.294L124.619 103.314ZM125.049 104.455L125.081 104.403L125.033 104.393L125.049 104.455ZM60.7004 83.2945L60.6549 83.2597L60.6478 83.3151L60.7004 83.2945ZM61.0559 82.6678L61.0886 82.6156L61.0403 82.6077L61.0559 82.6678ZM147.843 80.598L147.812 80.6502L147.86 80.6581L147.843 80.598ZM133.576 109L133.545 109.052L133.593 109.06L133.576 109ZM105.048 109.883L105.013 109.937L105.063 109.946L105.048 109.883ZM54.13 111.204L54.0973 111.256L54.1456 111.266L54.13 111.204ZM154.577 111.198L154.544 111.252L154.593 111.26L154.577 111.198ZM115.153 114.054L115.121 114.108L115.17 114.116L115.153 114.054ZM188.018 114.095L188.063 114.132L188.07 114.073L188.018 114.095ZM191.262 115.423L191.216 115.388L191.21 115.445L191.262 115.423ZM192.022 117.36L191.988 117.414L192.038 117.423L192.022 117.36ZM158.935 119.577L158.9 119.629L158.949 119.639L158.935 119.577ZM82.4865 120.253L82.4295 120.212L82.4239 120.281L82.4865 120.253Z" fill="#EFF0F1"/>
<path d="M85.945 34.7781C85.8706 34.911 85.7962 35.0439 85.7218 35.1768L85.739 35.1958C85.7948 35.0423 85.8492 34.8904 85.905 34.7369L85.945 34.7781Z" fill="#EFF0F1"/>
<path d="M92.6502 30.632C92.6116 30.6653 92.573 30.6985 92.5343 30.7317C92.5143 30.6732 92.4757 30.6115 92.4799 30.5561C92.4842 30.5181 92.5486 30.4865 92.5872 30.4517C92.6087 30.5118 92.6287 30.5719 92.6502 30.632Z" fill="#EFF0F1"/>
<path d="M84.8392 37.2198C84.8578 37.2436 84.8778 37.2689 84.8964 37.2926C84.8749 37.3132 84.8521 37.3354 84.8306 37.3559C84.812 37.3322 84.7762 37.3069 84.7776 37.2831C84.7776 37.261 84.8163 37.242 84.8392 37.2198Z" fill="white"/>
<path d="M85.0368 36.7815C85.0554 36.8052 85.074 36.829 85.0926 36.8527C85.0711 36.8733 85.0497 36.8938 85.0282 36.9144C85.0096 36.8907 84.9753 36.8654 84.9767 36.8432C84.9782 36.8211 85.0153 36.8021 85.0368 36.7815Z" fill="white"/>
<path d="M85.1815 36.4029L85.2501 36.3748L85.243 36.4451L85.1815 36.4029Z" fill="white"/>
<path d="M85.722 35.1769C85.712 35.2034 85.7006 35.2284 85.6906 35.255C85.7063 35.2347 85.722 35.2159 85.7392 35.1956L85.722 35.1769Z" fill="white"/>
<path d="M108.72 90.8681C108.596 90.5721 108.472 90.2746 108.347 89.9787C108.419 89.9597 108.492 89.9392 108.565 89.9202C108.61 90.2414 108.657 90.5626 108.702 90.8839L108.72 90.8681Z" fill="white"/>
<path d="M108.913 91.5422C108.848 91.3175 108.784 91.0928 108.721 90.8682L108.704 90.884C108.767 91.1087 108.831 91.3333 108.896 91.5596L108.913 91.5422Z" fill="white"/>
<path d="M86.7145 91.7653C86.7402 91.5548 86.7546 91.4314 86.7689 91.3096C86.8161 91.395 86.8719 91.4773 86.9033 91.5691C86.9105 91.5896 86.8303 91.645 86.7145 91.7653Z" fill="white"/>
<path d="M88.3103 74.6068C88.3103 74.4818 88.3103 74.3552 88.3103 74.2286C88.3604 74.2492 88.4119 74.2698 88.462 74.2903C88.4062 74.39 88.3504 74.4913 88.2932 74.591L88.3103 74.6068Z" fill="white"/>
<path d="M87.9263 58.1113C87.8637 58.2601 87.7997 58.4104 87.7371 58.5607L87.6746 58.499C87.7442 58.355 87.8139 58.2094 87.8836 58.0654L87.9263 58.1113Z" fill="white"/>
<path d="M86.9208 58.5354C86.9537 58.4515 86.9866 58.3693 87.0181 58.2854C87.0381 58.3107 87.0596 58.3345 87.0796 58.3598C87.0224 58.4152 86.9652 58.4689 86.908 58.5243L86.9208 58.5354Z" fill="white"/>
<path d="M88.6034 73.5403C88.622 73.564 88.655 73.5877 88.6535 73.6099C88.6521 73.632 88.6149 73.651 88.5949 73.67C88.5763 73.6463 88.5434 73.6225 88.5448 73.6004C88.5463 73.5798 88.582 73.5609 88.6034 73.5403Z" fill="white"/>
<path d="M87.8835 58.0638C87.9365 58.0211 87.9908 57.9768 88.0438 57.9341C88.0051 57.9926 87.9651 58.0512 87.9265 58.1097L87.8835 58.0638Z" fill="white"/>
<path d="M140.58 95.5474C140.65 95.7579 140.722 95.9699 140.792 96.1803L140.811 96.1645C140.739 95.9525 140.669 95.7405 140.597 95.5284L140.58 95.5474Z" fill="white"/>
<path d="M126.522 109.392C126.581 109.451 126.641 109.509 126.695 109.573C126.698 109.576 126.658 109.625 126.638 109.652C126.605 109.56 126.571 109.468 126.538 109.376L126.522 109.392Z" fill="white"/>
<path d="M126.333 108.935C126.396 109.087 126.46 109.24 126.523 109.394L126.539 109.378C126.476 109.224 126.413 109.071 126.349 108.919L126.333 108.935Z" fill="white"/>
<path d="M140.598 95.5268C140.548 95.4318 140.498 95.3369 140.447 95.242C140.482 95.2309 140.517 95.2198 140.552 95.2087C140.562 95.3211 140.571 95.435 140.581 95.5474L140.598 95.5268Z" fill="white"/>
<path d="M132.08 89.7888C132.019 89.6923 131.958 89.5958 131.898 89.5008C131.938 89.4708 131.978 89.4407 132.018 89.4091C132.044 89.5309 132.07 89.6527 132.095 89.7746L132.08 89.7888Z" fill="white"/>
<path d="M131.759 88.9644C131.78 88.9644 131.8 88.9644 131.82 88.9644C131.809 89.0087 131.797 89.0514 131.786 89.0957C131.767 89.0735 131.74 89.053 131.732 89.0261C131.726 89.0102 131.749 88.9833 131.759 88.9644Z" fill="white"/>
<path d="M150.718 99.8998C150.667 99.8732 150.617 99.8467 150.565 99.8217C150.611 99.8545 150.657 99.8873 150.701 99.9185L150.718 99.8998Z" fill="white"/>
<path d="M131.594 88.4991C131.615 88.5245 131.654 88.5529 131.653 88.5767C131.651 88.602 131.611 88.6241 131.587 88.6463C131.565 88.621 131.527 88.5925 131.528 88.5688C131.528 88.545 131.57 88.5213 131.594 88.4991Z" fill="white"/>
<path d="M175.633 89.6956C175.633 89.8554 175.633 90.0136 175.633 90.1734C175.604 90.1734 175.575 90.1734 175.545 90.1734C175.545 90.0136 175.545 89.8554 175.545 89.6956C175.575 89.6956 175.604 89.6956 175.633 89.6956Z" fill="white"/>
<path d="M156.856 82.7406C156.806 82.6567 156.756 82.5713 156.707 82.4874C156.737 82.47 156.769 82.4526 156.799 82.4352C156.813 82.5428 156.828 82.6488 156.84 82.7564L156.856 82.7406Z" fill="white"/>
<path d="M175.438 89.0989C175.415 89.1258 175.395 89.1511 175.374 89.1749C175.349 89.1179 175.319 89.0625 175.304 89.0024C175.301 88.9913 175.348 88.9612 175.372 88.9407C175.395 88.9961 175.418 89.0498 175.438 89.0989Z" fill="white"/>
<path d="M187.718 94.5204C187.697 94.5409 187.674 94.5805 187.653 94.5789C187.632 94.5773 187.614 94.5346 187.595 94.5109C187.617 94.4903 187.64 94.4507 187.661 94.4523C187.681 94.4539 187.7 94.4966 187.718 94.5204Z" fill="white"/>
<path d="M187.866 95.0188C187.847 95.0077 187.829 94.9966 187.81 94.984C187.83 94.9539 187.85 94.9239 187.871 94.8938C187.89 94.916 187.907 94.9381 187.926 94.9587C187.906 94.9792 187.886 94.9982 187.866 95.0188Z" fill="white"/>
<path d="M188.122 95.4003C188.098 95.424 188.074 95.4493 188.049 95.4731C188.028 95.4462 187.988 95.4177 187.988 95.3924C187.989 95.3671 188.032 95.3433 188.055 95.3196C188.078 95.3465 188.099 95.3734 188.122 95.4003Z" fill="white"/>
<path d="M154.722 85.2801L154.785 85.2504L154.781 85.3191L154.722 85.2801Z" fill="white"/>
<path d="M56.8081 100.14C56.8324 100.084 56.8554 100.027 56.8797 99.9703C56.8497 100.019 56.8196 100.07 56.791 100.119L56.8081 100.14Z" fill="white"/>
</g>
</svg>
