<svg width="64" height="64" viewBox="0 0 64 64" fill="none" xmlns="http://www.w3.org/2000/svg">
<path d="M17.1063 41.6685L12.1966 58.8845M5.4126 56.9462L18.976 60.8136M9.96117 27.4788L18.8069 4.02734L35.5063 8.78163L30.6515 33.3759C30.3674 34.8455 29.7809 36.24 28.9292 37.4709C28.0774 38.7017 26.9791 39.7421 25.7039 40.5258C24.4287 41.3096 23.0045 41.8197 21.5217 42.0237C20.0388 42.2277 18.5298 42.1212 17.0903 41.7109C15.6508 41.3006 14.3123 40.5955 13.1599 39.6404C12.0074 38.6853 11.0661 37.501 10.3957 36.1627C9.72538 34.8244 9.34057 33.3613 9.26575 31.8664C9.19094 30.3715 9.42776 28.8773 9.96117 27.4788Z" stroke="#FE823A" stroke-width="3" stroke-linecap="round" stroke-linejoin="round"/>
<path d="M14.3909 15.7166L33.0697 21.088" stroke="#FE823A" stroke-width="3"/>
<path d="M39.1635 40.9736C41.1064 41.9322 43.2928 42.2841 45.4385 41.9836C47.5841 41.6831 49.5897 40.7441 51.1946 39.2886C52.7995 37.8331 53.9294 35.9285 54.4375 33.8223C54.9455 31.7162 54.8082 29.5059 54.0434 27.4788L45.1886 4.02734L42.5555 4.77249M46.8937 41.6685L51.8034 58.8845M58.5875 56.9462L45.024 60.8136M49.6092 15.7713L41.9794 17.9656" stroke="#FE823A" stroke-width="3" stroke-linecap="round" stroke-linejoin="round"/>
</svg>
