<svg width="64" height="64" viewBox="0 0 64 64" fill="none" xmlns="http://www.w3.org/2000/svg">
<path d="M30 19C23.6613 20.5263 18.2312 25.5387 14.9625 28.1787C14.0195 27.305 13.0257 26.4877 11.9862 25.7313C7.44125 22.4113 2 22 2 22C2 22 3.42125 28.4413 7.17 31.9788C3.42125 35.5175 2 41.9588 2 41.9588C2 41.9588 7.44125 41.5475 11.9862 38.2275C13.0169 37.4776 14.0024 36.6674 14.9375 35.8013C18.2 38.4438 23.655 43.4688 30 45L28 52C32.9288 51.1662 37.8575 47.5612 39.84 45.9688C56 45.25 62 34.875 62 32C62 29.25 56 18.75 39.8887 18.0338C37.94 16.4725 32.97 12.84 28 12L30 19Z" stroke="#FE823A" stroke-width="3" stroke-linejoin="round"/>
<path d="M52 31.9988C53.1046 31.9988 54 31.1033 54 29.9988C54 28.8942 53.1046 27.9988 52 27.9988C50.8954 27.9988 50 28.8942 50 29.9988C50 31.1033 50.8954 31.9988 52 31.9988Z" fill="#FE823A"/>
<path d="M47.2963 44.5C45.0925 40.7028 43.9318 36.3904 43.9318 32C43.9318 27.6096 45.0925 23.2972 47.2963 19.5" stroke="#FE823A" stroke-width="3" stroke-miterlimit="20" stroke-linecap="round"/>
</svg>
