<svg width="64" height="64" viewBox="0 0 64 64" fill="none" xmlns="http://www.w3.org/2000/svg">
<path d="M14.816 47.9998H49.184C51.699 47.9998 54.111 47.0008 55.8893 45.2224C57.6676 43.4441 58.6667 41.0321 58.6667 38.5172V31.9998C58.6667 30.5853 58.1048 29.2288 57.1046 28.2286C56.1044 27.2284 54.7479 26.6665 53.3334 26.6665C51.9189 26.6665 50.5623 27.2284 49.5621 28.2286C48.5619 29.2288 48 30.5853 48 31.9998V35.1998C48 35.7656 47.7753 36.3083 47.3752 36.7083C46.9751 37.1084 46.4325 37.3332 45.8667 37.3332H18.1334C17.5676 37.3332 17.025 37.1084 16.6249 36.7083C16.2248 36.3083 16 35.7656 16 35.1998V31.9998C16 30.5853 15.4381 29.2288 14.4379 28.2286C13.4378 27.2284 12.0812 26.6665 10.6667 26.6665C9.25222 26.6665 7.89567 27.2284 6.89547 28.2286C5.89528 29.2288 5.33337 30.5853 5.33337 31.9998V38.5172C5.33337 41.0321 6.33244 43.4441 8.11078 45.2224C9.88913 47.0008 12.3011 47.9998 14.816 47.9998Z" stroke="#FE823A" stroke-width="3"/>
<path d="M53.3334 26.6666C53.3334 24.1866 53.3334 22.9493 53.1281 21.9199C52.7166 19.8506 51.7006 17.9498 50.2087 16.4579C48.7169 14.966 46.8161 13.9501 44.7467 13.5386C43.7174 13.3333 42.4801 13.3333 40.0001 13.3333H24.0001C21.5201 13.3333 20.2827 13.3333 19.2534 13.5386C17.1841 13.9501 15.2833 14.966 13.7914 16.4579C12.2995 17.9498 11.2836 19.8506 10.8721 21.9199C10.6667 22.9493 10.6667 24.1866 10.6667 26.6666" stroke="#FE823A" stroke-width="3"/>
<path d="M53.3334 50.6667V48M10.6667 50.6667V48" stroke="#FE823A" stroke-width="3" stroke-linecap="round"/>
</svg>
